<svg width="218" height="141" viewBox="0 0 218 141" fill="none" xmlns="http://www.w3.org/2000/svg">
<path d="M40.4985 58.237C45.9569 56.3999 55.2909 58.9791 55.2909 58.9791C55.2909 58.9791 58.9057 57.5123 59.1457 55.4978C59.3353 53.9058 58.3856 53.0487 57.4456 51.7336C56.5056 50.4184 47.034 49.1197 40.7969 50.8984C36.7569 52.0505 34.6307 53.3774 31.3259 55.9417C27.6987 58.756 25.9978 60.8658 23.5595 64.7449C21.5076 68.0091 20.5188 70.0215 19.4873 73.7385C17.955 79.2598 17.352 82.8732 18.8901 88.4238C20.2763 93.4264 22.6232 97.4891 25.7652 101.65C28.847 105.73 30.6029 108.136 34.6389 111.292C38.4676 114.286 40.8883 115.856 45.5113 117.356C48.3587 118.28 55.6744 118.678 62.1559 118.191C65.8297 117.915 67.908 117.702 71.4775 116.819C77.7344 115.272 80.6009 114.626 86.4966 112.054C90.2699 110.408 135.999 79.5873 137.924 77.8447C142.209 73.9658 143.471 70.627 145.843 65.3656C148.557 59.3488 149.122 59.2426 150.065 52.701C150.882 47.0248 152.047 39.9657 150.811 34.3437C149.354 27.7139 148.389 24.522 144.011 19.2864C139.37 13.7365 134.281 10.7079 127.814 7.4366C121.219 4.10066 116.84 3.05156 109.47 2.83756C102.807 2.6441 98.8342 3.20674 92.6759 5.67337C68.1856 15.4828 49.3184 23.7335 26.5284 37.3025L26.4172 37.3977C24.1757 39.318 22.8817 40.4265 20.7563 42.5317C17.4957 45.7612 15.8215 47.7366 12.9853 51.3403C11.3889 53.3687 10.4762 54.5003 9.06411 56.66C7.31208 59.3398 6.26485 60.8478 5.06697 63.817C3.70109 67.2026 3.41177 69.2923 2.84418 72.9029C2.06484 77.8604 1.83593 80.7482 2.32154 85.7553C2.82641 90.9609 3.13854 95.8945 5.422 100.624C7.43086 104.786 9.46946 108.404 12.3715 112.015C16.8571 117.594 19.2635 119.202 24.8649 123.678C28.1646 126.315 30.284 127.443 33.888 129.649C38.0343 132.187 44.8351 133.874 44.8351 133.874C44.8351 133.874 126.138 139.796 135.461 138.421C144.931 133.38 217.151 89.1707 215.375 87.2453C212.171 87.0871 161.794 84.558 147.164 83.8235L143.249 83.627C141.326 85.3668 141.1 90.8802 142.875 92.8065C146.573 92.9938 187.26 95.0331 189.109 95.1277C190.884 97.0557 139.756 123.923 134.058 127.314C126.586 128.781 45.283 122.861 45.283 122.861C45.283 122.861 38.3091 121.441 34.3403 118.635C30.552 115.956 28.7216 114.054 25.3919 110.828C21.7153 107.266 19.3154 103.668 16.5928 99.3454C13.6604 94.6902 12.4072 91.6292 11.5656 86.2191C10.7919 81.2453 11.3102 78.3246 12.0896 73.3674C12.6573 69.7565 14.3427 64.7825 16.3111 60.7067C17.7034 57.8237 18.2286 57.8826 20.2338 55.385C22.1361 53.0156 23.6624 52.0958 26.006 50.1562C29.5431 47.2285 31.3603 47.1713 35.4768 45.113C38.9395 43.3816 41.091 42.7805 44.8732 41.9032C49.1421 40.9129 51.6432 40.5839 56.0372 40.626C61.8674 40.6819 65.2879 41.1636 70.7646 43.2043C75.3194 44.9016 77.8082 46.2752 81.637 49.2682C85.673 52.4232 88.0826 54.4203 90.5111 58.9108C93.0102 63.532 93.1788 66.7373 93.6828 71.9416C94.1677 76.9478 94.5643 79.9788 93.1603 84.7918C91.5431 90.3351 89.2962 93.1565 85.2401 97.2708C82.0188 100.538 79.7312 101.942 75.6946 104.15C70.8935 106.776 67.9415 108.088 62.5248 109.008C56.1236 110.095 51.9508 110.556 45.8803 108.173C41.0164 106.263 38.8369 103.901 35.0825 100.273C31.0162 96.3432 28.013 94.1486 26.2834 88.7947C24.5119 83.3107 25.3482 79.6302 26.8806 74.1088C27.9122 70.392 28.579 68.1551 30.9528 65.1158C33.7754 61.5019 36.1288 59.7077 40.4985 58.237Z" fill="#FF0000" stroke="black" stroke-width="4"/>
</svg>
