<svg width="229" height="147" viewBox="0 0 229 147" fill="none" xmlns="http://www.w3.org/2000/svg">
<path d="M115.025 3.51855L115.104 3.53027L120.043 4.54395H120.044L124.285 5.32617C124.307 5.33023 124.329 5.33571 124.351 5.3418L128.46 6.50781C128.482 6.51394 128.503 6.52117 128.524 6.5293L132.466 8.06152C132.487 8.0697 132.508 8.07875 132.528 8.08887L136.268 9.9668C136.288 9.97695 136.308 9.98798 136.327 10L139.834 12.2002L139.89 12.2393L143.135 14.7354L143.188 14.7793L146.146 17.543L146.193 17.5928L148.843 20.5928L148.886 20.6465L151.206 23.8516C151.22 23.8703 151.232 23.8902 151.244 23.9102L153.221 27.2861C153.232 27.306 153.243 27.3268 153.253 27.3477L154.874 30.8604L154.899 30.9258L156.155 34.54L156.176 34.6074L157.062 38.2871L157.074 38.3564L157.59 42.0654C157.593 42.0886 157.596 42.1124 157.597 42.1357L157.743 45.8398C157.744 45.8633 157.744 45.8877 157.742 45.9111L157.526 49.5752C157.525 49.5986 157.523 49.6224 157.52 49.6455L156.949 53.2373C156.946 53.2602 156.941 53.2833 156.936 53.3057L156.024 56.792C156.019 56.8144 156.011 56.8366 156.003 56.8584L154.766 60.209C154.758 60.2307 154.748 60.2526 154.738 60.2734L153.193 63.458C153.183 63.4789 153.172 63.4997 153.16 63.5195L151.327 66.5127C151.315 66.5324 151.302 66.5519 151.288 66.5703L149.192 69.3486C149.178 69.3671 149.163 69.3853 149.147 69.4023L146.812 71.9434C146.797 71.9603 146.78 71.9768 146.763 71.9922L144.216 74.2764C144.19 74.2991 144.163 74.32 144.135 74.3389L87.0332 112.467C86.9966 112.491 86.9574 112.512 86.917 112.529L82.7197 114.327C82.6917 114.339 82.6631 114.35 82.6338 114.358L79.9014 115.135L79.8887 115.139L76.0029 116.169C75.9888 116.173 75.9743 116.176 75.96 116.179L73.3848 116.693C73.3736 116.696 73.3619 116.698 73.3506 116.699L69.2314 117.319C69.219 117.321 69.2059 117.323 69.1934 117.324L64.9473 117.734C64.9244 117.737 64.9009 117.737 64.8779 117.737H56.7637C56.7324 117.737 56.701 117.736 56.6699 117.731L53.5791 117.321C53.5546 117.318 53.5299 117.313 53.5059 117.308L50.9307 116.688C50.9202 116.685 50.9098 116.682 50.8994 116.679L47.3457 115.649C47.3057 115.638 47.2669 115.622 47.2295 115.604L44.0869 114.059C44.0692 114.05 44.0511 114.04 44.0342 114.03L41.46 112.485C41.443 112.475 41.4262 112.464 41.4102 112.452L38.5459 110.393C38.5241 110.377 38.5023 110.36 38.4824 110.342L35.6406 107.767C35.6159 107.744 35.5926 107.72 35.5713 107.694L33.5527 105.271C33.5474 105.264 33.5412 105.258 33.5361 105.251L31.4873 102.606C31.4811 102.598 31.4746 102.59 31.4688 102.582L29.3984 99.6611C29.3731 99.6254 29.3504 99.5866 29.332 99.5469L27.7871 96.2061C27.776 96.182 27.7662 96.1569 27.7578 96.1318L26.7275 93.042C26.7159 93.007 26.7073 92.97 26.7012 92.9336L26.1855 89.8779C26.179 89.8388 26.1758 89.7985 26.1758 89.7588V87.1494C26.1758 87.1023 26.1802 87.055 26.1895 87.0088L26.7051 84.4336L26.7422 84.3086L27.7725 81.7334L27.8135 81.6484C27.8288 81.6212 27.8455 81.5944 27.8643 81.5693L29.4092 79.5088C29.4403 79.4673 29.4764 79.4293 29.5156 79.3955L29.5166 79.3945L29.5186 79.3936C29.5199 79.3924 29.5213 79.3905 29.5234 79.3887C29.5279 79.3849 29.5343 79.3795 29.542 79.373C29.5573 79.3602 29.5789 79.3418 29.6064 79.3193C29.6618 79.2741 29.7412 79.2104 29.8398 79.1348C30.0367 78.9839 30.3156 78.7819 30.6406 78.5771C31.2568 78.189 32.1695 77.7078 33.0488 77.6777C33.5526 77.6605 34.2095 77.6182 34.7852 77.7344C35.4157 77.8618 36.0353 78.1933 36.3916 78.9434C36.5462 79.269 36.5768 79.6177 36.5664 79.9072C36.5558 80.2028 36.5004 80.491 36.4385 80.7324C36.3758 80.9765 36.3013 81.1917 36.2432 81.3447C36.2275 81.3859 36.2114 81.4226 36.1982 81.4551L36.1729 83.3799L36.377 85.4209L36.8164 87.4678L37.4912 89.4932L38.4072 91.4873L39.5615 93.4258L40.9512 95.291L42.5566 97.0449L44.3818 98.6846L46.417 100.189L48.6523 101.541L51.0391 102.704L53.5918 103.681L56.2666 104.447L59.0518 104.994L61.9248 105.311L64.8662 105.388L67.8271 105.216L70.7871 104.794L73.7207 104.12L76.6064 103.191L79.3975 102.017L82.0684 100.603L84.6074 98.9482L86.9629 97.0801L89.127 94.998L91.0684 92.7217L92.7617 90.2764L94.1875 87.6768L95.332 84.9346L96.1709 82.0967L96.6982 79.1562L96.8965 76.1738L96.7607 73.1514L96.2852 70.1191L95.4658 67.1123L94.3057 64.1602L92.8008 61.2764L90.9736 58.5156L88.8232 55.8887L86.3584 53.4189L83.6123 51.1514L80.5879 49.0947L77.3242 47.2832L73.832 45.7334L70.1641 44.4717L66.3213 43.5078L62.3652 42.8633L58.3174 42.5459L54.2178 42.5645L50.1025 42.9258L46.0156 43.6318L41.9941 44.6807L38.0664 46.0723L34.2842 47.7959L30.6875 49.8359L27.3018 52.1875L24.1719 54.8242L21.332 57.7256L18.7988 60.8828L16.6201 64.2451L14.8086 67.8008L13.3838 71.5283L12.375 75.375L11.792 79.3115L11.6455 83.3154L11.9453 87.3447L12.6963 91.3643L13.8965 95.3301L15.5449 99.21L17.6299 102.968L20.1416 106.562L23.0615 109.959L26.373 113.127L30.0469 116.028L34.0557 118.632L38.3887 120.923L38.4023 120.931L43.1592 123.576L48.4873 125.55L52.7217 126.283L67.9258 127.118L137.452 129.686L198.212 97.084C196.937 97.0597 195.269 97.0291 193.316 96.9922C188.705 96.9051 182.507 96.789 176.166 96.6729C163.477 96.4404 150.226 96.208 147.921 96.208C147.576 96.208 147.279 95.9613 147.216 95.6221C146.48 91.6874 146.713 89.3195 147.209 85.4395L147.238 85.3096C147.332 85.0182 147.605 84.8125 147.921 84.8125C150.258 84.8125 169.858 85.736 188.832 86.6562C198.328 87.1168 207.68 87.5774 214.657 87.9229C218.146 88.0956 221.041 88.2391 223.064 88.3398C224.076 88.3902 224.87 88.43 225.41 88.457C225.68 88.4705 225.888 88.4803 226.027 88.4873C226.097 88.4908 226.149 88.4934 226.185 88.4951C226.202 88.496 226.216 88.4966 226.225 88.4971C226.229 88.4973 226.233 88.4979 226.235 88.498H226.237C226.238 88.5016 226.235 88.5503 226.202 89.2148L226.238 88.498C226.553 88.5138 226.82 88.7331 226.897 89.0381C226.975 89.343 226.845 89.6632 226.576 89.8271L137.994 143.898C137.873 143.972 137.732 144.009 137.591 144.003L137.621 143.286L137.59 144.002H137.575C137.565 144.002 137.549 144.001 137.528 144C137.487 143.998 137.424 143.996 137.342 143.992C137.177 143.985 136.933 143.975 136.614 143.962C135.977 143.935 135.041 143.896 133.849 143.846C131.464 143.745 128.052 143.6 123.943 143.423C115.725 143.069 104.718 142.586 93.5625 142.071C82.4079 141.556 71.1034 141.008 62.291 140.525C57.8855 140.284 54.1 140.059 51.2666 139.861C48.4683 139.666 46.5256 139.494 45.8691 139.352C45.8293 139.343 45.7898 139.331 45.752 139.315C43.9128 138.57 41.6009 137.535 39.7559 136.688C38.8323 136.265 38.0229 135.888 37.4443 135.616C37.1552 135.481 36.9231 135.371 36.7637 135.296C36.6841 135.258 36.6219 135.229 36.5801 135.209C36.5593 135.199 36.543 135.192 36.5322 135.187C36.5272 135.184 36.5232 135.182 36.5205 135.181C36.5193 135.18 36.5183 135.179 36.5176 135.179H36.5166C36.4981 135.17 36.4796 135.16 36.4619 135.149L31.6914 132.352C31.6711 132.34 31.6509 132.326 31.6318 132.312L26.9863 128.931C26.9696 128.919 26.9531 128.905 26.9375 128.892L22.9834 125.451L22.9766 125.445L19.0449 121.934C19.0279 121.918 19.0116 121.902 18.9961 121.885L15.4502 118.05C15.4348 118.033 15.42 118.015 15.4062 117.997L12.2744 113.877C12.2605 113.859 12.2474 113.839 12.2354 113.819L9.54004 109.457C9.52792 109.437 9.51604 109.417 9.50586 109.396L7.2666 104.835C7.25643 104.814 7.24641 104.793 7.23828 104.771L5.46875 100.056C5.4606 100.034 5.45327 100.012 5.44727 99.9893L4.15527 95.166C4.14925 95.1435 4.14443 95.1197 4.14062 95.0967L3.33301 90.2109C3.32923 90.1881 3.32674 90.1647 3.3252 90.1416L3.00195 85.2383C3.00043 85.2151 3.00024 85.1912 3.00098 85.168L3.1582 80.2949L3.16309 80.2246L3.79199 75.4238L3.80469 75.3545L4.8916 70.6709L4.91113 70.6035L6.44043 66.0771L6.46582 66.0117L8.41602 61.6826L8.44727 61.6211L10.7939 57.5264L10.832 57.4678L13.5479 53.6406L13.5898 53.5859L16.6445 50.0596L16.7217 49.9824L26.9443 41.2822L27.0127 41.2305C27.0368 41.2145 27.062 41.2004 27.0879 41.1875L102.245 3.59082L102.375 3.54102C102.42 3.52871 102.465 3.52112 102.512 3.51758L109.24 3.00293C109.28 2.99988 109.321 2.99931 109.36 3.00293L115.025 3.51855Z" fill="#3A5483"/>
<path d="M115.025 3.51855L115.327 1.48075C115.289 1.47508 115.251 1.4705 115.212 1.46699L115.025 3.51855ZM115.104 3.53027L115.519 1.5123C115.481 1.50466 115.444 1.49804 115.406 1.49247L115.104 3.53027ZM120.043 4.54395L119.629 6.56192C119.765 6.58989 119.904 6.60399 120.043 6.60399V4.54395ZM120.044 4.54395L120.418 2.51807C120.294 2.49534 120.169 2.4839 120.044 2.4839V4.54395ZM124.285 5.32617L124.659 3.30042L124.659 3.3003L124.285 5.32617ZM124.351 5.3418L124.913 3.35999L124.912 3.35974L124.351 5.3418ZM128.46 6.50781L129.023 4.52614L129.022 4.526L128.46 6.50781ZM128.524 6.5293L129.271 4.60924L129.27 4.60908L128.524 6.5293ZM132.466 8.06152L133.213 6.1416L133.212 6.14146L132.466 8.06152ZM132.528 8.08887L133.453 6.24795L133.453 6.24788L132.528 8.08887ZM136.268 9.9668L137.192 8.12601L137.192 8.12587L136.268 9.9668ZM136.327 10L137.422 8.25497L137.422 8.25484L136.327 10ZM139.834 12.2002L141.017 10.5139C140.988 10.4936 140.959 10.474 140.929 10.4552L139.834 12.2002ZM139.89 12.2393L141.146 10.6064C141.122 10.5881 141.098 10.5703 141.073 10.553L139.89 12.2393ZM143.135 14.7354L144.454 13.1528C144.433 13.1356 144.412 13.1188 144.391 13.1025L143.135 14.7354ZM143.188 14.7793L144.594 13.274C144.565 13.2474 144.536 13.2217 144.506 13.1967L143.188 14.7793ZM146.146 17.543L147.631 16.1157C147.605 16.089 147.579 16.063 147.552 16.0377L146.146 17.543ZM146.193 17.5928L147.737 16.2291C147.718 16.2075 147.699 16.1863 147.679 16.1655L146.193 17.5928ZM148.843 20.5928L150.451 19.3059C150.431 19.2798 150.409 19.2542 150.387 19.2291L148.843 20.5928ZM148.886 20.6465L150.554 19.4385C150.535 19.4117 150.515 19.3854 150.494 19.3596L148.886 20.6465ZM151.206 23.8516L152.875 22.6442L152.875 22.6435L151.206 23.8516ZM151.244 23.9102L153.022 22.8693L153.022 22.8693L151.244 23.9102ZM153.221 27.2861L154.999 26.2461L154.998 26.2453L153.221 27.2861ZM153.253 27.3477L155.123 26.4844L155.123 26.4833L153.253 27.3477ZM154.874 30.8604L156.795 30.1151C156.779 30.0753 156.762 30.0359 156.744 29.9971L154.874 30.8604ZM154.899 30.9258L156.845 30.2496C156.837 30.2264 156.829 30.2034 156.82 30.1805L154.899 30.9258ZM156.155 34.54L158.126 33.9402C158.118 33.9146 158.11 33.8892 158.101 33.8639L156.155 34.54ZM156.176 34.6074L158.179 34.1253C158.169 34.0858 158.158 34.0465 158.147 34.0076L156.176 34.6074ZM157.062 38.2871L159.088 37.9161C159.081 37.8788 159.073 37.8418 159.064 37.805L157.062 38.2871ZM157.074 38.3564L159.115 38.0728C159.111 38.0436 159.106 38.0144 159.101 37.9854L157.074 38.3564ZM157.59 42.0654L159.63 41.7824L159.63 41.7818L157.59 42.0654ZM157.597 42.1357L159.655 42.0543L159.655 42.0536L157.597 42.1357ZM157.743 45.8398L159.802 45.7593L159.802 45.7584L157.743 45.8398ZM157.742 45.9111L155.686 45.79L155.686 45.79L157.742 45.9111ZM157.526 49.5752L159.583 49.6966L159.583 49.6963L157.526 49.5752ZM157.52 49.6455L159.554 49.9686L159.554 49.9677L157.52 49.6455ZM156.949 53.2373L158.984 53.5617L158.984 53.5604L156.949 53.2373ZM156.936 53.3057L158.929 53.8266L158.929 53.8256L156.936 53.3057ZM156.024 56.792L158.017 57.3146L158.018 57.3129L156.024 56.792ZM156.003 56.8584L157.935 57.572L157.936 57.5711L156.003 56.8584ZM154.766 60.209L156.697 60.9247L156.698 60.9226L154.766 60.209ZM154.738 60.2734L156.592 61.1726L156.592 61.1726L154.738 60.2734ZM153.193 63.458L155.047 64.3575L155.047 64.3572L153.193 63.458ZM153.16 63.5195L154.917 64.5954L154.917 64.5947L153.16 63.5195ZM151.327 66.5127L149.57 65.4368L149.57 65.4369L151.327 66.5127ZM151.288 66.5703L152.933 67.8109L152.933 67.8108L151.288 66.5703ZM149.192 69.3486L150.836 70.5899L150.837 70.5892L149.192 69.3486ZM149.147 69.4023L147.631 68.0083L147.631 68.0085L149.147 69.4023ZM146.812 71.9434L148.329 73.3378L148.329 73.3372L146.812 71.9434ZM146.763 71.9922L148.138 73.5258L148.138 73.5257L146.763 71.9922ZM144.216 74.2764L145.591 75.8102L145.591 75.81L144.216 74.2764ZM144.135 74.3389L142.991 72.6256L142.991 72.6256L144.135 74.3389ZM87.0332 112.467L88.1769 114.18L88.1772 114.18L87.0332 112.467ZM86.917 112.529L87.7281 114.423L87.7282 114.423L86.917 112.529ZM82.7197 114.327L83.5302 116.221L83.5308 116.221L82.7197 114.327ZM82.6338 114.358L83.1968 116.34L83.1973 116.34L82.6338 114.358ZM79.9014 115.135L79.3383 113.153C79.324 113.157 79.3098 113.161 79.2955 113.166L79.9014 115.135ZM79.8887 115.139L80.4166 117.13C80.4427 117.123 80.4687 117.116 80.4945 117.108L79.8887 115.139ZM76.0029 116.169L76.5298 118.16L76.5309 118.16L76.0029 116.169ZM75.96 116.179L76.3637 118.199L76.364 118.199L75.96 116.179ZM73.3848 116.693L73.7882 118.714L73.7885 118.713L73.3848 116.693ZM73.3506 116.699L73.044 114.662L73.0439 114.662L73.3506 116.699ZM69.2314 117.319L69.5379 119.356L69.5381 119.356L69.2314 117.319ZM69.1934 117.324L69.3914 119.375L69.3921 119.375L69.1934 117.324ZM64.9473 117.734L64.7492 115.684L64.7492 115.684L64.9473 117.734ZM64.8779 117.737L64.8779 119.797L64.8781 119.797L64.8779 117.737ZM56.7637 117.737L56.7628 119.797H56.7637V117.737ZM56.6699 117.731L56.3989 119.774L56.4003 119.774L56.6699 117.731ZM53.5791 117.321L53.3069 119.363L53.3081 119.363L53.5791 117.321ZM53.5059 117.308L53.0236 119.31L53.0242 119.311L53.5059 117.308ZM50.9307 116.688L50.4476 118.69L50.4484 118.69L50.9307 116.688ZM50.8994 116.679L51.473 114.7L51.4725 114.7L50.8994 116.679ZM47.3457 115.649L46.7711 117.628L46.7726 117.628L47.3457 115.649ZM47.2295 115.604L46.3206 117.452L46.3209 117.452L47.2295 115.604ZM44.0869 114.059L43.177 115.907L43.1781 115.907L44.0869 114.059ZM44.0342 114.03L42.9741 115.797L42.9751 115.797L44.0342 114.03ZM41.46 112.485L42.52 110.719L42.5198 110.719L41.46 112.485ZM41.4102 112.452L40.2075 114.125L40.2079 114.125L41.4102 112.452ZM38.5459 110.393L37.3431 112.065L37.3432 112.065L38.5459 110.393ZM38.4824 110.342L37.0991 111.868L37.0999 111.869L38.4824 110.342ZM35.6406 107.767L34.257 109.293L34.2573 109.293L35.6406 107.767ZM35.5713 107.694L33.9883 109.013L33.9892 109.014L35.5713 107.694ZM33.5527 105.271L35.1357 103.952L35.1356 103.952L33.5527 105.271ZM33.5361 105.251L31.9076 106.513L31.9109 106.517L33.5361 105.251ZM31.4873 102.606L33.1158 101.345L33.1155 101.344L31.4873 102.606ZM31.4688 102.582L29.7881 103.773L29.7896 103.775L31.4688 102.582ZM29.3984 99.6611L31.0791 98.4699L31.079 98.4698L29.3984 99.6611ZM29.332 99.5469L27.4622 100.412L27.4626 100.412L29.332 99.5469ZM27.7871 96.2061L25.9173 97.0706L25.9173 97.0707L27.7871 96.2061ZM27.7578 96.1318L25.8035 96.7835L25.8039 96.7846L27.7578 96.1318ZM26.7275 93.042L24.7732 93.6934L24.7733 93.6936L26.7275 93.042ZM26.7012 92.9336L24.6698 93.2764L24.6699 93.2766L26.7012 92.9336ZM26.1855 89.8779L24.1539 90.2188L24.1542 90.2207L26.1855 89.8779ZM26.1758 89.7588L24.1157 89.7588L24.1157 89.7596L26.1758 89.7588ZM26.1758 87.1494L24.1157 87.149V87.1494H26.1758ZM26.1895 87.0088L24.1695 86.6043L24.1693 86.6056L26.1895 87.0088ZM26.7051 84.4336L24.7302 83.8473C24.7124 83.9072 24.6974 83.9679 24.6851 84.0291L26.7051 84.4336ZM26.7422 84.3086L24.8295 83.5434C24.8061 83.602 24.7853 83.6617 24.7673 83.7223L26.7422 84.3086ZM27.7725 81.7334L25.9173 80.8378C25.8966 80.8806 25.8775 80.9241 25.8598 80.9682L27.7725 81.7334ZM27.8135 81.6484L26.0174 80.6395C25.9965 80.6767 25.9768 80.7145 25.9583 80.7528L27.8135 81.6484ZM27.8643 81.5693L26.216 80.3336L26.2152 80.3347L27.8643 81.5693ZM29.4092 79.5088L27.7611 78.2728L27.761 78.273L29.4092 79.5088ZM29.5156 79.3955L30.8597 80.9567C30.8985 80.9233 30.9361 80.8884 30.9723 80.8522L29.5156 79.3955ZM29.5166 79.3945L28.5953 77.552C28.3973 77.651 28.2165 77.7813 28.0599 77.9379L29.5166 79.3945ZM29.5186 79.3936L30.4398 81.2361C30.5899 81.1611 30.7303 81.068 30.8578 80.9589L29.5186 79.3936ZM29.5234 79.3887L28.1888 77.8194L28.1805 77.8265L29.5234 79.3887ZM29.542 79.373L28.2172 77.7955L28.2171 77.7955L29.542 79.373ZM29.6064 79.3193L28.3028 77.7243L28.3027 77.7244L29.6064 79.3193ZM29.8398 79.1348L28.5869 77.4995L28.5869 77.4996L29.8398 79.1348ZM30.6406 78.5771L29.5426 76.8341L29.5425 76.8342L30.6406 78.5771ZM33.0488 77.6777L32.9784 75.6189L32.9783 75.6189L33.0488 77.6777ZM34.7852 77.7344L35.1932 75.7151L35.1928 75.7151L34.7852 77.7344ZM36.3916 78.9434L38.2526 78.06L38.2524 78.0595L36.3916 78.9434ZM36.5664 79.9072L38.6251 79.9812L38.6251 79.9809L36.5664 79.9072ZM36.4385 80.7324L38.4338 81.2446L38.4339 81.2445L36.4385 80.7324ZM36.2432 81.3447L38.1688 82.0766L38.169 82.0762L36.2432 81.3447ZM36.1982 81.4551L34.2883 80.6832C34.1926 80.92 34.1417 81.1725 34.1384 81.4279L36.1982 81.4551ZM36.1729 83.3799L34.113 83.3527C34.112 83.4302 34.1153 83.5077 34.123 83.5849L36.1729 83.3799ZM36.377 85.4209L34.3271 85.6259C34.3348 85.7023 34.3467 85.7782 34.3628 85.8533L36.377 85.4209ZM36.8164 87.4678L34.8023 87.9002C34.8181 87.9742 34.8381 88.0472 34.862 88.1189L36.8164 87.4678ZM37.4912 89.4932L35.5368 90.1443C35.5605 90.2154 35.588 90.285 35.6192 90.3531L37.4912 89.4932ZM38.4072 91.4873L36.5352 92.3472C36.5658 92.4137 36.5998 92.4784 36.6372 92.5413L38.4072 91.4873ZM39.5615 93.4258L37.7915 94.4798C37.8278 94.5407 37.8672 94.5997 37.9096 94.6565L39.5615 93.4258ZM40.9512 95.291L39.2992 96.5218C39.3406 96.5774 39.3848 96.6308 39.4316 96.682L40.9512 95.291ZM42.5566 97.0449L41.0371 98.4359C41.0824 98.4853 41.1301 98.5326 41.1799 98.5774L42.5566 97.0449ZM44.3818 98.6846L43.0051 100.217C43.0538 100.261 43.1045 100.302 43.157 100.341L44.3818 98.6846ZM46.417 100.189L45.1922 101.846C45.2435 101.884 45.2965 101.919 45.3511 101.952L46.417 100.189ZM48.6523 101.541L47.5865 103.304C47.6396 103.336 47.6941 103.366 47.7499 103.393L48.6523 101.541ZM51.0391 102.704L50.1366 104.556C50.191 104.582 50.2465 104.607 50.303 104.628L51.0391 102.704ZM53.5918 103.681L52.8557 105.605C52.9111 105.626 52.9673 105.645 53.0242 105.661L53.5918 103.681ZM56.2666 104.447L55.699 106.428C55.7553 106.444 55.8122 106.457 55.8697 106.469L56.2666 104.447ZM59.0518 104.994L58.6548 107.016C58.7116 107.027 58.7688 107.035 58.8263 107.042L59.0518 104.994ZM61.9248 105.311L61.6993 107.358C61.7563 107.364 61.8135 107.368 61.8708 107.37L61.9248 105.311ZM64.8662 105.388L64.8122 107.447C64.87 107.449 64.9279 107.448 64.9856 107.444L64.8662 105.388ZM67.8271 105.216L67.9465 107.272C68.0038 107.269 68.061 107.263 68.1178 107.255L67.8271 105.216ZM70.7871 104.794L71.0778 106.833C71.135 106.825 71.1919 106.815 71.2483 106.802L70.7871 104.794ZM73.7207 104.12L74.1819 106.128C74.2392 106.115 74.2959 106.099 74.3518 106.081L73.7207 104.12ZM76.6064 103.191L77.2375 105.152C77.2945 105.134 77.3505 105.113 77.4057 105.09L76.6064 103.191ZM79.3975 102.017L80.1967 103.915C80.2527 103.892 80.3076 103.866 80.3614 103.837L79.3975 102.017ZM82.0684 100.603L83.0323 102.423C83.0872 102.394 83.1408 102.363 83.1929 102.329L82.0684 100.603ZM84.6074 98.9482L85.732 100.674C85.7855 100.639 85.8375 100.602 85.8875 100.562L84.6074 98.9482ZM86.9629 97.0801L88.243 98.6941C88.2944 98.6533 88.3439 98.6101 88.3912 98.5646L86.9629 97.0801ZM89.127 94.998L90.5552 96.4826C90.604 96.4356 90.6504 96.3863 90.6944 96.3348L89.127 94.998ZM91.0684 92.7217L92.6358 94.0585C92.6806 94.0059 92.7227 93.9512 92.762 93.8945L91.0684 92.7217ZM92.7617 90.2764L94.4553 91.4492C94.496 91.3904 94.5336 91.3296 94.5679 91.267L92.7617 90.2764ZM94.1875 87.6768L95.9937 88.6674C96.0288 88.6034 96.0605 88.5376 96.0886 88.4702L94.1875 87.6768ZM95.332 84.9346L97.2331 85.728C97.2617 85.6596 97.2865 85.5897 97.3076 85.5185L95.332 84.9346ZM96.1709 82.0967L98.1464 82.6806C98.1679 82.6082 98.1853 82.5347 98.1986 82.4603L96.1709 82.0967ZM96.6982 79.1562L98.7259 79.5199C98.7394 79.4448 98.7487 79.369 98.7538 79.2929L96.6982 79.1562ZM96.8965 76.1738L98.952 76.3105C98.9571 76.2342 98.9579 76.1577 98.9545 76.0814L96.8965 76.1738ZM96.7607 73.1514L98.8187 73.0589C98.8153 72.983 98.8077 72.9073 98.7959 72.8322L96.7607 73.1514ZM96.2852 70.1191L98.3203 69.7999C98.3086 69.725 98.2927 69.6507 98.2727 69.5775L96.2852 70.1191ZM95.4658 67.1123L97.4534 66.5707C97.4338 66.4989 97.4104 66.4281 97.3831 66.3588L95.4658 67.1123ZM94.3057 64.1602L96.223 63.4067C96.1962 63.3386 96.1658 63.272 96.132 63.2071L94.3057 64.1602ZM92.8008 61.2764L94.6271 60.3233C94.5942 60.2602 94.558 60.1988 94.5187 60.1394L92.8008 61.2764ZM90.9736 58.5156L92.6915 57.3787C92.6531 57.3206 92.6118 57.2646 92.5677 57.2107L90.9736 58.5156ZM88.8232 55.8887L90.4173 54.5838C90.3745 54.5315 90.3291 54.4813 90.2814 54.4334L88.8232 55.8887ZM86.3584 53.4189L87.8165 51.9637C87.7699 51.917 87.721 51.8725 87.6701 51.8305L86.3584 53.4189ZM83.6123 51.1514L84.924 49.5629C84.8747 49.5222 84.8236 49.4838 84.7707 49.4479L83.6123 51.1514ZM80.5879 49.0947L81.7463 47.3912C81.6949 47.3563 81.642 47.3237 81.5877 47.2935L80.5879 49.0947ZM77.3242 47.2832L78.324 45.482C78.2705 45.4523 78.2157 45.4251 78.1599 45.4003L77.3242 47.2832ZM73.832 45.7334L74.6677 43.8505C74.6134 43.8264 74.5582 43.8047 74.5021 43.7854L73.832 45.7334ZM70.1641 44.4717L70.8341 42.5237C70.7786 42.5046 70.7222 42.4878 70.6652 42.4735L70.1641 44.4717ZM66.3213 43.5078L66.8225 41.5097C66.7664 41.4956 66.7097 41.4839 66.6525 41.4746L66.3213 43.5078ZM62.3652 42.8633L62.6965 40.83C62.6401 40.8209 62.5833 40.814 62.5263 40.8095L62.3652 42.8633ZM58.3174 42.5459L58.4784 40.4922C58.4217 40.4877 58.3649 40.4856 58.3081 40.4859L58.3174 42.5459ZM54.2178 42.5645L54.2084 40.5044C54.1514 40.5047 54.0944 40.5073 54.0376 40.5123L54.2178 42.5645ZM50.1025 42.9258L49.9224 40.8736C49.8652 40.8786 49.8083 40.886 49.7518 40.8958L50.1025 42.9258ZM46.0156 43.6318L45.6649 41.6019C45.608 41.6117 45.5516 41.6239 45.4957 41.6385L46.0156 43.6318ZM41.9941 44.6807L41.4743 42.6873C41.4175 42.7021 41.3614 42.7193 41.3062 42.7389L41.9941 44.6807ZM38.0664 46.0723L37.3784 44.1305C37.3221 44.1505 37.2666 44.1729 37.2121 44.1977L38.0664 46.0723ZM34.2842 47.7959L33.4299 45.9213C33.3747 45.9465 33.3206 45.9741 33.2678 46.004L34.2842 47.7959ZM30.6875 49.8359L29.6711 48.0441C29.6167 48.0749 29.5637 48.1083 29.5123 48.144L30.6875 49.8359ZM27.3018 52.1875L26.1266 50.4955C26.0741 50.532 26.0234 50.5708 25.9745 50.612L27.3018 52.1875ZM24.1719 54.8242L22.8446 53.2487C22.7942 53.2912 22.7458 53.3361 22.6997 53.3832L24.1719 54.8242ZM21.332 57.7256L19.8598 56.2846C19.8125 56.333 19.7676 56.3836 19.7253 56.4364L21.332 57.7256ZM18.7988 60.8828L17.192 59.5936C17.1485 59.6478 17.1078 59.7042 17.07 59.7626L18.7988 60.8828ZM16.6201 64.2451L14.8913 63.1249C14.8525 63.1847 14.8169 63.2465 14.7846 63.3099L16.6201 64.2451ZM14.8086 67.8008L12.973 66.8656C12.94 66.9305 12.9104 66.9972 12.8843 67.0653L14.8086 67.8008ZM13.3838 71.5283L11.4595 70.7928C11.4329 70.8625 11.4101 70.9336 11.3911 71.0057L13.3838 71.5283ZM12.375 75.375L10.3823 74.8524C10.3633 74.9251 10.3482 74.9988 10.3372 75.0732L12.375 75.375ZM11.792 79.3115L9.75418 79.0097C9.74306 79.0848 9.7361 79.1604 9.73333 79.2362L11.792 79.3115ZM11.6455 83.3154L9.58684 83.2401C9.58406 83.3162 9.58549 83.3924 9.59114 83.4683L11.6455 83.3154ZM11.9453 87.3447L9.89095 87.4976C9.89658 87.5732 9.90638 87.6485 9.92031 87.7231L11.9453 87.3447ZM12.6963 91.3643L10.6713 91.7426C10.6851 91.8163 10.7028 91.8892 10.7246 91.961L12.6963 91.3643ZM13.8965 95.3301L11.9248 95.9268C11.9462 95.9977 11.9715 96.0674 12.0005 96.1356L13.8965 95.3301ZM15.5449 99.21L13.6489 100.016C13.6771 100.082 13.7086 100.146 13.7436 100.209L15.5449 99.21ZM17.6299 102.968L15.8285 103.967C15.863 104.029 15.9007 104.09 15.9414 104.148L17.6299 102.968ZM20.1416 106.562L18.4531 107.742C18.4924 107.798 18.5345 107.852 18.5793 107.904L20.1416 106.562ZM23.0615 109.959L21.4992 111.302C21.5429 111.353 21.589 111.401 21.6375 111.448L23.0615 109.959ZM26.373 113.127L24.949 114.616C24.996 114.661 25.0452 114.703 25.0963 114.744L26.373 113.127ZM30.0469 116.028L28.7701 117.645C28.82 117.684 28.8716 117.721 28.9248 117.756L30.0469 116.028ZM34.0557 118.632L32.9336 120.359C32.9852 120.393 33.0383 120.424 33.0928 120.453L34.0557 118.632ZM38.3887 120.923L39.4107 119.134C39.3912 119.123 39.3715 119.112 39.3516 119.102L38.3887 120.923ZM38.4023 120.931L37.3803 122.719C37.3872 122.723 37.3941 122.727 37.4011 122.731L38.4023 120.931ZM43.1592 123.576L42.1579 125.377C42.2497 125.428 42.3452 125.471 42.4436 125.508L43.1592 123.576ZM48.4873 125.55L47.7717 127.482C47.8898 127.525 48.0117 127.558 48.1357 127.58L48.4873 125.55ZM52.7217 126.283L52.3701 128.313C52.4491 128.327 52.5287 128.336 52.6087 128.34L52.7217 126.283ZM67.9258 127.118L67.8128 129.175C67.8251 129.176 67.8374 129.176 67.8498 129.177L67.9258 127.118ZM137.452 129.686L137.376 131.744C137.742 131.758 138.104 131.674 138.426 131.501L137.452 129.686ZM198.212 97.084L199.186 98.8992C200.012 98.4562 200.434 97.5118 200.215 96.6009C199.995 95.69 199.188 95.0421 198.251 95.0243L198.212 97.084ZM193.316 96.9922L193.277 99.0519L193.316 96.9922ZM176.166 96.6729L176.204 94.6132L176.166 96.6729ZM147.921 96.208L147.921 94.148H147.921V96.208ZM147.216 95.6221L145.191 96.0009L145.191 96.0017L147.216 95.6221ZM147.209 85.4395L145.199 84.9862C145.185 85.0497 145.174 85.1139 145.166 85.1785L147.209 85.4395ZM147.238 85.3096L145.277 84.678C145.259 84.7367 145.242 84.7962 145.229 84.8563L147.238 85.3096ZM147.921 84.8125L147.921 82.7525H147.921V84.8125ZM188.832 86.6562L188.932 84.5986L188.932 84.5986L188.832 86.6562ZM214.657 87.9229L214.759 85.8653L214.657 87.9229ZM223.064 88.3398L223.167 86.2823L223.167 86.2823L223.064 88.3398ZM225.41 88.457L225.307 90.5145L225.307 90.5145L225.41 88.457ZM226.027 88.4873L225.925 90.5448L225.925 90.5448L226.027 88.4873ZM226.185 88.4951L226.082 90.5526L226.082 90.5526L226.185 88.4951ZM226.225 88.4971L226.331 86.4398L226.328 86.4396L226.225 88.4971ZM226.235 88.498L226.132 90.5555C226.167 90.5572 226.201 90.5581 226.235 90.5581V88.498ZM226.237 88.498L228.291 88.3306C228.203 87.2613 227.31 86.438 226.237 86.438V88.498ZM226.202 89.2148L224.145 89.1119C224.088 90.2481 224.963 91.2152 226.099 91.2723C227.235 91.3293 228.202 90.4547 228.26 89.3186L226.202 89.2148ZM226.238 88.498L226.342 86.4406C225.205 86.3836 224.238 87.2582 224.181 88.3943L226.238 88.498ZM226.897 89.0381L228.894 88.5318L228.894 88.5304L226.897 89.0381ZM226.576 89.8271L225.503 88.0688L225.503 88.0688L226.576 89.8271ZM137.994 143.898L139.066 145.658L139.067 145.657L137.994 143.898ZM137.591 144.003L135.533 143.916C135.51 144.462 135.705 144.995 136.075 145.398C136.445 145.8 136.959 146.039 137.506 146.061L137.591 144.003ZM137.621 143.286L139.679 143.373C139.727 142.237 138.846 141.277 137.709 141.228C136.573 141.179 135.613 142.06 135.563 143.196L137.621 143.286ZM137.59 144.002V146.062C138.693 146.062 139.6 145.194 139.648 144.092L137.59 144.002ZM137.575 144.002L137.49 146.06C137.518 146.061 137.547 146.062 137.575 146.062V144.002ZM137.528 144L137.614 141.942L137.614 141.942L137.528 144ZM137.342 143.992L137.428 141.934L137.428 141.934L137.342 143.992ZM136.614 143.962L136.528 146.02L136.528 146.02L136.614 143.962ZM133.849 143.846L133.762 145.904L133.849 143.846ZM123.943 143.423L123.855 145.481L123.855 145.481L123.943 143.423ZM93.5625 142.071L93.4675 144.129L93.4675 144.129L93.5625 142.071ZM62.291 140.525L62.1783 142.582L62.1783 142.582L62.291 140.525ZM51.2666 139.861L51.1233 141.916L51.1233 141.916L51.2666 139.861ZM45.8691 139.352L45.431 141.364L45.4314 141.365L45.8691 139.352ZM45.752 139.315L44.9781 141.225L44.9788 141.225L45.752 139.315ZM39.7559 136.688L38.8972 138.561L38.8972 138.561L39.7559 136.688ZM37.4443 135.616L36.5695 137.481L36.5695 137.481L37.4443 135.616ZM36.7637 135.296L35.8831 137.158L35.8831 137.158L36.7637 135.296ZM36.5801 135.209L35.6969 137.07L35.697 137.07L36.5801 135.209ZM36.5322 135.187L35.6479 137.047L35.6483 137.047L36.5322 135.187ZM36.5205 135.181L37.4124 133.324L37.4054 133.32L36.5205 135.181ZM36.5176 135.179L37.5785 133.413C37.2581 133.22 36.8914 133.119 36.5176 133.119V135.179ZM36.5166 135.179L35.6312 137.039C35.9078 137.17 36.2103 137.239 36.5166 137.239V135.179ZM36.4619 135.149L35.4197 136.926L35.4207 136.927L36.4619 135.149ZM31.6914 132.352L32.7336 130.575L32.7335 130.575L31.6914 132.352ZM31.6318 132.312L30.4194 133.978L30.4198 133.978L31.6318 132.312ZM26.9863 128.931L25.7738 130.596L25.7739 130.596L26.9863 128.931ZM26.9375 128.892L25.5853 130.446L25.5858 130.446L26.9375 128.892ZM22.9834 125.451L24.3356 123.897C24.3318 123.894 24.3279 123.89 24.3241 123.887L22.9834 125.451ZM22.9766 125.445L21.6043 126.982C21.6147 126.991 21.6253 127 21.6359 127.009L22.9766 125.445ZM19.0449 121.934L20.4172 120.397L20.4171 120.397L19.0449 121.934ZM18.9961 121.885L17.4835 123.283L17.4836 123.283L18.9961 121.885ZM15.4502 118.05L13.9374 119.448L13.9376 119.448L15.4502 118.05ZM15.4062 117.997L13.7662 119.244L13.7676 119.245L15.4062 117.997ZM12.2744 113.877L13.9144 112.63L13.9144 112.63L12.2744 113.877ZM12.2354 113.819L10.4828 114.902L10.4831 114.903L12.2354 113.819ZM9.54004 109.457L7.78739 110.54L7.78753 110.54L9.54004 109.457ZM9.50586 109.396L7.65662 110.304L7.65731 110.306L9.50586 109.396ZM7.2666 104.835L5.4173 105.743L5.41736 105.743L7.2666 104.835ZM7.23828 104.771L5.30955 105.495L5.31035 105.497L7.23828 104.771ZM5.46875 100.056L3.54002 100.779L3.54002 100.779L5.46875 100.056ZM5.44727 99.9893L3.45738 100.522L3.45756 100.523L5.44727 99.9893ZM4.15527 95.166L2.16531 95.6988L2.16538 95.699L4.15527 95.166ZM4.14062 95.0967L2.10816 95.4326L2.10825 95.4332L4.14062 95.0967ZM3.33301 90.2109L1.30047 90.5465L1.30054 90.5469L3.33301 90.2109ZM3.3252 90.1416L1.26961 90.2771L1.26972 90.2788L3.3252 90.1416ZM3.00195 85.2383L0.946316 85.373L0.946371 85.3738L3.00195 85.2383ZM3.00098 85.168L0.942004 85.1015L0.941977 85.1024L3.00098 85.168ZM3.1582 80.2949L1.10311 80.1522C1.10134 80.1776 1.10005 80.203 1.09923 80.2285L3.1582 80.2949ZM3.16309 80.2246L1.12049 79.957C1.11506 79.9985 1.11089 80.0402 1.10799 80.0819L3.16309 80.2246ZM3.79199 75.4238L1.76563 75.0528C1.75935 75.0871 1.75393 75.1216 1.7494 75.1562L3.79199 75.4238ZM3.80469 75.3545L1.79797 74.8888C1.79068 74.9202 1.78414 74.9518 1.77833 74.9835L3.80469 75.3545ZM4.8916 70.6709L2.913 70.0974C2.90266 70.1331 2.89328 70.169 2.88489 70.2052L4.8916 70.6709ZM4.91113 70.6035L2.95947 69.9441C2.94987 69.9725 2.94088 70.0012 2.93253 70.03L4.91113 70.6035ZM6.44043 66.0771L4.51992 65.3319C4.5089 65.3603 4.49852 65.3889 4.48877 65.4178L6.44043 66.0771ZM6.46582 66.0117L4.58756 65.1656C4.57259 65.1988 4.5585 65.2325 4.54531 65.2664L6.46582 66.0117ZM8.41602 61.6826L6.57932 60.7497C6.56479 60.7783 6.55094 60.8072 6.53776 60.8365L8.41602 61.6826ZM8.44727 61.6211L6.65993 60.5968C6.64271 60.6268 6.62626 60.6573 6.61057 60.6882L8.44727 61.6211ZM10.7939 57.5264L9.06671 56.4037C9.04577 56.4359 9.02572 56.4687 9.00661 56.5021L10.7939 57.5264ZM10.832 57.4678L9.152 56.2756C9.1358 56.2984 9.12006 56.3216 9.1048 56.3451L10.832 57.4678ZM13.5479 53.6406L11.9139 52.386C11.8982 52.4065 11.8828 52.4273 11.8678 52.4484L13.5479 53.6406ZM13.5898 53.5859L12.0328 52.2371C12.0062 52.2678 11.9806 52.2992 11.9559 52.3313L13.5898 53.5859ZM16.6445 50.0596L15.1879 48.6029C15.1531 48.6376 15.1196 48.6736 15.0875 48.7108L16.6445 50.0596ZM16.7217 49.9824L15.3865 48.4136C15.3445 48.4494 15.304 48.4868 15.265 48.5258L16.7217 49.9824ZM26.9443 41.2822L25.7008 39.6398C25.6696 39.6635 25.639 39.688 25.6092 39.7134L26.9443 41.2822ZM27.0127 41.2305L25.8753 39.5129C25.8391 39.5368 25.8037 39.5619 25.7692 39.5881L27.0127 41.2305ZM27.0879 41.1875L26.1663 39.3451L26.1657 39.3454L27.0879 41.1875ZM102.245 3.59082L101.508 1.66734C101.445 1.69136 101.383 1.71843 101.323 1.74844L102.245 3.59082ZM102.375 3.54102L101.826 1.55551C101.762 1.57315 101.699 1.59385 101.637 1.61754L102.375 3.54102ZM102.512 3.51758L102.355 1.46353L102.355 1.46354L102.512 3.51758ZM109.24 3.00293L109.083 0.948881L109.083 0.948885L109.24 3.00293ZM109.36 3.00293L109.547 0.951366L109.547 0.951346L109.36 3.00293ZM115.025 3.51855L114.723 5.55636L114.803 5.56808L115.104 3.53027L115.406 1.49247L115.327 1.48075L115.025 3.51855ZM115.104 3.53027L114.69 5.54825L119.629 6.56192L120.043 4.54395L120.457 2.52597L115.519 1.5123L115.104 3.53027ZM120.043 4.54395V6.60399H120.044V4.54395V2.4839H120.043V4.54395ZM120.044 4.54395L119.67 6.56982L123.912 7.35205L124.285 5.32617L124.659 3.3003L120.418 2.51807L120.044 4.54395ZM124.285 5.32617L123.911 7.35192C123.851 7.34087 123.808 7.32913 123.789 7.32385L124.351 5.3418L124.912 3.35974C124.85 3.34229 124.763 3.31959 124.659 3.30042L124.285 5.32617ZM124.351 5.3418L123.788 7.32361L127.898 8.48962L128.46 6.50781L129.022 4.526L124.913 3.35999L124.351 5.3418ZM128.46 6.50781L127.897 8.48949C127.864 8.48019 127.825 8.46745 127.778 8.44951L128.524 6.5293L129.27 4.60908C129.182 4.57489 129.099 4.5477 129.023 4.52614L128.46 6.50781ZM128.524 6.5293L127.778 8.44936L131.719 9.98158L132.466 8.06152L133.212 6.14146L129.271 4.60924L128.524 6.5293ZM132.466 8.06152L131.719 9.98145C131.704 9.97544 131.661 9.95844 131.604 9.92985L132.528 8.08887L133.453 6.24788C133.355 6.19905 133.27 6.16396 133.213 6.1416L132.466 8.06152ZM132.528 8.08887L131.604 9.92979L135.343 11.8077L136.268 9.9668L137.192 8.12587L133.453 6.24795L132.528 8.08887ZM136.268 9.9668L135.343 11.8076C135.322 11.7972 135.283 11.7766 135.233 11.7452L136.327 10L137.422 8.25484C137.333 8.19935 137.253 8.15666 137.192 8.12601L136.268 9.9668ZM136.327 10L135.232 11.745L138.739 13.9452L139.834 12.2002L140.929 10.4552L137.422 8.25497L136.327 10ZM139.834 12.2002L138.651 13.8865L138.706 13.9255L139.89 12.2393L141.073 10.553L141.017 10.5139L139.834 12.2002ZM139.89 12.2393L138.634 13.8721L141.879 16.3682L143.135 14.7354L144.391 13.1025L141.146 10.6064L139.89 12.2393ZM143.135 14.7354L141.816 16.3179L141.869 16.3619L143.188 14.7793L144.506 13.1967L144.454 13.1528L143.135 14.7354ZM143.188 14.7793L141.781 16.2846L144.739 19.0482L146.146 17.543L147.552 16.0377L144.594 13.274L143.188 14.7793ZM146.146 17.543L144.66 18.9702L144.708 19.02L146.193 17.5928L147.679 16.1655L147.631 16.1157L146.146 17.543ZM146.193 17.5928L144.649 18.9564L147.299 21.9564L148.843 20.5928L150.387 19.2291L147.737 16.2291L146.193 17.5928ZM148.843 20.5928L147.234 21.8797L147.277 21.9334L148.886 20.6465L150.494 19.3596L150.451 19.3059L148.843 20.5928ZM148.886 20.6465L147.217 21.8545L149.537 25.0596L151.206 23.8516L152.875 22.6435L150.554 19.4385L148.886 20.6465ZM151.206 23.8516L149.537 25.0589C149.508 25.0188 149.485 24.9826 149.466 24.9511L151.244 23.9102L153.022 22.8693C152.98 22.7979 152.931 22.7218 152.875 22.6442L151.206 23.8516ZM151.244 23.9102L149.466 24.951L151.443 28.327L153.221 27.2861L154.998 26.2453L153.022 22.8693L151.244 23.9102ZM153.221 27.2861L151.442 28.3262C151.424 28.2941 151.403 28.2562 151.383 28.212L153.253 27.3477L155.123 26.4833C155.083 26.3973 155.041 26.3179 154.999 26.2461L153.221 27.2861ZM153.253 27.3477L151.382 28.2109L153.004 31.7236L154.874 30.8604L156.744 29.9971L155.123 26.4844L153.253 27.3477ZM154.874 30.8604L152.954 31.6056L152.979 31.6711L154.899 30.9258L156.82 30.1805L156.795 30.1151L154.874 30.8604ZM154.899 30.9258L152.953 31.6019L154.209 35.2162L156.155 34.54L158.101 33.8639L156.845 30.2496L154.899 30.9258ZM156.155 34.54L154.184 35.1398L154.205 35.2072L156.176 34.6074L158.147 34.0076L158.126 33.9402L156.155 34.54ZM156.176 34.6074L154.173 35.0895L155.059 38.7692L157.062 38.2871L159.064 37.805L158.179 34.1253L156.176 34.6074ZM157.062 38.2871L155.035 38.6581L155.048 38.7275L157.074 38.3564L159.101 37.9854L159.088 37.9161L157.062 38.2871ZM157.074 38.3564L155.034 38.6401L155.549 42.3491L157.59 42.0654L159.63 41.7818L159.115 38.0728L157.074 38.3564ZM157.59 42.0654L155.549 42.3485C155.549 42.3432 155.547 42.3286 155.545 42.308C155.542 42.2874 155.54 42.2565 155.538 42.2179L157.597 42.1357L159.655 42.0536C159.65 41.934 159.638 41.8354 159.63 41.7824L157.59 42.0654ZM157.597 42.1357L155.538 42.2171L155.685 45.9212L157.743 45.8398L159.802 45.7584L159.655 42.0543L157.597 42.1357ZM157.743 45.8398L155.685 45.9204C155.682 45.8618 155.684 45.8171 155.686 45.79L157.742 45.9111L159.799 46.0323C159.803 45.9583 159.806 45.8648 159.802 45.7593L157.743 45.8398ZM157.742 45.9111L155.686 45.79L155.47 49.4541L157.526 49.5752L159.583 49.6963L159.799 46.0323L157.742 45.9111ZM157.526 49.5752L155.47 49.4538C155.47 49.4555 155.471 49.4423 155.472 49.4224C155.474 49.402 155.478 49.3673 155.485 49.3233L157.52 49.6455L159.554 49.9677C159.574 49.8406 159.581 49.734 159.583 49.6966L157.526 49.5752ZM157.52 49.6455L155.485 49.3225L154.915 52.9143L156.949 53.2373L158.984 53.5604L159.554 49.9686L157.52 49.6455ZM156.949 53.2373L154.915 52.9129C154.915 52.9108 154.917 52.8971 154.921 52.8769C154.925 52.8565 154.932 52.8249 154.942 52.7857L156.936 53.3057L158.929 53.8256C158.96 53.7071 158.976 53.6074 158.984 53.5617L156.949 53.2373ZM156.936 53.3057L154.942 52.7848L154.031 56.2711L156.024 56.792L158.018 57.3129L158.929 53.8266L156.936 53.3057ZM156.024 56.792L154.032 56.2694C154.05 56.1996 154.068 56.1515 154.07 56.1457L156.003 56.8584L157.936 57.5711C157.954 57.5218 157.987 57.4293 158.017 57.3146L156.024 56.792ZM156.003 56.8584L154.07 56.1448L152.833 59.4954L154.766 60.209L156.698 60.9226L157.935 57.572L156.003 56.8584ZM154.766 60.209L152.834 59.4933C152.846 59.4606 152.862 59.4205 152.885 59.3743L154.738 60.2734L156.592 61.1726C156.634 61.0847 156.669 61.0008 156.697 60.9247L154.766 60.209ZM154.738 60.2734L152.885 59.3743L151.34 62.5588L153.193 63.458L155.047 64.3572L156.592 61.1726L154.738 60.2734ZM153.193 63.458L151.34 62.5585C151.348 62.5418 151.369 62.4994 151.403 62.4444L153.16 63.5195L154.917 64.5947C154.975 64.5 155.018 64.416 155.047 64.3575L153.193 63.458ZM153.16 63.5195L151.403 62.4437L149.57 65.4368L151.327 66.5127L153.084 67.5886L154.917 64.5954L153.16 63.5195ZM151.327 66.5127L149.57 65.4369C149.588 65.4073 149.612 65.3709 149.643 65.3299L151.288 66.5703L152.933 67.8108C152.992 67.7328 153.042 67.6575 153.084 67.5885L151.327 66.5127ZM151.288 66.5703L149.643 65.3298L147.548 68.1081L149.192 69.3486L150.837 70.5892L152.933 67.8109L151.288 66.5703ZM149.192 69.3486L147.548 68.1073C147.578 68.0679 147.606 68.0354 147.631 68.0083L149.147 69.4023L150.664 70.7964C150.72 70.7353 150.779 70.6662 150.836 70.5899L149.192 69.3486ZM149.147 69.4023L147.631 68.0085L145.296 70.5495L146.812 71.9434L148.329 73.3372L150.664 70.7962L149.147 69.4023ZM146.812 71.9434L145.296 70.549C145.335 70.5067 145.367 70.4766 145.387 70.4586L146.763 71.9922L148.138 73.5257C148.193 73.477 148.259 73.4139 148.329 73.3378L146.812 71.9434ZM146.763 71.9922L145.387 70.4586L142.84 72.7428L144.216 74.2764L145.591 75.81L148.138 73.5258L146.763 71.9922ZM144.216 74.2764L142.841 72.7425C142.897 72.6921 142.948 72.654 142.991 72.6256L144.135 74.3389L145.279 76.0521C145.378 75.986 145.484 75.906 145.591 75.8102L144.216 74.2764ZM144.135 74.3389L142.991 72.6256L85.8892 110.754L87.0332 112.467L88.1772 114.18L145.279 76.0521L144.135 74.3389ZM87.0332 112.467L85.8895 110.753C85.9688 110.7 86.0427 110.663 86.1058 110.636L86.917 112.529L87.7282 114.423C87.8722 114.361 88.0245 114.282 88.1769 114.18L87.0332 112.467ZM86.917 112.529L86.1059 110.636L81.9086 112.434L82.7197 114.327L83.5308 116.221L87.7281 114.423L86.917 112.529ZM82.7197 114.327L81.9093 112.433C81.9282 112.425 81.9865 112.401 82.0703 112.377L82.6338 114.358L83.1973 116.34C83.3396 116.299 83.4553 116.253 83.5302 116.221L82.7197 114.327ZM82.6338 114.358L82.0708 112.377L79.3383 113.153L79.9014 115.135L80.4644 117.116L83.1968 116.34L82.6338 114.358ZM79.9014 115.135L79.2955 113.166L79.2828 113.17L79.8887 115.139L80.4945 117.108L80.5072 117.104L79.9014 115.135ZM79.8887 115.139L79.3607 113.147L75.475 114.178L76.0029 116.169L76.5309 118.16L80.4166 117.13L79.8887 115.139ZM76.0029 116.169L75.4761 114.177C75.5186 114.166 75.5494 114.16 75.5559 114.159L75.96 116.179L76.364 118.199C76.3992 118.192 76.4589 118.179 76.5298 118.16L76.0029 116.169ZM75.96 116.179L75.5562 114.159L72.9811 114.673L73.3848 116.693L73.7885 118.713L76.3637 118.199L75.96 116.179ZM73.3848 116.693L72.9813 114.673C72.9991 114.67 73.0134 114.667 73.0231 114.665C73.0329 114.664 73.0403 114.663 73.044 114.662L73.3506 116.699L73.6571 118.736C73.6853 118.732 73.7325 118.725 73.7882 118.714L73.3848 116.693ZM73.3506 116.699L73.0439 114.662L68.9248 115.282L69.2314 117.319L69.5381 119.356L73.6573 118.736L73.3506 116.699ZM69.2314 117.319L68.925 115.282C68.9276 115.282 68.9352 115.281 68.9459 115.279C68.9565 115.278 68.9733 115.276 68.9946 115.274L69.1934 117.324L69.3921 119.375C69.4568 119.368 69.5104 119.361 69.5379 119.356L69.2314 117.319ZM69.1934 117.324L68.9953 115.274L64.7492 115.684L64.9473 117.734L65.1453 119.785L69.3914 119.375L69.1934 117.324ZM64.9473 117.734L64.7492 115.684C64.8142 115.678 64.8615 115.677 64.8778 115.677L64.8779 117.737L64.8781 119.797C64.9404 119.797 65.0345 119.796 65.1453 119.785L64.9473 117.734ZM64.8779 117.737V115.677H56.7637V117.737V119.797H64.8779V117.737ZM56.7637 117.737L56.7645 115.677C56.8084 115.677 56.868 115.68 56.9396 115.689L56.6699 117.731L56.4003 119.774C56.5339 119.791 56.6563 119.797 56.7628 119.797L56.7637 117.737ZM56.6699 117.731L56.9409 115.689L53.8501 115.279L53.5791 117.321L53.3081 119.363L56.3989 119.774L56.6699 117.731ZM53.5791 117.321L53.8513 115.279C53.8984 115.286 53.9436 115.294 53.9875 115.305L53.5059 117.308L53.0242 119.311C53.1162 119.333 53.2108 119.35 53.3069 119.363L53.5791 117.321ZM53.5059 117.308L53.9881 115.305L51.4129 114.685L50.9307 116.688L50.4484 118.69L53.0236 119.31L53.5059 117.308ZM50.9307 116.688L51.4137 114.685C51.4515 114.694 51.4795 114.702 51.4872 114.704C51.4912 114.705 51.4941 114.706 51.4909 114.705C51.4896 114.705 51.4817 114.703 51.473 114.7L50.8994 116.679L50.3258 118.657C50.3223 118.656 50.3196 118.655 50.3234 118.657C50.3254 118.657 50.3336 118.66 50.3428 118.662C50.3609 118.667 50.3994 118.678 50.4476 118.69L50.9307 116.688ZM50.8994 116.679L51.4725 114.7L47.9188 113.671L47.3457 115.649L46.7726 117.628L50.3263 118.657L50.8994 116.679ZM47.3457 115.649L47.9203 113.671C48.0193 113.7 48.0932 113.733 48.1381 113.755L47.2295 115.604L46.3209 117.452C46.4405 117.511 46.5922 117.576 46.7711 117.628L47.3457 115.649ZM47.2295 115.604L48.1383 113.755L44.9958 112.21L44.0869 114.059L43.1781 115.907L46.3206 117.452L47.2295 115.604ZM44.0869 114.059L44.9969 112.21C45.0028 112.213 45.0143 112.219 45.0296 112.227C45.0448 112.235 45.0667 112.247 45.0933 112.263L44.0342 114.03L42.9751 115.797C43.0592 115.848 43.1325 115.885 43.177 115.907L44.0869 114.059ZM44.0342 114.03L45.0943 112.264L42.52 110.719L41.46 112.485L40.3999 114.252L42.9741 115.797L44.0342 114.03ZM41.46 112.485L42.5198 110.719C42.5469 110.735 42.5683 110.749 42.5827 110.759C42.5971 110.768 42.6075 110.776 42.6124 110.779L41.4102 112.452L40.2079 114.125C40.2471 114.153 40.315 114.201 40.4001 114.252L41.46 112.485ZM41.4102 112.452L42.6128 110.78L39.7486 108.72L38.5459 110.393L37.3432 112.065L40.2075 114.125L41.4102 112.452ZM38.5459 110.393L39.7487 108.72C39.7722 108.737 39.8139 108.768 39.865 108.815L38.4824 110.342L37.0999 111.869C37.1908 111.951 37.276 112.017 37.3431 112.065L38.5459 110.393ZM38.4824 110.342L39.8657 108.815L37.0239 106.24L35.6406 107.767L34.2573 109.293L37.0991 111.868L38.4824 110.342ZM35.6406 107.767L37.0242 106.24C37.0705 106.282 37.1135 106.327 37.1534 106.375L35.5713 107.694L33.9892 109.014C34.0718 109.113 34.1614 109.206 34.257 109.293L35.6406 107.767ZM35.5713 107.694L37.1543 106.376L35.1357 103.952L33.5527 105.271L31.9697 106.589L33.9883 109.013L35.5713 107.694ZM33.5527 105.271L35.1356 103.952C35.121 103.934 35.1089 103.921 35.1033 103.914C35.1003 103.911 35.0978 103.908 35.097 103.907C35.0956 103.905 35.0964 103.906 35.097 103.907C35.0985 103.909 35.1061 103.917 35.1161 103.929C35.1262 103.941 35.1422 103.961 35.1614 103.985L33.5361 105.251L31.9109 106.517C31.9326 106.545 31.9513 106.567 31.9642 106.583C31.9769 106.598 31.9874 106.61 31.9917 106.615C31.9938 106.617 31.996 106.62 31.996 106.62C31.9966 106.62 31.9955 106.619 31.9939 106.617C31.9911 106.614 31.9818 106.603 31.9699 106.589L33.5527 105.271ZM33.5361 105.251L35.1646 103.989L33.1158 101.345L31.4873 102.606L29.8588 103.868L31.9076 106.513L33.5361 105.251ZM31.4873 102.606L33.1155 101.344C33.1135 101.342 33.1117 101.339 33.1105 101.338C33.1099 101.337 33.1094 101.337 33.109 101.336C33.1086 101.336 33.1084 101.335 33.1082 101.335C33.1072 101.334 33.1087 101.336 33.1111 101.339C33.1155 101.344 33.1297 101.363 33.1479 101.389L31.4688 102.582L29.7896 103.775C29.8136 103.809 29.8341 103.836 29.8447 103.85C29.8502 103.857 29.8549 103.863 29.8571 103.866C29.8604 103.87 29.8593 103.869 29.8591 103.868L31.4873 102.606ZM31.4688 102.582L33.1494 101.391L31.0791 98.4699L29.3984 99.6611L27.7178 100.852L29.7881 103.773L31.4688 102.582ZM29.3984 99.6611L31.079 98.4698C31.1232 98.532 31.1647 98.602 31.2015 98.6815L29.332 99.5469L27.4626 100.412C27.5362 100.571 27.623 100.719 27.7178 100.853L29.3984 99.6611ZM29.332 99.5469L31.2018 98.6822L29.6569 95.3414L27.7871 96.2061L25.9173 97.0707L27.4622 100.412L29.332 99.5469ZM27.7871 96.2061L29.6569 95.3415C29.6808 95.393 29.6984 95.4393 29.7117 95.4791L27.7578 96.1318L25.8039 96.7846C25.834 96.8746 25.8712 96.971 25.9173 97.0706L27.7871 96.2061ZM27.7578 96.1318L29.7121 95.4802L28.6818 92.3904L26.7275 93.042L24.7733 93.6936L25.8035 96.7835L27.7578 96.1318ZM26.7275 93.042L28.6819 92.3905C28.711 92.4779 28.7252 92.5477 28.7325 92.5905L26.7012 92.9336L24.6699 93.2766C24.6894 93.3923 24.7207 93.536 24.7732 93.6934L26.7275 93.042ZM26.7012 92.9336L28.7325 92.5908L28.2169 89.5352L26.1855 89.8779L24.1542 90.2207L24.6698 93.2764L26.7012 92.9336ZM26.1855 89.8779L28.2172 89.537C28.2305 89.6164 28.2358 89.6901 28.2358 89.758L26.1758 89.7588L24.1157 89.7596C24.1158 89.9068 24.1275 90.0612 24.1539 90.2188L26.1855 89.8779ZM26.1758 89.7588H28.2358V87.1494H26.1758H24.1157V89.7588H26.1758ZM26.1758 87.1494L28.2358 87.1499C28.2358 87.2309 28.2283 87.3188 28.2096 87.412L26.1895 87.0088L24.1693 86.6056C24.1322 86.7912 24.1158 86.9737 24.1157 87.149L26.1758 87.1494ZM26.1895 87.0088L28.2094 87.4132L28.725 84.838L26.7051 84.4336L24.6851 84.0291L24.1695 86.6043L26.1895 87.0088ZM26.7051 84.4336L28.6799 85.0199L28.717 84.8949L26.7422 84.3086L24.7673 83.7223L24.7302 83.8473L26.7051 84.4336ZM26.7422 84.3086L28.6548 85.0738L29.6851 82.4986L27.7725 81.7334L25.8598 80.9682L24.8295 83.5434L26.7422 84.3086ZM27.7725 81.7334L29.6276 82.629L29.6687 82.544L27.8135 81.6484L25.9583 80.7528L25.9173 80.8378L27.7725 81.7334ZM27.8135 81.6484L29.6095 82.6574C29.5951 82.6831 29.5634 82.7371 29.5133 82.804L27.8643 81.5693L26.2152 80.3347C26.1275 80.4517 26.0625 80.5592 26.0174 80.6395L27.8135 81.6484ZM27.8643 81.5693L29.5125 82.8051L31.0574 80.7446L29.4092 79.5088L27.761 78.273L26.216 80.3336L27.8643 81.5693ZM29.4092 79.5088L31.0572 80.7448C30.9928 80.8307 30.9251 80.9004 30.8597 80.9567L29.5156 79.3955L28.1716 77.8343C28.0276 77.9582 27.8877 78.104 27.7611 78.2728L29.4092 79.5088ZM29.5156 79.3955L30.9723 80.8522L30.9733 80.8512L29.5166 79.3945L28.0599 77.9379L28.059 77.9388L29.5156 79.3955ZM29.5166 79.3945L30.4379 81.2371L30.4398 81.2361L29.5186 79.3936L28.5973 77.551L28.5953 77.552L29.5166 79.3945ZM29.5186 79.3936L30.8578 80.9589C30.8776 80.9419 30.8952 80.9262 30.9106 80.9122C30.9259 80.8981 30.9395 80.8852 30.9512 80.8739C30.9629 80.8626 30.9732 80.8524 30.9818 80.8437C30.9905 80.8349 30.998 80.8272 31.004 80.8209C31.0101 80.8146 31.0153 80.8092 31.0191 80.805C31.023 80.8009 31.0261 80.7976 31.0281 80.7955C31.0299 80.7935 31.0314 80.7919 31.0315 80.7918C31.0321 80.7912 31.031 80.7923 31.03 80.7934C31.0277 80.7959 31.0216 80.8025 31.0136 80.8109C31.0054 80.8195 30.9941 80.8312 30.9805 80.8448C30.9534 80.872 30.9149 80.9091 30.8664 80.9508L29.5234 79.3887L28.1805 77.8265C28.131 77.8691 28.0914 77.9072 28.0634 77.9352C28.0494 77.9493 28.0377 77.9614 28.0291 77.9705C28.0206 77.9794 28.0141 77.9864 28.0114 77.9893C28.0102 77.9906 28.009 77.9919 28.0093 77.9915C28.0093 77.9915 28.0097 77.9912 28.0101 77.9907C28.0106 77.9902 28.0113 77.9894 28.0122 77.9885C28.0139 77.9866 28.0169 77.9834 28.0206 77.9795C28.0243 77.9756 28.0292 77.9704 28.0351 77.9642C28.041 77.9581 28.0483 77.9506 28.0568 77.942C28.0653 77.9335 28.0754 77.9234 28.0869 77.9123C28.0984 77.9012 28.1119 77.8884 28.1271 77.8745C28.1422 77.8606 28.1597 77.845 28.1793 77.8282L29.5186 79.3936ZM29.5234 79.3887L30.858 80.958C30.8567 80.9591 30.856 80.9597 30.8562 80.9595C30.8563 80.9594 30.8567 80.959 30.8577 80.9582C30.86 80.9563 30.8625 80.9542 30.8668 80.9506L29.542 79.373L28.2171 77.7955C28.2126 77.7994 28.1995 77.8103 28.1889 77.8194L29.5234 79.3887ZM29.542 79.373L30.8668 80.9506C30.8902 80.9309 30.8965 80.9256 30.9102 80.9143L29.6064 79.3193L28.3027 77.7244C28.2614 77.7581 28.2245 77.7894 28.2172 77.7955L29.542 79.373ZM29.6064 79.3193L30.9101 80.9144C30.9521 80.8801 31.0143 80.8301 31.0928 80.77L29.8398 79.1348L28.5869 77.4996C28.468 77.5906 28.3716 77.668 28.3028 77.7243L29.6064 79.3193ZM29.8398 79.1348L31.0927 80.77C31.2515 80.6484 31.4782 80.4843 31.7387 80.3201L30.6406 78.5771L29.5425 76.8342C29.153 77.0796 28.8219 77.3195 28.5869 77.4995L29.8398 79.1348ZM30.6406 78.5771L31.7387 80.3202C31.9899 80.1619 32.2653 80.0083 32.5368 79.8954C32.8186 79.7783 33.0129 79.7402 33.1193 79.7366L33.0488 77.6777L32.9783 75.6189C31.5108 75.6691 30.1962 76.4224 29.5426 76.8341L30.6406 78.5771ZM33.0488 77.6777L33.1192 79.7366C33.4164 79.7264 33.6335 79.7146 33.8777 79.716C34.1127 79.7174 34.2732 79.7326 34.3775 79.7537L34.7852 77.7344L35.1928 75.7151C34.3203 75.5389 33.3622 75.6058 32.9784 75.6189L33.0488 77.6777ZM34.7852 77.7344L34.3771 79.7536C34.4852 79.7754 34.5209 79.8007 34.5189 79.7994C34.5172 79.7981 34.5133 79.7948 34.5109 79.792C34.5084 79.789 34.5167 79.7975 34.5308 79.8272L36.3916 78.9434L38.2524 78.0595C37.5457 76.5717 36.275 75.9337 35.1932 75.7151L34.7852 77.7344ZM36.3916 78.9434L34.5306 79.8267C34.5194 79.8032 34.5129 79.7844 34.5094 79.7725C34.506 79.7609 34.5053 79.7554 34.5056 79.7573C34.5059 79.7593 34.5069 79.7669 34.5076 79.7806C34.5083 79.7942 34.5085 79.8118 34.5077 79.8336L36.5664 79.9072L38.6251 79.9809C38.6419 79.5116 38.6018 78.7957 38.2526 78.06L36.3916 78.9434ZM36.5664 79.9072L34.5077 79.8332C34.5042 79.9317 34.4829 80.0651 34.4431 80.2204L36.4385 80.7324L38.4339 81.2445C38.5179 80.917 38.6074 80.4738 38.6251 79.9812L36.5664 79.9072ZM36.4385 80.7324L34.4431 80.2203C34.4047 80.3699 34.3567 80.5096 34.3174 80.6132L36.2432 81.3447L38.169 82.0762C38.2459 81.8737 38.347 81.583 38.4338 81.2446L36.4385 80.7324ZM36.2432 81.3447L34.3175 80.6129C34.3207 80.6045 34.322 80.6017 34.3173 80.6131C34.3161 80.6158 34.3148 80.6188 34.3131 80.6231C34.3116 80.6267 34.3092 80.6324 34.307 80.6377C34.3025 80.6484 34.2957 80.6648 34.2883 80.6832L36.1982 81.4551L38.1082 82.2269C38.1073 82.2291 38.1075 82.2288 38.1102 82.2221C38.111 82.2202 38.1184 82.2025 38.1223 82.1933C38.1328 82.1679 38.15 82.1261 38.1688 82.0766L36.2432 81.3447ZM36.1982 81.4551L34.1384 81.4279L34.113 83.3527L36.1729 83.3799L38.2327 83.4071L38.2581 81.4823L36.1982 81.4551ZM36.1729 83.3799L34.123 83.5849L34.3271 85.6259L36.377 85.4209L38.4268 85.2159L38.2227 83.1749L36.1729 83.3799ZM36.377 85.4209L34.3628 85.8533L34.8023 87.9002L36.8164 87.4678L38.8306 87.0353L38.3911 84.9885L36.377 85.4209ZM36.8164 87.4678L34.862 88.1189L35.5368 90.1443L37.4912 89.4932L39.4456 88.842L38.7708 86.8166L36.8164 87.4678ZM37.4912 89.4932L35.6192 90.3531L36.5352 92.3472L38.4072 91.4873L40.2792 90.6274L39.3632 88.6333L37.4912 89.4932ZM38.4072 91.4873L36.6372 92.5413L37.7915 94.4798L39.5615 93.4258L41.3315 92.3718L40.1772 90.4333L38.4072 91.4873ZM39.5615 93.4258L37.9096 94.6565L39.2992 96.5218L40.9512 95.291L42.6031 94.0603L41.2135 92.195L39.5615 93.4258ZM40.9512 95.291L39.4316 96.682L41.0371 98.4359L42.5566 97.0449L44.0762 95.654L42.4707 93.9001L40.9512 95.291ZM42.5566 97.0449L41.1799 98.5774L43.0051 100.217L44.3818 98.6846L45.7585 97.1521L43.9333 95.5124L42.5566 97.0449ZM44.3818 98.6846L43.157 100.341L45.1922 101.846L46.417 100.189L47.6418 98.5331L45.6066 97.0282L44.3818 98.6846ZM46.417 100.189L45.3511 101.952L47.5865 103.304L48.6523 101.541L49.7182 99.7782L47.4829 98.4266L46.417 100.189ZM48.6523 101.541L47.7499 103.393L50.1366 104.556L51.0391 102.704L51.9415 100.852L49.5548 99.6892L48.6523 101.541ZM51.0391 102.704L50.303 104.628L52.8557 105.605L53.5918 103.681L54.3279 101.757L51.7751 100.78L51.0391 102.704ZM53.5918 103.681L53.0242 105.661L55.699 106.428L56.2666 104.447L56.8342 102.467L54.1594 101.7L53.5918 103.681ZM56.2666 104.447L55.8697 106.469L58.6548 107.016L59.0518 104.994L59.4487 102.973L56.6635 102.426L56.2666 104.447ZM59.0518 104.994L58.8263 107.042L61.6993 107.358L61.9248 105.311L62.1503 103.263L59.2773 102.946L59.0518 104.994ZM61.9248 105.311L61.8708 107.37L64.8122 107.447L64.8662 105.388L64.9202 103.328L61.9788 103.251L61.9248 105.311ZM64.8662 105.388L64.9856 107.444L67.9465 107.272L67.8271 105.216L67.7078 103.159L64.7468 103.331L64.8662 105.388ZM67.8271 105.216L68.1178 107.255L71.0778 106.833L70.7871 104.794L70.4964 102.755L67.5365 103.176L67.8271 105.216ZM70.7871 104.794L71.2483 106.802L74.1819 106.128L73.7207 104.12L73.2595 102.112L70.3259 102.786L70.7871 104.794ZM73.7207 104.12L74.3518 106.081L77.2375 105.152L76.6064 103.191L75.9753 101.23L73.0896 102.159L73.7207 104.12ZM76.6064 103.191L77.4057 105.09L80.1967 103.915L79.3975 102.017L78.5983 100.118L75.8072 101.293L76.6064 103.191ZM79.3975 102.017L80.3614 103.837L83.0323 102.423L82.0684 100.603L81.1045 98.7819L78.4336 100.196L79.3975 102.017ZM82.0684 100.603L83.1929 102.329L85.732 100.674L84.6074 98.9482L83.4829 97.2222L80.9438 98.8765L82.0684 100.603ZM84.6074 98.9482L85.8875 100.562L88.243 98.6941L86.9629 97.0801L85.6828 95.466L83.3273 97.3342L84.6074 98.9482ZM86.9629 97.0801L88.3912 98.5646L90.5552 96.4826L89.127 94.998L87.6987 93.5135L85.5346 95.5955L86.9629 97.0801ZM89.127 94.998L90.6944 96.3348L92.6358 94.0585L91.0684 92.7217L89.5009 91.3849L87.5595 93.6613L89.127 94.998ZM91.0684 92.7217L92.762 93.8945L94.4553 91.4492L92.7617 90.2764L91.0681 89.1036L89.3748 91.5489L91.0684 92.7217ZM92.7617 90.2764L94.5679 91.267L95.9937 88.6674L94.1875 87.6768L92.3813 86.6861L90.9555 89.2857L92.7617 90.2764ZM94.1875 87.6768L96.0886 88.4702L97.2331 85.728L95.332 84.9346L93.4309 84.1411L92.2864 86.8833L94.1875 87.6768ZM95.332 84.9346L97.3076 85.5185L98.1464 82.6806L96.1709 82.0967L94.1954 81.5127L93.3565 84.3506L95.332 84.9346ZM96.1709 82.0967L98.1986 82.4603L98.7259 79.5199L96.6982 79.1562L94.6705 78.7926L94.1432 81.733L96.1709 82.0967ZM96.6982 79.1562L98.7538 79.2929L98.952 76.3105L96.8965 76.1738L94.841 76.0372L94.6427 79.0196L96.6982 79.1562ZM96.8965 76.1738L98.9545 76.0814L98.8187 73.0589L96.7607 73.1514L94.7028 73.2438L94.8385 76.2663L96.8965 76.1738ZM96.7607 73.1514L98.7959 72.8322L98.3203 69.7999L96.2852 70.1191L94.25 70.4383L94.7256 73.4706L96.7607 73.1514ZM96.2852 70.1191L98.2727 69.5775L97.4534 66.5707L95.4658 67.1123L93.4782 67.6539L94.2976 70.6607L96.2852 70.1191ZM95.4658 67.1123L97.3831 66.3588L96.223 63.4067L94.3057 64.1602L92.3884 64.9136L93.5485 67.8658L95.4658 67.1123ZM94.3057 64.1602L96.132 63.2071L94.6271 60.3233L92.8008 61.2764L90.9745 62.2294L92.4793 65.1132L94.3057 64.1602ZM92.8008 61.2764L94.5187 60.1394L92.6915 57.3787L90.9736 58.5156L89.2557 59.6526L91.0829 62.4133L92.8008 61.2764ZM90.9736 58.5156L92.5677 57.2107L90.4173 54.5838L88.8232 55.8887L87.2292 57.1936L89.3796 59.8205L90.9736 58.5156ZM88.8232 55.8887L90.2814 54.4334L87.8165 51.9637L86.3584 53.4189L84.9003 54.8742L87.3651 57.3439L88.8232 55.8887ZM86.3584 53.4189L87.6701 51.8305L84.924 49.5629L83.6123 51.1514L82.3006 52.7398L85.0467 55.0074L86.3584 53.4189ZM83.6123 51.1514L84.7707 49.4479L81.7463 47.3912L80.5879 49.0947L79.4295 50.7982L82.4539 52.8549L83.6123 51.1514ZM80.5879 49.0947L81.5877 47.2935L78.324 45.482L77.3242 47.2832L76.3245 49.0844L79.5881 50.8959L80.5879 49.0947ZM77.3242 47.2832L78.1599 45.4003L74.6677 43.8505L73.832 45.7334L72.9964 47.6163L76.4886 49.1662L77.3242 47.2832ZM73.832 45.7334L74.5021 43.7854L70.8341 42.5237L70.1641 44.4717L69.494 46.4197L73.1619 47.6814L73.832 45.7334ZM70.1641 44.4717L70.6652 42.4735L66.8225 41.5097L66.3213 43.5078L65.8201 45.506L69.6629 46.4698L70.1641 44.4717ZM66.3213 43.5078L66.6525 41.4746L62.6965 40.83L62.3652 42.8633L62.034 44.8965L65.99 45.541L66.3213 43.5078ZM62.3652 42.8633L62.5263 40.8095L58.4784 40.4922L58.3174 42.5459L58.1564 44.5996L62.2042 44.917L62.3652 42.8633ZM58.3174 42.5459L58.3081 40.4859L54.2084 40.5044L54.2178 42.5645L54.2271 44.6245L58.3267 44.6059L58.3174 42.5459ZM54.2178 42.5645L54.0376 40.5123L49.9224 40.8736L50.1025 42.9258L50.2827 44.9779L54.398 44.6166L54.2178 42.5645ZM50.1025 42.9258L49.7518 40.8958L45.6649 41.6019L46.0156 43.6318L46.3663 45.6618L50.4532 44.9558L50.1025 42.9258ZM46.0156 43.6318L45.4957 41.6385L41.4743 42.6873L41.9941 44.6807L42.514 46.674L46.5355 45.6252L46.0156 43.6318ZM41.9941 44.6807L41.3062 42.7389L37.3784 44.1305L38.0664 46.0723L38.7544 48.014L42.6821 46.6224L41.9941 44.6807ZM38.0664 46.0723L37.2121 44.1977L33.4299 45.9213L34.2842 47.7959L35.1385 49.6705L38.9207 47.9468L38.0664 46.0723ZM34.2842 47.7959L33.2678 46.004L29.6711 48.0441L30.6875 49.8359L31.7039 51.6278L35.3005 49.5878L34.2842 47.7959ZM30.6875 49.8359L29.5123 48.144L26.1266 50.4955L27.3018 52.1875L28.4769 53.8795L31.8627 51.5279L30.6875 49.8359ZM27.3018 52.1875L25.9745 50.612L22.8446 53.2487L24.1719 54.8242L25.4991 56.3997L28.629 53.763L27.3018 52.1875ZM24.1719 54.8242L22.6997 53.3832L19.8598 56.2846L21.332 57.7256L22.8042 59.1666L25.6441 56.2652L24.1719 54.8242ZM21.332 57.7256L19.7253 56.4364L17.192 59.5936L18.7988 60.8828L20.4056 62.172L22.9388 59.0148L21.332 57.7256ZM18.7988 60.8828L17.07 59.7626L14.8913 63.1249L16.6201 64.2451L18.3489 65.3654L20.5277 62.0031L18.7988 60.8828ZM16.6201 64.2451L14.7846 63.3099L12.973 66.8656L14.8086 67.8008L16.6441 68.7359L18.4557 65.1803L16.6201 64.2451ZM14.8086 67.8008L12.8843 67.0653L11.4595 70.7928L13.3838 71.5283L15.3081 72.2638L16.7329 68.5363L14.8086 67.8008ZM13.3838 71.5283L11.3911 71.0057L10.3823 74.8524L12.375 75.375L14.3677 75.8976L15.3765 72.0509L13.3838 71.5283ZM12.375 75.375L10.3372 75.0732L9.75418 79.0097L11.792 79.3115L13.8298 79.6133L14.4128 75.6768L12.375 75.375ZM11.792 79.3115L9.73333 79.2362L9.58684 83.2401L11.6455 83.3154L13.7042 83.3907L13.8507 79.3868L11.792 79.3115ZM11.6455 83.3154L9.59114 83.4683L9.89095 87.4976L11.9453 87.3447L13.9997 87.1919L13.6999 83.1626L11.6455 83.3154ZM11.9453 87.3447L9.92031 87.7231L10.6713 91.7426L12.6963 91.3643L14.7213 90.9859L13.9703 86.9664L11.9453 87.3447ZM12.6963 91.3643L10.7246 91.961L11.9248 95.9268L13.8965 95.3301L15.8682 94.7334L14.668 90.7675L12.6963 91.3643ZM13.8965 95.3301L12.0005 96.1356L13.6489 100.016L15.5449 99.21L17.4409 98.4044L15.7925 94.5245L13.8965 95.3301ZM15.5449 99.21L13.7436 100.209L15.8285 103.967L17.6299 102.968L19.4312 101.968L17.3463 98.2105L15.5449 99.21ZM17.6299 102.968L15.9414 104.148L18.4531 107.742L20.1416 106.562L21.8301 105.381L19.3184 101.788L17.6299 102.968ZM20.1416 106.562L18.5793 107.904L21.4992 111.302L23.0615 109.959L24.6238 108.616L21.7039 105.219L20.1416 106.562ZM23.0615 109.959L21.6375 111.448L24.949 114.616L26.373 113.127L27.7971 111.638L24.4856 108.47L23.0615 109.959ZM26.373 113.127L25.0963 114.744L28.7701 117.645L30.0469 116.028L31.3236 114.412L27.6498 111.51L26.373 113.127ZM30.0469 116.028L28.9248 117.756L32.9336 120.359L34.0557 118.632L35.1777 116.904L31.1689 114.301L30.0469 116.028ZM34.0557 118.632L33.0928 120.453L37.4258 122.744L38.3887 120.923L39.3516 119.102L35.0186 116.811L34.0557 118.632ZM38.3887 120.923L37.3666 122.711L37.3803 122.719L38.4023 120.931L39.4244 119.142L39.4107 119.134L38.3887 120.923ZM38.4023 120.931L37.4011 122.731L42.1579 125.377L43.1592 123.576L44.1604 121.776L39.4036 119.13L38.4023 120.931ZM43.1592 123.576L42.4436 125.508L47.7717 127.482L48.4873 125.55L49.2029 123.618L43.8747 121.644L43.1592 123.576ZM48.4873 125.55L48.1357 127.58L52.3701 128.313L52.7217 126.283L53.0732 124.253L48.8389 123.52L48.4873 125.55ZM52.7217 126.283L52.6087 128.34L67.8128 129.175L67.9258 127.118L68.0387 125.061L52.8346 124.226L52.7217 126.283ZM67.9258 127.118L67.8498 129.177L137.376 131.744L137.452 129.686L137.528 127.627L68.0018 125.06L67.9258 127.118ZM137.452 129.686L138.426 131.501L199.186 98.8992L198.212 97.084L197.238 95.2687L136.478 127.87L137.452 129.686ZM198.212 97.084L198.251 95.0243C196.977 95.0001 195.305 94.9693 193.355 94.9325L193.316 96.9922L193.277 99.0519C195.232 99.0888 196.897 99.1194 198.173 99.1437L198.212 97.084ZM193.316 96.9922L193.355 94.9325C188.744 94.8454 182.546 94.7293 176.204 94.6132L176.166 96.6729L176.128 98.7326C182.469 98.8487 188.666 98.9648 193.277 99.0519L193.316 96.9922ZM176.166 96.6729L176.204 94.6132C163.532 94.3811 150.251 94.148 147.921 94.148L147.921 96.208L147.921 98.2681C150.201 98.2681 163.422 98.4998 176.128 98.7326L176.166 96.6729ZM147.921 96.208V94.148C148.57 94.148 149.122 94.6106 149.241 95.2424L147.216 95.6221L145.191 96.0017C145.437 97.312 146.581 98.2681 147.921 98.2681V96.208ZM147.216 95.6221L149.241 95.2432C148.565 91.6289 148.765 89.5167 149.252 85.7004L147.209 85.4395L145.166 85.1785C144.662 89.1224 144.395 91.746 145.191 96.0009L147.216 95.6221ZM147.209 85.4395L149.219 85.8927L149.248 85.7629L147.238 85.3096L145.229 84.8563L145.199 84.9862L147.209 85.4395ZM147.238 85.3096L149.199 85.9411C149.024 86.4862 148.515 86.8725 147.921 86.8725V84.8125V82.7525C146.695 82.7525 145.641 83.5502 145.277 84.678L147.238 85.3096ZM147.921 84.8125L147.921 86.8725C150.192 86.8726 169.707 87.7911 188.732 88.7139L188.832 86.6562L188.932 84.5986C170.01 83.6809 150.324 82.7525 147.921 82.7525L147.921 84.8125ZM188.832 86.6562L188.732 88.7139C198.227 89.1744 207.578 89.635 214.555 89.9804L214.657 87.9229L214.759 85.8653C207.781 85.5199 198.429 85.0593 188.932 84.5986L188.832 86.6562ZM214.657 87.9229L214.555 89.9804C218.044 90.1531 220.939 90.2966 222.962 90.3973L223.064 88.3398L223.167 86.2823C221.144 86.1816 218.248 86.038 214.759 85.8653L214.657 87.9229ZM223.064 88.3398L222.962 90.3973C223.973 90.4477 224.766 90.4875 225.307 90.5145L225.41 88.457L225.513 86.3995C224.973 86.3726 224.178 86.3327 223.167 86.2823L223.064 88.3398ZM225.41 88.457L225.307 90.5145C225.671 90.5327 225.699 90.5335 225.925 90.5448L226.027 88.4873L226.13 86.4298C226.077 86.4272 225.689 86.4084 225.513 86.3995L225.41 88.457ZM226.027 88.4873L225.925 90.5448C226.016 90.5493 226.027 90.5499 226.082 90.5526L226.185 88.4951L226.287 86.4376C226.272 86.4368 226.178 86.4322 226.13 86.4298L226.027 88.4873ZM226.185 88.4951L226.082 90.5526C226.092 90.5531 226.102 90.5536 226.109 90.5539C226.117 90.5543 226.12 90.5544 226.122 90.5545L226.225 88.4971L226.328 86.4396C226.321 86.4393 226.312 86.4388 226.307 86.4386C226.301 86.4383 226.294 86.438 226.287 86.4376L226.185 88.4951ZM226.225 88.4971L226.118 90.5544C226.087 90.5528 226.061 90.5507 226.043 90.5491C226.026 90.5475 226.012 90.546 226.008 90.5456C226.007 90.5455 226.006 90.5454 226.006 90.5454C226.006 90.5453 226.007 90.5454 226.007 90.5455C226.009 90.5457 226.015 90.5463 226.022 90.5471C226.026 90.5475 226.031 90.548 226.037 90.5486C226.043 90.5491 226.05 90.5498 226.059 90.5505C226.067 90.5513 226.078 90.5521 226.09 90.5529C226.101 90.5538 226.116 90.5547 226.132 90.5555L226.235 88.498L226.338 86.4406C226.355 86.4414 226.369 86.4423 226.38 86.4431C226.392 86.4439 226.402 86.4447 226.41 86.4454C226.418 86.4461 226.425 86.4468 226.431 86.4473C226.436 86.4478 226.441 86.4483 226.445 86.4487C226.451 86.4494 226.456 86.4499 226.457 86.45C226.457 86.45 226.458 86.4501 226.457 86.45C226.456 86.4499 226.455 86.4498 226.454 86.4496C226.448 86.449 226.432 86.4473 226.412 86.4455C226.392 86.4437 226.364 86.4415 226.331 86.4398L226.225 88.4971ZM226.235 88.498V90.5581H226.237V88.498V86.438H226.235V88.498ZM226.237 88.498L224.184 88.6655C224.179 88.6007 224.178 88.5498 224.178 88.53C224.177 88.5054 224.177 88.4858 224.177 88.4753C224.178 88.4546 224.178 88.439 224.178 88.4351C224.179 88.4255 224.179 88.4203 224.179 88.4268C224.178 88.4372 224.177 88.4601 224.175 88.5082C224.17 88.6024 224.161 88.7794 224.145 89.1119L226.202 89.2148L228.26 89.3178C228.276 88.9857 228.285 88.8061 228.29 88.709C228.292 88.6613 228.294 88.6299 228.295 88.6094C228.295 88.6004 228.296 88.5857 228.296 88.5702C228.296 88.5633 228.297 88.5456 228.297 88.5234C228.297 88.5122 228.298 88.4921 228.297 88.467C228.297 88.4468 228.296 88.3956 228.291 88.3306L226.237 88.498ZM226.202 89.2148L228.26 89.3186L228.296 88.6018L226.238 88.498L224.181 88.3943L224.145 89.1111L226.202 89.2148ZM226.238 88.498L226.135 90.5555C225.545 90.5259 225.046 90.1148 224.901 89.5458L226.897 89.0381L228.894 88.5304C228.594 87.3513 227.561 86.5018 226.342 86.4406L226.238 88.498ZM226.897 89.0381L224.901 89.5444C224.757 88.9762 224.998 88.377 225.503 88.0688L226.576 89.8271L227.649 91.5855C228.691 90.9495 229.193 89.7098 228.894 88.5318L226.897 89.0381ZM226.576 89.8271L225.503 88.0688L136.921 142.14L137.994 143.898L139.067 145.657L227.649 91.5855L226.576 89.8271ZM137.994 143.898L136.922 142.139C137.147 142.002 137.409 141.934 137.676 141.945L137.591 144.003L137.506 146.061C138.056 146.084 138.599 145.942 139.066 145.658L137.994 143.898ZM137.591 144.003L139.649 144.09L139.679 143.373L137.621 143.286L135.563 143.199L135.533 143.916L137.591 144.003ZM137.621 143.286L135.563 143.196L135.532 143.912L137.59 144.002L139.648 144.092L139.679 143.376L137.621 143.286ZM137.59 144.002V141.942H137.575V144.002V146.062H137.59V144.002ZM137.575 144.002L137.661 141.944C137.649 141.943 137.637 141.943 137.614 141.942L137.528 144L137.443 146.058C137.461 146.059 137.481 146.06 137.49 146.06L137.575 144.002ZM137.528 144L137.614 141.942C137.568 141.94 137.516 141.938 137.428 141.934L137.342 143.992L137.256 146.05C137.332 146.054 137.405 146.057 137.443 146.058L137.528 144ZM137.342 143.992L137.428 141.934C137.262 141.927 137.019 141.917 136.7 141.904L136.614 143.962L136.528 146.02C136.847 146.033 137.093 146.044 137.256 146.05L137.342 143.992ZM136.614 143.962L136.7 141.904C136.063 141.877 135.127 141.838 133.935 141.787L133.849 143.846L133.762 145.904C134.954 145.954 135.89 145.993 136.528 146.02L136.614 143.962ZM133.849 143.846L133.935 141.787C131.552 141.687 128.14 141.542 124.032 141.365L123.943 143.423L123.855 145.481C127.964 145.658 131.377 145.803 133.762 145.904L133.849 143.846ZM123.943 143.423L124.032 141.365C115.815 141.011 104.81 140.528 93.6575 140.013L93.5625 142.071L93.4675 144.129C104.625 144.644 115.635 145.127 123.855 145.481L123.943 143.423ZM93.5625 142.071L93.6575 140.013C82.5047 139.498 71.2072 138.951 62.4038 138.468L62.291 140.525L62.1783 142.582C70.9996 143.066 82.3111 143.614 93.4675 144.129L93.5625 142.071ZM62.291 140.525L62.4038 138.468C58.0015 138.227 54.2279 138.003 51.4099 137.806L51.2666 139.861L51.1233 141.916C53.9721 142.115 57.7696 142.341 62.1783 142.582L62.291 140.525ZM51.2666 139.861L51.4099 137.806C48.5293 137.605 46.7789 137.441 46.3069 137.339L45.8691 139.352L45.4314 141.365C46.2723 141.547 48.4072 141.727 51.1233 141.916L51.2666 139.861ZM45.8691 139.352L46.3072 137.339C46.3801 137.354 46.4527 137.377 46.5251 137.406L45.752 139.315L44.9788 141.225C45.1268 141.285 45.2785 141.331 45.431 141.364L45.8691 139.352ZM45.752 139.315L46.5258 137.406C44.7314 136.679 42.4541 135.659 40.6145 134.816L39.7559 136.688L38.8972 138.561C40.7478 139.41 43.0942 140.461 44.9781 141.225L45.752 139.315ZM39.7559 136.688L40.6145 134.816C39.6977 134.396 38.8939 134.021 38.3191 133.751L37.4443 135.616L36.5695 137.481C37.1519 137.754 37.9669 138.134 38.8972 138.561L39.7559 136.688ZM37.4443 135.616L38.3191 133.751C38.0314 133.616 37.8013 133.508 37.6443 133.434L36.7637 135.296L35.8831 137.158C36.045 137.235 36.2791 137.345 36.5695 137.481L37.4443 135.616ZM36.7637 135.296L37.6443 133.434C37.5648 133.396 37.5037 133.367 37.4632 133.348L36.5801 135.209L35.697 137.07C35.7401 137.091 35.8033 137.121 35.8831 137.158L36.7637 135.296ZM36.5801 135.209L37.4632 133.348C37.4469 133.34 37.4329 133.334 37.4238 133.329C37.4184 133.327 37.4165 133.326 37.4142 133.325C37.412 133.324 37.4133 133.324 37.4161 133.326L36.5322 135.187L35.6483 137.047C35.6565 137.051 35.6639 137.055 35.6685 137.057C35.6728 137.059 35.6784 137.061 35.681 137.063C35.688 137.066 35.6925 137.068 35.6969 137.07L36.5801 135.209ZM36.5322 135.187L37.4165 133.326C37.441 133.338 37.4595 133.347 37.4634 133.349C37.464 133.349 37.465 133.35 37.4636 133.349C37.4629 133.349 37.4602 133.347 37.4569 133.346C37.4535 133.344 37.4479 133.341 37.4411 133.338C37.4342 133.334 37.4243 133.329 37.4124 133.324L36.5205 135.181L35.6286 137.038C35.6174 137.032 35.6082 137.028 35.6021 137.025C35.596 137.022 35.5912 137.019 35.5886 137.018C35.5873 137.017 35.5862 137.017 35.5856 137.016C35.5853 137.016 35.585 137.016 35.5848 137.016C35.5847 137.016 35.5846 137.016 35.5846 137.016C35.584 137.016 35.586 137.017 35.5876 137.017C35.5954 137.021 35.6184 137.033 35.6479 137.047L36.5322 135.187ZM36.5205 135.181L37.4054 133.32C37.5039 133.367 37.5809 133.414 37.6314 133.446C37.6823 133.479 37.7208 133.506 37.738 133.519C37.7468 133.526 37.7538 133.531 37.7543 133.531C37.7574 133.534 37.75 133.528 37.7427 133.523C37.7348 133.517 37.7166 133.503 37.693 133.487C37.6702 133.471 37.6302 133.444 37.5785 133.413L36.5176 135.179L35.4567 136.945C35.4052 136.914 35.3653 136.887 35.3427 136.871C35.3193 136.855 35.3013 136.841 35.2936 136.836C35.2865 136.83 35.2793 136.825 35.2827 136.828C35.2834 136.828 35.2906 136.834 35.2997 136.84C35.3175 136.853 35.3564 136.881 35.4079 136.914C35.4589 136.947 35.5365 136.994 35.6356 137.041L36.5205 135.181ZM36.5176 135.179V133.119H36.5166V135.179V137.239H36.5176V135.179ZM36.5166 135.179L37.402 133.319C37.4527 133.343 37.4881 133.363 37.5032 133.372L36.4619 135.149L35.4207 136.927C35.471 136.956 35.5436 136.997 35.6312 137.039L36.5166 135.179ZM36.4619 135.149L37.5041 133.372L32.7336 130.575L31.6914 132.352L30.6492 134.129L35.4197 136.926L36.4619 135.149ZM31.6914 132.352L32.7335 130.575C32.7741 130.598 32.8105 130.622 32.8438 130.647L31.6318 132.312L30.4198 133.978C30.4913 134.03 30.5681 134.081 30.6493 134.129L31.6914 132.352ZM31.6318 132.312L32.8443 130.647L28.1988 127.265L26.9863 128.931L25.7739 130.596L30.4194 133.978L31.6318 132.312ZM26.9863 128.931L28.1989 127.265C28.2372 127.293 28.2672 127.318 28.2892 127.337L26.9375 128.892L25.5858 130.446C25.639 130.492 25.7021 130.544 25.7738 130.596L26.9863 128.931ZM26.9375 128.892L28.2897 127.337L24.3356 123.897L22.9834 125.451L21.6312 127.005L25.5853 130.446L26.9375 128.892ZM22.9834 125.451L24.3241 123.887L24.3172 123.881L22.9766 125.445L21.6359 127.009L21.6427 127.015L22.9834 125.451ZM22.9766 125.445L24.3489 123.909L20.4172 120.397L19.0449 121.934L17.6726 123.47L21.6043 126.982L22.9766 125.445ZM19.0449 121.934L20.4171 120.397C20.4465 120.423 20.4688 120.445 20.4828 120.459C20.4968 120.473 20.5062 120.484 20.5086 120.486L18.9961 121.885L17.4836 123.283C17.5162 123.319 17.5839 123.391 17.6727 123.47L19.0449 121.934ZM18.9961 121.885L20.5087 120.486L16.9628 116.651L15.4502 118.05L13.9376 119.448L17.4835 123.283L18.9961 121.885ZM15.4502 118.05L16.963 116.651C17.0019 116.694 17.0292 116.728 17.0449 116.749L15.4062 117.997L13.7676 119.245C13.8108 119.302 13.8676 119.373 13.9374 119.448L15.4502 118.05ZM15.4062 117.997L17.0463 116.75L13.9144 112.63L12.2744 113.877L10.6344 115.124L13.7662 119.244L15.4062 117.997ZM12.2744 113.877L13.9144 112.63C13.9541 112.683 13.9792 112.722 13.9876 112.736L12.2354 113.819L10.4831 114.903C10.5157 114.955 10.5669 115.035 10.6344 115.124L12.2744 113.877ZM12.2354 113.819L13.9879 112.737L11.2926 108.374L9.54004 109.457L7.78753 110.54L10.4828 114.902L12.2354 113.819ZM9.54004 109.457L11.2927 108.374C11.2944 108.377 11.3017 108.389 11.3118 108.407C11.3219 108.424 11.3371 108.452 11.3544 108.487L9.50586 109.396L7.65731 110.306C7.71032 110.413 7.76189 110.498 7.78739 110.54L9.54004 109.457ZM9.50586 109.396L11.3551 108.489L9.11584 103.927L7.2666 104.835L5.41736 105.743L7.65662 110.304L9.50586 109.396ZM7.2666 104.835L9.1159 103.927C9.11443 103.924 9.12009 103.936 9.12817 103.954C9.1365 103.972 9.15048 104.004 9.16621 104.046L7.23828 104.771L5.31035 105.497C5.35543 105.617 5.40253 105.713 5.4173 105.743L7.2666 104.835ZM7.23828 104.771L9.16701 104.048L7.39748 99.3319L5.46875 100.056L3.54002 100.779L5.30955 105.495L7.23828 104.771ZM5.46875 100.056L7.39748 99.3319C7.40915 99.363 7.42329 99.4045 7.43697 99.4555L5.44727 99.9893L3.45756 100.523C3.48325 100.619 3.51205 100.705 3.54002 100.779L5.46875 100.056ZM5.44727 99.9893L7.43716 99.4562L6.14516 94.633L4.15527 95.166L2.16538 95.699L3.45738 100.522L5.44727 99.9893ZM4.15527 95.166L6.14523 94.6333C6.16109 94.6925 6.16918 94.7371 6.173 94.7602L4.14062 95.0967L2.10825 95.4332C2.11968 95.5022 2.13741 95.5946 2.16531 95.6988L4.15527 95.166ZM4.14062 95.0967L6.17309 94.7607L5.36547 89.875L3.33301 90.2109L1.30054 90.5469L2.10816 95.4326L4.14062 95.0967ZM3.33301 90.2109L5.36554 89.8754C5.37449 89.9296 5.37861 89.9736 5.38067 90.0044L3.3252 90.1416L1.26972 90.2788C1.27487 90.3558 1.28398 90.4466 1.30047 90.5465L3.33301 90.2109ZM3.3252 90.1416L5.38078 90.0061L5.05754 85.1028L3.00195 85.2383L0.946371 85.3738L1.26961 90.2771L3.3252 90.1416ZM3.00195 85.2383L5.05759 85.1036C5.06118 85.1584 5.06097 85.2025 5.05998 85.2336L3.00098 85.168L0.941977 85.1024C0.939504 85.18 0.939685 85.2718 0.946316 85.373L3.00195 85.2383ZM3.00098 85.168L5.05995 85.2344L5.21718 80.3614L3.1582 80.2949L1.09923 80.2285L0.942004 85.1015L3.00098 85.168ZM3.1582 80.2949L5.2133 80.4376L5.21818 80.3673L3.16309 80.2246L1.10799 80.0819L1.10311 80.1522L3.1582 80.2949ZM3.16309 80.2246L5.20568 80.4922L5.83458 75.6914L3.79199 75.4238L1.7494 75.1562L1.12049 79.957L3.16309 80.2246ZM3.79199 75.4238L5.81835 75.7949L5.83104 75.7255L3.80469 75.3545L1.77833 74.9835L1.76563 75.0528L3.79199 75.4238ZM3.80469 75.3545L5.8114 75.8202L6.89832 71.1366L4.8916 70.6709L2.88489 70.2052L1.79797 74.8888L3.80469 75.3545ZM4.8916 70.6709L6.8702 71.2444L6.88974 71.177L4.91113 70.6035L2.93253 70.03L2.913 70.0974L4.8916 70.6709ZM4.91113 70.6035L6.86279 71.2629L8.39209 66.7365L6.44043 66.0771L4.48877 65.4178L2.95947 69.9441L4.91113 70.6035ZM6.44043 66.0771L8.36094 66.8224L8.38633 66.757L6.46582 66.0117L4.54531 65.2664L4.51992 65.3319L6.44043 66.0771ZM6.46582 66.0117L8.34408 66.8578L10.2943 62.5287L8.41602 61.6826L6.53776 60.8365L4.58756 65.1656L6.46582 66.0117ZM8.41602 61.6826L10.2527 62.6155L10.284 62.554L8.44727 61.6211L6.61057 60.6882L6.57932 60.7497L8.41602 61.6826ZM8.44727 61.6211L10.2346 62.6454L12.5813 58.5507L10.7939 57.5264L9.00661 56.5021L6.65993 60.5968L8.44727 61.6211ZM10.7939 57.5264L12.5212 58.6491L12.5593 58.5905L10.832 57.4678L9.1048 56.3451L9.06671 56.4037L10.7939 57.5264ZM10.832 57.4678L12.5121 58.66L15.2279 54.8328L13.5479 53.6406L11.8678 52.4484L9.152 56.2756L10.832 57.4678ZM13.5479 53.6406L15.1818 54.8952L15.2238 54.8406L13.5898 53.5859L11.9559 52.3313L11.9139 52.386L13.5479 53.6406ZM13.5898 53.5859L15.1469 54.9347L18.2016 51.4084L16.6445 50.0596L15.0875 48.7108L12.0328 52.2371L13.5898 53.5859ZM16.6445 50.0596L18.1012 51.5162L18.1784 51.4391L16.7217 49.9824L15.265 48.5258L15.1879 48.6029L16.6445 50.0596ZM16.7217 49.9824L18.0568 51.5512L28.2795 42.851L26.9443 41.2822L25.6092 39.7134L15.3865 48.4136L16.7217 49.9824ZM26.9443 41.2822L28.1879 42.9246L28.2562 42.8729L27.0127 41.2305L25.7692 39.5881L25.7008 39.6398L26.9443 41.2822ZM27.0127 41.2305L28.1501 42.948C28.0878 42.9893 28.0373 43.016 28.0101 43.0296L27.0879 41.1875L26.1657 39.3454C26.0868 39.3849 25.9857 39.4397 25.8753 39.5129L27.0127 41.2305ZM27.0879 41.1875L28.0095 43.0299L103.167 5.4332L102.245 3.59082L101.323 1.74844L26.1663 39.3451L27.0879 41.1875ZM102.245 3.59082L102.983 5.5143L103.113 5.46449L102.375 3.54102L101.637 1.61754L101.508 1.66734L102.245 3.59082ZM102.375 3.54102L102.924 5.52652C102.828 5.55314 102.741 5.56606 102.669 5.57161L102.512 3.51758L102.355 1.46354C102.189 1.47618 102.011 1.50427 101.826 1.55551L102.375 3.54102ZM102.512 3.51758L102.669 5.57162L109.397 5.05697L109.24 3.00293L109.083 0.948885L102.355 1.46353L102.512 3.51758ZM109.24 3.00293L109.397 5.05698C109.354 5.06028 109.276 5.06379 109.174 5.05451L109.36 3.00293L109.547 0.951346C109.365 0.934837 109.206 0.939488 109.083 0.948881L109.24 3.00293ZM109.36 3.00293L109.174 5.05449L114.839 5.57012L115.025 3.51855L115.212 1.46699L109.547 0.951366L109.36 3.00293Z" fill="black"/>
</svg>
