<svg width="201" height="191" viewBox="0 0 201 191" fill="none" xmlns="http://www.w3.org/2000/svg">
<path d="M128.026 2C128.026 2 151.616 9.61254 164.993 17.8429C176.24 24.7628 178.961 20.9734 187.89 31.0181C193.539 37.3735 196.679 44.8365 196.679 53.3397C196.679 63.9017 194.586 73.2965 194.586 81.7998C194.586 90.3031 198.007 115.846 199 124.035M175.555 139.305C166.74 136.593 168.046 126.885 164.993 118.181C160.841 106.344 160.926 84.4228 160.646 86.4955C160.366 88.5682 159.712 102.589 159.712 112.9C159.712 121.15 159.331 122.301 158.314 128.743C157.297 135.185 154.431 139.305 154.431 144.586C154.431 165.71 156.048 151.145 150.767 172.268C143.831 183.505 128.103 188.54 128.103 188.54M78.1268 188.54C78.1268 188.54 55.3871 183.587 52.5575 172.268C47.2765 151.145 48.8117 165.71 48.8117 144.586C48.8117 139.305 47.5037 133.151 46.1475 128.743C42.8977 118.181 43.5307 121.15 43.5307 112.9C43.5307 102.589 43.8407 88.0059 43.5307 86.4955C43.2359 85.0592 42.4018 106.344 38.2498 118.181C35.1971 126.885 36.5031 136.593 27.6878 139.305M2 124.035C3.02321 115.594 6.56395 90.3031 6.56395 81.7998C6.56395 73.2965 4.85249 66.8654 4.85249 58.3621C4.85249 49.8588 8.04875 42.3968 12.107 34.9244C18.4094 23.3199 27.0025 24.7628 38.2498 17.8429C51.627 9.61254 75.2165 2 75.2165 2" stroke="black" stroke-width="3.63842"/>
<path d="M100.335 52.4501C102.137 45.2861 104.58 39.3406 111.684 37.3174C117.543 35.6491 126.817 41.1006 126.817 41.1006C126.817 41.1006 136.091 35.6491 141.95 37.3174C149.054 39.3406 151.497 45.2861 153.299 52.4501C157.13 67.6808 126.817 82.7154 126.817 82.7154C126.817 82.7154 96.5037 67.6808 100.335 52.4501Z" fill="#FF0000" stroke="black" stroke-width="3.95149" stroke-linecap="round"/>
</svg>
