<svg width="211" height="187" viewBox="0 0 211 187" fill="none" xmlns="http://www.w3.org/2000/svg">
<path d="M31.4659 47.2297C31.6565 47.1727 31.8258 47.1258 31.9466 47.094C32.0065 47.0782 32.0541 47.0661 32.085 47.0584C32.1001 47.0546 32.1116 47.052 32.1184 47.0504C32.1213 47.0496 32.1237 47.0485 32.1249 47.0482L32.207 47.0292L32.2877 47.0025L34.6647 46.2123L35.8799 45.8094C35.9147 45.7986 35.9687 45.7831 36.0365 45.7636C36.1738 45.7242 36.3614 45.673 36.5651 45.6264C36.7732 45.5787 36.9729 45.5416 37.1384 45.5217C37.2295 45.5108 37.2846 45.5078 37.3096 45.5071C37.3417 45.5137 37.372 45.5231 37.4376 45.5614C37.494 45.5943 37.5613 45.6388 37.6779 45.7183C37.7809 45.7886 37.9397 45.8988 38.1077 46.0059C38.2623 46.1045 38.3436 46.1624 38.3816 46.1898C38.3945 46.207 38.4138 46.2324 38.4411 46.2699C38.5181 46.3755 38.6326 46.5336 38.7949 46.7411C39.4449 47.5722 39.4732 47.5256 39.8549 48.1448C40.0101 48.3964 40.1126 48.638 40.2661 49.0218C40.4133 49.3898 40.6167 49.9165 40.9497 50.4846C41.3331 51.1385 41.7893 51.5373 42.0517 51.7694C42.314 52.0015 42.3591 52.0498 42.4118 52.1326C42.5384 52.3316 42.5842 52.5063 42.6509 53.0616C42.7154 53.5989 42.8001 54.5636 43.3602 55.5857C43.4762 55.7974 43.5914 55.9703 43.7111 56.1258C43.7668 56.1981 43.8172 56.2586 43.8538 56.3017C43.9029 56.3595 43.9023 56.3584 43.9281 56.3892C43.9354 56.398 43.9771 56.437 44.0947 56.6684C44.0976 56.6821 44.1025 56.7031 44.107 56.7332C44.1154 56.7902 44.122 56.8568 44.1322 56.9584C44.1409 57.045 44.1546 57.1867 44.1724 57.3216C44.2025 57.5488 44.2782 58.0858 44.5966 58.6008C45.0014 59.2556 45.6552 59.6654 46.4105 59.7741C47.1116 59.8749 47.6872 59.6582 48.0264 59.4842C48.378 59.3039 48.6561 59.0777 48.8426 58.908C49.0378 58.7305 49.1948 58.5579 49.2998 58.4344C49.347 58.3789 49.386 58.3292 49.4174 58.2895C49.4306 58.2751 49.4479 58.2563 49.469 58.2343C49.5329 58.1678 49.6237 58.0788 49.7267 57.9873C49.8324 57.8934 49.9309 57.8158 50.0121 57.762C50.0378 57.745 50.0571 57.7335 50.0693 57.7266L50.0705 57.7272C50.0713 57.7272 50.0851 57.7259 50.1285 57.7286C50.1823 57.7319 50.2497 57.7391 50.3845 57.7558C50.5059 57.7709 50.6828 57.7937 50.8792 57.811C51.1699 57.8366 51.3722 57.9084 51.9222 58.2759C52.3662 58.5726 52.6705 58.9989 53.0454 60.9529C53.075 61.1074 53.0567 61.5228 52.8707 62.2877C52.787 62.6318 52.6862 62.985 52.579 63.3535C52.4773 63.7032 52.3607 64.0959 52.2731 64.4447C51.7644 66.4706 50.538 68.6101 49.347 70.3215C48.7642 71.1589 48.2153 71.8579 47.8142 72.3452C47.6141 72.5882 47.4516 72.7774 47.3417 72.9031C47.287 72.9657 47.245 73.013 47.2183 73.0428C47.2051 73.0575 47.1951 73.0678 47.1895 73.0739C47.1868 73.0769 47.1851 73.0789 47.1843 73.0798L47.0256 73.2528L46.911 73.4595L44.9264 77.0219L44.8834 77.1L44.8474 77.1809L43.2594 80.7445L43.2386 80.7905L43.2203 80.8377L42.3217 83.1605L40.3963 85.3997L40.0529 85.7975L39.9502 86.3131L39.2102 90.0267L39.1253 90.453L39.224 90.875L39.8176 93.4036L39.97 94.0527L40.4813 94.4809L41.7174 95.5156C41.7197 95.5178 41.7225 95.52 41.7248 95.5224C41.7709 95.5688 41.8382 95.6356 41.9246 95.7216C42.0979 95.8939 42.3498 96.1424 42.6668 96.4488C43.3004 97.061 44.1992 97.9099 45.2629 98.8607C47.3722 100.746 50.2034 103.098 52.9384 104.782C55.002 106.053 58.4092 108.053 61.8432 110.731C65.2926 113.421 68.6011 116.67 70.5279 120.336L72.1129 123.35L73.9737 120.498C76.1442 117.17 77.328 113.545 77.9723 110.799C78.2965 109.417 78.4889 108.236 78.6012 107.393C78.6574 106.971 78.6943 106.632 78.7167 106.395C78.7215 106.344 78.7242 106.298 78.7278 106.257C78.7623 106.149 78.8127 105.997 78.8776 105.806C79.0227 105.38 79.2434 104.765 79.5389 104.027C80.1326 102.545 81.0167 100.599 82.1862 98.6999C83.7385 96.1792 84.8008 94.7877 86.0214 93.6287C87.2747 92.4388 88.7577 91.4291 91.317 89.7288C95.5404 86.9229 97.6537 85.4537 102.09 85.2143C103.902 85.1166 106.417 85.1077 108.512 85.1251C109.553 85.1338 110.478 85.149 111.142 85.1617C111.474 85.1681 111.741 85.1739 111.924 85.1781C112.016 85.1802 112.086 85.1825 112.134 85.1837C112.158 85.1843 112.176 85.1841 112.188 85.1844C112.194 85.1845 112.198 85.1849 112.201 85.185C112.203 85.1851 112.204 85.185 112.204 85.185L112.205 85.1847L115.092 85.2606L114.148 82.5323L114.138 82.5026C114.131 82.4812 114.119 82.4485 114.105 82.4047C114.075 82.3167 114.03 82.1844 113.974 82.0129C113.861 81.6699 113.7 81.169 113.509 80.5456C113.125 79.2965 112.62 77.5616 112.14 75.6196C111.157 71.6472 110.357 67.1188 110.689 64.0562C111.313 58.2954 112.449 55.1827 114.671 49.5975C116.498 45.0021 117.07 42.6145 119.83 39.2292C122.944 35.4085 125.414 33.8227 130.054 31.6127C132.942 30.2369 134.625 29.6791 137.763 29.0566C142.804 28.0567 145.732 27.8528 150.512 29.0558C154.777 30.1292 156.445 31.7905 160.905 34.3232C168.542 38.6602 173.102 39.9377 178.024 46.1222C183.919 53.5299 184.639 59.603 185.737 69.6345C186.332 75.0697 186.955 77.8243 185.764 82.5551C185.228 84.6862 184.652 85.9312 183.912 87.0562C183.101 88.2877 182.123 89.3526 180.527 91.3104C179.104 93.056 177.616 93.8333 175.647 95.0692C173.665 96.3141 171.529 97.8657 169.607 101.065C169.096 101.916 167.717 104.67 166.674 108.023C165.756 110.977 165.466 112.316 165.152 113.518C164.852 114.661 164.5 115.807 163.399 118.575C161.232 124.026 160.661 123.473 157.905 127.948C156.371 130.438 155.404 131.611 154.235 132.663C152.938 133.831 151.493 134.788 148.65 137.01C146.742 138.5 144.23 139.809 141.492 141.103C138.839 142.357 135.899 143.627 133.496 144.939C130.387 146.638 128.046 148.46 125.826 150.168C123.598 151.883 121.48 153.492 118.668 154.97C110.667 159.176 107.549 161.709 100.267 164.654C94.2711 167.079 92.7241 168.253 86.1731 169.88C83.7217 170.488 81.9603 170.973 80.4161 171.317C78.9075 171.653 77.8058 171.807 76.7938 171.777C74.8336 171.721 72.8398 170.977 68.6346 168.499C60.4611 163.682 57.4382 159.24 50.0381 152.295C47.275 149.702 44.7189 147.756 42.643 145.959C40.5135 144.116 38.5817 142.188 36.5848 139.262C30.6803 130.61 28.2412 128.04 24.492 118.805C23.2202 115.672 21.8656 112.454 20.8301 110.023C20.3121 108.806 19.8734 107.784 19.564 107.067C19.4095 106.708 19.2869 106.426 19.2031 106.233C19.1667 106.149 19.1383 106.081 19.117 106.032C19.1038 105.989 19.0873 105.934 19.0672 105.869C19.0117 105.69 18.9308 105.429 18.8272 105.099C18.6201 104.44 18.3232 103.508 17.9634 102.41C17.245 100.218 16.2693 97.349 15.2535 94.6777C12.6488 87.828 13.4179 81.7724 13.4219 77.9613L13.4283 71.6472L13.4289 71.646C13.4289 71.6444 13.4282 71.6415 13.4283 71.638C13.4284 71.631 13.4287 71.6202 13.429 71.6059C13.4294 71.5768 13.43 71.5325 13.431 71.4755C13.4331 71.3615 13.4371 71.1941 13.4423 70.9851C13.4526 70.5668 13.4695 69.9817 13.4974 69.3176C13.5541 67.972 13.6522 66.3637 13.8141 65.1528C13.945 64.1736 13.9475 63.4567 13.9675 62.8786C13.9868 62.3243 14.0222 61.7783 14.1936 60.926C14.569 59.059 14.7 58.6644 15.261 57.3652L15.2606 57.3643L15.2712 57.3402C15.6102 56.555 15.7179 56.3218 16.0798 55.9064C16.1453 55.8312 16.2811 55.6995 16.4423 55.5537C16.5145 55.4884 16.5794 55.4311 16.626 55.391C16.649 55.3711 16.6673 55.3555 16.6789 55.3456C16.6845 55.3409 16.6886 55.3374 16.6909 55.3355L16.6906 55.3346L16.6928 55.3349L16.8455 55.206L16.969 55.0509L16.9693 55.0518L16.9684 55.0521L16.9687 55.053C16.9688 55.0529 16.9689 55.0518 16.9699 55.0506C16.9722 55.0477 16.9764 55.0419 16.9829 55.0339C16.996 55.0179 17.0173 54.9924 17.0448 54.9599C17.1006 54.8939 17.1804 54.8022 17.2722 54.7024C17.4846 54.4715 17.6588 54.3125 17.737 54.2581C18.3097 53.8611 18.3989 53.8505 19.2282 53.3934C19.7976 53.0794 20.0663 52.9128 20.4657 52.7382C21.0734 52.4726 21.6517 52.1797 22.0703 51.9582C22.2816 51.8464 22.4572 51.7498 22.5812 51.6807C22.6433 51.6462 22.6929 51.618 22.7277 51.5982C22.7452 51.5883 22.7595 51.5808 22.7695 51.5751L22.771 51.5736L24.4704 50.6387C24.4766 50.6355 24.4841 50.6324 24.4917 50.6285C24.5299 50.609 24.5849 50.5803 24.6533 50.5451C24.7908 50.4744 24.983 50.3758 25.1998 50.2631C25.629 50.04 26.173 49.7543 26.5906 49.5242C27.598 48.969 27.6609 48.8861 28.5035 48.5134C29.3061 48.1583 29.6573 47.982 30.4026 47.6162C30.6529 47.4933 31.0564 47.3522 31.4659 47.2297Z" stroke="black" stroke-width="4"/>
<path d="M75.4224 110.156C75.8853 106.78 77.1863 101.095 79.879 95.7312C82.5718 90.367 83.2102 88.9565 89.2708 85.4246C92.1473 83.7482 93.2194 83.6225 96.4851 82.9747C101.649 81.9505 103.713 81.1433 108.705 82.8159C110.937 83.5639 113.534 82.8404 115.467 84.1836C119.791 87.1869 120.26 89.4327 121.917 94.4293C123.573 99.426 123.18 102.804 121.895 107.909C120.746 112.475 120.033 115.588 116.486 118.684C110.429 123.973 107.606 124.562 99.7456 127.484C94.8114 129.319 89.0827 128.481 83.6035 129.124C66.3924 127.879 71.5723 125.816 72.3498 120.485C72.8303 117.19 74.9701 113.454 75.4224 110.156Z" fill="#3A5483"/>
<path d="M33.21 74.8119L34.3991 74.021C34.3991 74.021 35.3508 73.5487 35.9838 73.6265C37.502 73.8132 36.6023 76.021 37.5642 77.2103C37.9739 77.7169 38.1065 78.2903 38.7516 78.3826C39.2358 78.4518 39.9402 77.9877 39.9402 77.9877C39.9402 77.9877 41.3456 77.4953 41.9219 76.8015C42.4541 76.1607 42.7161 74.8218 42.7161 74.8218C42.7161 74.8218 43.3179 73.4052 43.5108 72.4461C43.8157 70.9297 43.5133 70.0321 43.5149 68.4853C43.516 67.4025 43.7707 66.7655 43.5177 65.7126C43.2753 64.7037 43.196 63.9094 42.3319 63.3349C41.6751 62.8982 40.3518 62.9367 40.3518 62.9367C40.3518 62.9367 36.7363 62.5466 34.411 62.5345C31.9314 62.5217 30.5464 62.7426 28.0734 62.924C26.2158 63.0603 23.3199 63.3152 23.3199 63.3152" stroke="black" stroke-width="4" stroke-linecap="round"/>
<path d="M21.3449 58.1643C21.3449 58.1643 23.5129 57.6592 24.9105 57.3758C26.6054 57.0321 27.5536 56.8132 29.2683 56.5881C31.5739 56.2855 32.8936 56.0004 35.2105 55.8021C36.7594 55.6695 37.6181 55.8681 39.1714 55.8062C40.3597 55.7588 41.1518 55.8082 41.944 55.809C43.1521 55.8103 44.0266 56.6196 44.3185 57.7919C44.713 59.3767 44.3148 61.3567 44.3148 61.3567L43.519 64.9207" stroke="black" stroke-width="4" stroke-linecap="round"/>
<path d="M19.3696 53.8052C19.3696 53.8052 22.189 52.3759 24.124 51.8296C25.935 51.3184 27.0214 51.3498 28.8779 51.0424C30.7344 50.7349 31.7752 50.5625 33.6317 50.2551C34.56 50.1014 35.0788 50.0052 36.0087 49.8615C37.0896 49.6944 37.7441 49.5174 38.7814 49.8643C39.9692 50.2616 41.5532 50.6594 41.5532 50.6594" stroke="black" stroke-width="4" stroke-linecap="round"/>
<path d="M47.0895 59.3792C47.0895 59.3792 45.9 60.5662 45.5018 62.5462C45.2434 63.3381 45.377 64.5318 45.103 65.3184C44.3742 67.4098 43.9089 70.8624 43.9089 70.8624" stroke="black" stroke-width="4" stroke-linecap="round"/>
<path d="M72.105 125.976C72.105 125.976 74.058 118.385 74.9142 115.997C75.764 113.627 75.9291 112.201 76.5594 109.763C77.0803 107.748 77.3751 106.619 77.8718 104.598C78.2643 103.001 78.3689 102.075 78.8516 100.503C79.7238 97.6629 80.3437 96.0635 81.8992 93.532C83.0587 91.6451 83.736 90.5478 85.3511 89.0323C87.4972 87.0184 89.1047 86.2953 91.8283 85.1802C94.3283 84.1568 95.8666 83.9257 98.5257 83.4496C100.646 83.07 101.852 82.726 104.005 82.8068C106.419 82.8973 107.683 83.6413 110.055 84.1007C111.787 84.4361 114.501 84.8967 114.501 84.8967" stroke="black" stroke-width="2.5825" stroke-linecap="round"/>
<path d="M71.5882 126.695C71.5882 126.695 80.1646 130.241 92.3595 128.753C101.381 128.038 106.123 125.993 114.519 120.684C120.776 114.711 123.333 107.164 122.942 99.2522C122.339 87.0393 114.667 84.3608 114.667 84.3608" stroke="black" stroke-width="2.5" stroke-linecap="round" stroke-dasharray="3.96 3.96"/>
</svg>
