<svg width="201" height="191" viewBox="0 0 201 191" fill="none" xmlns="http://www.w3.org/2000/svg">
<path d="M98.5723 91.8438C111.68 91.8437 125.327 93.0676 135.35 95.4775C137.649 98.8531 138.976 100.761 139.813 104.531C140.6 108.069 139.943 110.801 138.76 113.74C137.608 116.601 135.728 120.07 134.686 124.24C132.703 132.172 131.287 136.735 129.533 144.854C128.206 150.996 128.199 156.359 127.887 161.161C127.587 165.77 127.011 170.014 124.877 174.566C110.167 179.259 90.8311 179.26 76.1221 174.566C73.9884 170.014 73.4125 165.77 73.1133 161.161C72.8015 156.359 72.7936 150.996 71.4668 144.854C69.7131 136.735 68.2975 132.172 66.3145 124.24C65.272 120.07 63.3919 116.601 62.2402 113.74C61.0572 110.801 60.4002 108.069 61.1865 104.531C62.0296 100.738 63.3671 98.8295 65.6924 95.415C73.1768 93.0659 85.4772 91.8438 98.5723 91.8438Z" stroke="black" stroke-width="3.6871"/>
<path d="M65.8104 123.403C65.8104 123.403 86.1587 123.403 95.3607 119.549C102.509 112.226 100.5 93.8542 100.5 93.8542C100.5 93.8542 98.4911 112.226 105.639 119.549C115.484 123.403 135.189 123.403 135.189 123.403" stroke="black" stroke-width="2.82753" stroke-linecap="round" stroke-dasharray="5.35 5.35"/>
<path d="M71.9953 143.959C71.9953 143.959 89.417 150.382 100.5 150.382M129.154 143.959C129.154 143.959 111.682 149.892 100.5 150.382M100.5 93.8542C100.5 93.8542 100.5 128.307 100.5 150.382" stroke="black" stroke-width="2.82753" stroke-linecap="round" stroke-dasharray="5.35 5.35"/>
<path d="M100.5 145.243V160.66V176.077" stroke="black" stroke-width="2.82753" stroke-linecap="round" stroke-dasharray="5.35 5.35"/>
<path d="M128.026 2C128.026 2 151.616 9.61254 164.993 17.8429C176.24 24.7628 178.961 20.9734 187.89 31.0181C193.539 37.3736 196.679 44.8365 196.679 53.3398C196.679 63.9017 194.586 73.2966 194.586 81.7999C194.586 90.3031 198.007 115.846 199 124.036M175.555 139.305C166.74 136.593 168.046 126.885 164.993 118.181C160.841 106.344 160.926 84.4229 160.646 86.4956C160.366 88.5683 159.712 102.589 159.712 112.9C159.712 121.15 159.331 122.301 158.314 128.743C157.297 135.185 154.431 139.305 154.431 144.586C154.431 165.71 156.048 151.145 150.767 172.269C143.831 183.506 128.103 188.54 128.103 188.54M78.1268 188.54C78.1268 188.54 55.3871 183.587 52.5575 172.269C47.2765 151.145 48.8117 165.71 48.8117 144.586C48.8117 139.305 47.5037 133.151 46.1475 128.743C42.8977 118.181 43.5307 121.15 43.5307 112.9C43.5307 102.589 43.8407 88.006 43.5307 86.4956C43.2359 85.0593 42.4018 106.344 38.2498 118.181C35.1971 126.885 36.5031 136.593 27.6878 139.305M2 124.036C3.02321 115.594 6.56395 90.3031 6.56395 81.7999C6.56395 73.2966 4.85249 66.8654 4.85249 58.3621C4.85249 49.8589 8.04875 42.3968 12.107 34.9244C18.4094 23.3199 27.0025 24.7628 38.2498 17.8429C51.627 9.61254 75.2165 2 75.2165 2" stroke="black" stroke-width="3.22137"/>
<path d="M49.2507 20.761C54.1153 19.6089 60.5523 21.0703 65.9802 22.969C68.6532 23.904 71.0063 24.9175 72.6912 25.6975C72.699 25.7011 72.7068 25.7046 72.7146 25.7083C72.697 25.7165 72.6796 25.7253 72.6619 25.7336C70.9354 26.5469 68.5599 27.7241 65.9646 29.1838C60.823 32.0758 54.6297 36.176 50.9998 40.843C48.7118 43.7847 47.7055 46.5731 46.7693 49.1829C45.833 51.793 44.9688 54.2169 43.0154 56.804C38.5388 62.7324 35.6596 66.0882 29.1902 69.1331C27.0302 70.1496 23.9823 70.9206 21.3933 71.4407C20.115 71.6975 18.9779 71.8882 18.1609 72.0139C18.1099 72.0218 18.0599 72.0281 18.0115 72.0354C17.8886 71.6442 17.7386 71.1581 17.573 70.592C17.1044 68.9903 16.5035 66.7549 15.9724 64.2219C14.8974 59.0943 14.1615 52.9763 15.2214 48.4065C16.9739 40.851 18.4547 36.0448 24.2625 31.677C26.1785 30.2361 27.9468 29.6288 29.9109 29.1194C31.8598 28.6139 34.1593 28.1781 36.7322 27.0598C39.4063 25.8975 41.3632 24.5427 43.1716 23.426C44.9875 22.3048 46.7521 21.3528 49.2507 20.761Z" fill="#3A5483" stroke="black" stroke-width="2.82343"/>
<path d="M154.151 20.761C149.286 19.6089 142.849 21.0703 137.422 22.969C134.749 23.904 132.395 24.9175 130.711 25.6975C130.703 25.7011 130.695 25.7046 130.687 25.7083C130.705 25.7165 130.722 25.7253 130.74 25.7336C132.466 26.5469 134.842 27.7241 137.437 29.1838C142.579 32.0758 148.772 36.176 152.402 40.843C154.69 43.7847 155.696 46.5731 156.632 49.1829C157.569 51.793 158.433 54.2169 160.386 56.804C164.863 62.7324 167.742 66.0882 174.212 69.1331C176.371 70.1496 179.419 70.9206 182.008 71.4407C183.287 71.6975 184.424 71.8882 185.241 72.0139C185.292 72.0218 185.342 72.0281 185.39 72.0354C185.513 71.6442 185.663 71.1581 185.829 70.592C186.297 68.9903 186.898 66.7549 187.429 64.2219C188.504 59.0943 189.24 52.9763 188.18 48.4065C186.428 40.851 184.947 36.0448 179.139 31.677C177.223 30.2361 175.455 29.6288 173.491 29.1194C171.542 28.6139 169.242 28.1781 166.67 27.0598C163.995 25.8975 162.039 24.5427 160.23 23.426C158.414 22.3048 156.65 21.3528 154.151 20.761Z" fill="#3A5483" stroke="black" stroke-width="2.82343"/>
</svg>
