<svg width="133" height="187" viewBox="0 0 133 187" fill="none" xmlns="http://www.w3.org/2000/svg">
<path d="M58.7691 68.4085L76.1108 53.1359C76.1108 53.1359 84.8757 47.4794 90.0382 49.5093C96.4851 52.0441 89.7429 57.2704 88.5117 62.1588C86.865 68.6971 84.7894 72.2281 81.4342 78.4748C77.8225 85.1992 76.0742 89.1489 70.471 95.2491C64.5214 101.726 55.3446 110.19 55.3446 110.19C55.3446 110.19 38.7189 125.555 32.0304 120.731C27.8132 117.69 34.2017 111.363 34.2017 111.363L44.3177 89.4083L58.7691 68.4085Z" fill="#FF0000"/>
<path d="M94.0908 2C94.4024 2.24615 94.8389 2.59229 95.374 3.01953C96.5099 3.92648 98.0883 5.19893 99.8594 6.6582C103.415 9.58766 107.698 13.2327 110.734 16.1904C117.24 22.5262 121.028 25.8358 125.287 32.5977C127.486 36.0878 128.778 37.8513 129.723 40.9531L129.907 41.5928C130.544 43.9232 130.907 45.6337 130.949 47.2773C130.99 48.8817 130.725 50.5244 129.954 52.6719C129.362 54.3199 128.58 55.5439 127.595 56.8145C127.087 57.4687 126.547 58.1093 125.93 58.8564C125.323 59.591 124.665 60.4 123.981 61.3271C117.815 69.6908 107.543 79.6113 98.7178 87.5049C94.3229 91.436 90.3185 94.837 87.4131 97.2549C85.9608 98.4635 84.7834 99.4257 83.9707 100.085C83.5645 100.414 83.2492 100.668 83.0361 100.839C82.9298 100.924 82.849 100.989 82.7949 101.032C82.768 101.054 82.7478 101.07 82.7344 101.081C82.7277 101.086 82.722 101.09 82.7188 101.093L82.7148 101.097L82.6865 101.118L82.6592 101.142L83.959 102.662C82.7318 101.226 82.6632 101.147 82.6592 101.143L82.6582 101.144C82.6574 101.144 82.6558 101.145 82.6543 101.146C82.6513 101.149 82.647 101.153 82.6416 101.157C82.6304 101.167 82.614 101.181 82.5928 101.199C82.5502 101.236 82.4876 101.29 82.4062 101.36C82.2432 101.501 82.0038 101.709 81.6982 101.978C81.0872 102.514 80.2088 103.295 79.1318 104.273C76.9784 106.23 74.028 108.983 70.8408 112.173C64.5156 118.502 57.0781 126.722 53.1963 133.883C49.8163 140.118 46.7963 144.276 46.2979 151.659C46.1146 154.374 46.1407 156.63 46.5332 158.902C46.9258 161.175 47.6689 163.37 48.8232 165.984C50.5158 169.818 51.4984 172.611 55.5938 176.134C56.6647 177.055 57.5553 177.777 58.2637 178.359C58.9916 178.958 59.4857 179.376 59.8555 179.745C60.2065 180.096 60.3881 180.347 60.5059 180.58C60.57 180.707 60.6279 180.858 60.6816 181.055C60.6042 181.215 60.5379 181.363 60.4805 181.496C60.3275 181.85 60.2779 181.979 60.2012 182.121C60.1514 182.213 60.1143 182.262 60.0605 182.313C59.9962 182.374 59.8547 182.489 59.5488 182.645C58.6572 183.099 58.1123 183.422 57.7344 183.652C57.4806 183.807 57.3808 183.868 57.3447 183.89C57.3023 183.896 57.1923 183.913 56.959 183.932C56.4675 183.971 55.9563 183.995 54.8047 184.081C50.9318 184.372 50.6762 184.347 46.7646 184.08C42.1391 183.764 39.6868 183.837 36.0605 182.542C31.8251 181.03 30.7838 179.319 27.4395 176.259C24.9409 173.972 23.6544 171.971 22.4785 169.825C21.3009 167.676 20.1242 165.139 17.9834 162.245C14.0858 156.976 11.9191 154.237 10.9023 149.606C10.8844 149.235 10.9091 149.054 10.9277 148.972C10.9413 148.912 10.9574 148.866 11.0303 148.756C11.1631 148.555 11.2642 148.447 11.5986 148.003C11.886 147.621 12.2213 147.141 12.5771 146.493C13.5385 144.743 14.3673 143.47 15.9629 142.216C19.888 139.13 20.5925 138.309 24.8984 135.726L25.4844 135.375L25.7324 134.738C29.2853 125.633 31.4496 117.969 36.2373 107.432C41.2225 96.46 43.6184 90.3647 50.6357 80.1455C55.9572 72.3959 58.2584 68.0423 65.7061 61.5459C69.4231 58.3036 71.1585 56.5102 75.6133 54.0977C76.9546 53.3713 78.8537 52.5333 80.4639 51.8604C81.2592 51.528 81.9669 51.2427 82.4756 51.041C82.7298 50.9402 82.9345 50.861 83.0742 50.8066C83.1439 50.7795 83.1975 50.758 83.2334 50.7441C83.2513 50.7372 83.2646 50.7319 83.2734 50.7285C83.2777 50.7269 83.2812 50.7264 83.2832 50.7256L83.2852 50.7246H83.2861L87.9844 48.9258L83.334 47.0078L83.333 47.0068L83.3311 47.0059C83.329 47.005 83.3255 47.0037 83.3213 47.002C83.3129 46.9985 83.2999 46.9932 83.2832 46.9863C83.2498 46.9725 83.2001 46.9518 83.1348 46.9248C83.0035 46.8705 82.8088 46.7906 82.5576 46.6865C82.055 46.4782 81.3241 46.1745 80.4131 45.7949C78.5911 45.0357 76.0478 43.9716 73.1631 42.751C67.3882 40.3075 60.2632 37.2459 54.8154 34.7549C44.1899 29.8964 38.2133 27.2515 28.2891 21.8896C26.0012 20.6536 23.8199 19.6304 21.7744 18.6973C19.7102 17.7556 17.8272 16.9238 16.0352 16.0322C12.4897 14.2682 9.50464 12.3639 6.9375 9.33887L6.78809 9.16309L6.60254 9.02539L6.26953 8.76367C4.63922 7.40375 3.55875 5.33623 2.87695 3.38477C2.70605 2.89558 2.56556 2.42781 2.4502 2H94.0908Z" stroke="black" stroke-width="4"/>
<path d="M30.8296 120.59C30.8296 120.59 35.8576 122.188 40.4639 120.59C46.3568 118.545 50.0828 114.689 55.397 110.408C64.3363 103.207 68.0345 98.4251 74.1838 90.0451C79.1206 83.3176 81.7821 75.8404 85.2633 68.7267C88.2217 62.6813 89.117 60.4541 92.0073 54.4087C93.9024 50.4447 86.2267 48.6813 86.2267 48.6813" stroke="black" stroke-width="2.5" stroke-linecap="round" stroke-dasharray="3.88 3.88"/>
</svg>
