<svg width="222" height="141" viewBox="0 0 222 141" fill="none" xmlns="http://www.w3.org/2000/svg">
<path d="M105.26 2.00098L110.76 2.50098L110.836 2.51172L115.631 3.49609H115.632L119.75 4.25586L119.813 4.27051L123.803 5.40332L123.865 5.42383L127.691 6.91211L127.752 6.93848L131.383 8.76172L131.44 8.79395L134.845 10.9297L134.899 10.9678L138.05 13.3906C138.067 13.404 138.085 13.4186 138.101 13.4336L140.973 16.1162C140.989 16.1313 141.005 16.1475 141.02 16.1641L143.591 19.0771C143.606 19.0938 143.62 19.1119 143.633 19.1299L145.886 22.2412C145.899 22.2593 145.912 22.2786 145.923 22.2979L147.842 25.5762L147.873 25.6357L149.446 29.0459C149.456 29.0664 149.464 29.0881 149.472 29.1094L150.691 32.6182L150.71 32.6836L151.57 36.2559L151.583 36.3232L152.084 39.9248L152.09 39.9932L152.232 43.5889C152.233 43.6115 152.233 43.6346 152.231 43.6572L152.022 47.2158C152.021 47.2383 152.018 47.2609 152.015 47.2832L151.462 50.7705C151.458 50.7928 151.454 50.8151 151.448 50.8369L150.563 54.2217C150.558 54.2434 150.551 54.265 150.543 54.2861L149.342 57.5381C149.334 57.5594 149.325 57.5811 149.315 57.6016L147.815 60.6934C147.806 60.7137 147.794 60.7336 147.782 60.7529L146.004 63.6592C145.992 63.6783 145.979 63.6969 145.966 63.7148L143.931 66.4121C143.917 66.4301 143.902 66.4473 143.887 66.4639L141.62 68.9307C141.605 68.9471 141.589 68.9636 141.572 68.9785L139.099 71.1963C139.074 71.2183 139.048 71.2385 139.021 71.2568L83.583 108.273C83.5475 108.297 83.5099 108.318 83.4707 108.335L79.3955 110.08C79.3686 110.092 79.3407 110.101 79.3125 110.109L76.6592 110.864L76.6465 110.867L72.875 111.867C72.8613 111.871 72.8469 111.874 72.833 111.877L70.333 112.377C70.3222 112.379 70.3107 112.381 70.2998 112.383L66.2998 112.984C66.2879 112.986 66.2756 112.988 66.2637 112.989L62.1406 113.388C62.1187 113.39 62.0963 113.391 62.0742 113.391H54.1963C54.1658 113.391 54.1347 113.389 54.1045 113.385L51.1045 112.986C51.0807 112.983 51.0565 112.979 51.0332 112.974L48.5332 112.371C48.5231 112.369 48.512 112.366 48.502 112.363L45.0527 111.363C45.014 111.352 44.9757 111.337 44.9395 111.319L41.8887 109.819C41.8716 109.811 41.8542 109.802 41.8379 109.792L39.3379 108.292C39.3216 108.282 39.3055 108.271 39.29 108.26L36.5088 106.26C36.4877 106.245 36.4675 106.227 36.4482 106.21L33.6885 103.71C33.6647 103.688 33.6417 103.664 33.6211 103.64L31.6611 101.287C31.656 101.281 31.6504 101.274 31.6455 101.268L29.6562 98.7012C29.6503 98.6935 29.6443 98.6847 29.6387 98.6768L27.6279 95.8408C27.6035 95.8062 27.5822 95.7689 27.5645 95.7305L26.0645 92.4863C26.0538 92.4632 26.0442 92.4392 26.0361 92.415L25.0361 89.415C25.0249 89.3812 25.0157 89.3457 25.0098 89.3105L24.5098 86.3438C24.5034 86.3056 24.5 86.2662 24.5 86.2275V83.6943C24.5 83.6486 24.5047 83.6025 24.5137 83.5576L25.0137 81.0576L25.0498 80.9355L26.0498 78.4355L26.0889 78.3535C26.1039 78.3268 26.1212 78.3009 26.1396 78.2764L27.6396 76.2764L27.6875 76.2188C27.7047 76.2004 27.7231 76.1824 27.7422 76.166H27.7432L27.75 76.1592C27.7543 76.1556 27.7603 76.1507 27.7676 76.1445C27.7825 76.132 27.8042 76.1147 27.8311 76.0928C27.8848 76.0488 27.9618 75.9865 28.0576 75.9131C28.2487 75.7667 28.5187 75.5707 28.834 75.3721C29.4321 74.9953 30.3191 74.5274 31.1729 74.498C31.6617 74.4813 32.2988 74.4411 32.8574 74.5537C33.4697 74.6773 34.072 74.9993 34.418 75.7275C34.5681 76.0436 34.5969 76.382 34.5869 76.6631C34.5766 76.9499 34.523 77.2295 34.4629 77.4639C34.4021 77.7008 34.3299 77.91 34.2734 78.0586C34.2582 78.0986 34.2432 78.1345 34.2305 78.166L34.2051 80.0273L34.4023 82.0098L34.8301 84.002L35.4883 85.9756L36.375 87.9062L37.4932 89.7861L38.8389 91.5928L40.4033 93.3008L42.1816 94.8984L44.1533 96.3555L46.3213 97.666L48.6357 98.7949L51.1064 99.7402L53.7188 100.489L56.4277 101.021L59.2158 101.326L62.0635 101.4L64.9375 101.233L67.8135 100.824L70.6621 100.169L73.4639 99.2666L76.1689 98.1289L78.7676 96.7529L81.2314 95.1465L83.5146 93.3359L85.6162 91.3135L87.498 89.1074L89.1436 86.7305L90.5322 84.1982L91.6377 81.5518L92.4551 78.7861L92.9668 75.9355L93.1592 73.0391L93.0273 70.1006L92.5645 67.1553L91.7705 64.2432L90.6445 61.375L89.1826 58.5742L87.4102 55.8965L85.3125 53.335L82.9316 50.9502L80.2607 48.7441L77.3281 46.749L74.1533 44.9883L70.7646 43.4844L67.2129 42.2627L63.4814 41.3262L59.6367 40.6992L55.7051 40.3906L51.7236 40.4082L47.7275 40.7598L43.7588 41.4463L39.8604 42.4629L36.0391 43.8164L32.3711 45.4873L28.8779 47.4697L25.6006 49.7451L22.5547 52.3105L19.7959 55.1289L17.3438 58.1846L15.2227 61.457L13.4629 64.9102L12.083 68.5225L11.1006 72.2676L10.5352 76.0889L10.3936 79.9805L10.6855 83.8955L11.4131 87.7842L12.5791 91.6367L14.1797 95.4062L16.2021 99.0488L18.6406 102.54L21.4756 105.838L24.6914 108.915L28.2539 111.728L32.1475 114.259L36.3564 116.483L36.3691 116.49L40.9854 119.059L46.1621 120.976L50.2695 121.687L65.0322 122.498H65.0332L132.534 124.99L191.521 93.3389C190.284 93.3153 188.664 93.2858 186.769 93.25C182.291 93.1654 176.275 93.0522 170.118 92.9395C157.799 92.7138 144.934 92.4883 142.696 92.4883C142.361 92.4881 142.073 92.2493 142.012 91.9199C141.297 88.0999 141.525 85.8005 142.006 82.0332L142.033 81.9072C142.124 81.6248 142.39 81.426 142.696 81.4258C144.965 81.4258 163.994 82.3214 182.415 83.2148C191.634 83.662 200.713 84.109 207.487 84.4443C210.874 84.612 213.685 84.7518 215.649 84.8496C216.631 84.8985 217.402 84.9377 217.927 84.9639C218.189 84.9769 218.39 84.9864 218.525 84.9932C218.593 84.9965 218.645 84.9993 218.68 85.001C218.696 85.0018 218.709 85.0025 218.718 85.0029C218.722 85.0031 218.725 85.0037 218.728 85.0039H218.73C218.731 85.008 218.728 85.0591 218.696 85.6992L218.731 85.0039C219.036 85.0193 219.296 85.2316 219.371 85.5273C219.446 85.8235 219.32 86.1347 219.06 86.2939L133.06 138.789C132.942 138.861 132.805 138.895 132.667 138.89L132.696 138.194L132.666 138.89H132.652C132.642 138.889 132.626 138.889 132.606 138.888C132.566 138.886 132.504 138.883 132.425 138.88C132.265 138.873 132.028 138.864 131.719 138.851C131.1 138.825 130.191 138.786 129.034 138.737C126.719 138.64 123.406 138.499 119.417 138.327C111.439 137.983 100.752 137.515 89.9229 137.015C79.0935 136.515 68.1179 135.984 59.5625 135.515C55.2853 135.28 51.6092 135.061 48.8584 134.869C46.142 134.68 44.2564 134.514 43.6191 134.375C43.5805 134.367 43.5415 134.355 43.5049 134.34C41.7194 133.616 39.4756 132.61 37.6846 131.789C36.7878 131.378 36.0012 131.012 35.4395 130.748C35.1589 130.616 34.934 130.51 34.7793 130.437C34.7021 130.4 34.6411 130.372 34.6006 130.353C34.5807 130.343 34.565 130.336 34.5547 130.331C34.5498 130.329 34.5456 130.326 34.543 130.325C34.5419 130.325 34.5406 130.324 34.54 130.323H34.5391C34.5212 130.315 34.5024 130.305 34.4854 130.295L29.8545 127.579C29.8349 127.568 29.8153 127.554 29.7969 127.541L25.2861 124.258C25.27 124.246 25.2543 124.233 25.2393 124.22L21.4004 120.88L21.3936 120.874L17.5762 117.464C17.56 117.449 17.544 117.434 17.5293 117.418L14.0869 113.693C14.072 113.677 14.0573 113.66 14.0439 113.643L11.0029 109.643C10.9895 109.625 10.9765 109.606 10.9648 109.587L8.34863 105.352C8.33702 105.333 8.32618 105.313 8.31641 105.293L6.1416 100.864C6.13179 100.844 6.1221 100.824 6.11426 100.803L4.39551 96.2246C4.38765 96.2036 4.3808 96.1818 4.375 96.1602L3.12109 91.4766C3.11531 91.4548 3.11109 91.4323 3.10742 91.4102L2.32324 86.667C2.31957 86.6447 2.31692 86.6212 2.31543 86.5986L2.00098 81.8389C1.99951 81.8163 1.99927 81.7931 2 81.7705L2.15234 77.0391L2.1582 76.9707L2.76855 72.3105L2.78027 72.2432L3.83594 67.6953C3.84104 67.6734 3.84729 67.6512 3.85449 67.6299L5.33887 63.2363L5.36426 63.1729L7.25781 58.9697L7.28809 58.9092L9.56641 54.9346L9.60254 54.877L12.2393 51.1621C12.2522 51.1439 12.2666 51.1263 12.2812 51.1094L15.2461 47.6855L15.3213 47.6104L25.2451 39.1641L25.3125 39.1133C25.3357 39.098 25.3599 39.0838 25.3848 39.0713L98.3525 2.57129L98.4775 2.52344C98.5207 2.51145 98.5654 2.50348 98.6104 2.5L105.144 2L105.26 2.00098Z" fill="#A1BFFB"/>
<path d="M105.26 2.00098L105.441 0.00919015C105.386 0.00422467 105.331 0.00150805 105.277 0.00104718L105.26 2.00098ZM110.76 2.50098L111.039 0.520573C111.006 0.51597 110.974 0.512174 110.941 0.50919L110.76 2.50098ZM110.836 2.51172L111.238 0.552578C111.197 0.544214 111.156 0.537123 111.115 0.531315L110.836 2.51172ZM115.631 3.49609L115.229 5.45523C115.361 5.4824 115.496 5.49609 115.631 5.49609V3.49609ZM115.632 3.49609L115.995 1.52929C115.875 1.5072 115.754 1.49609 115.632 1.49609V3.49609ZM119.75 4.25586L120.2 2.30708C120.171 2.30043 120.142 2.29442 120.113 2.28905L119.75 4.25586ZM119.813 4.27051L120.36 2.34657C120.328 2.33749 120.296 2.3292 120.263 2.32173L119.813 4.27051ZM123.803 5.40332L124.426 3.50301C124.401 3.49461 124.375 3.48674 124.349 3.47939L123.803 5.40332ZM123.865 5.42383L124.59 3.55987C124.557 3.54684 124.523 3.53472 124.489 3.52351L123.865 5.42383ZM127.691 6.91211L128.49 5.07844C128.466 5.06786 128.441 5.05776 128.416 5.04815L127.691 6.91211ZM127.752 6.93848L128.649 5.15116C128.617 5.13481 128.584 5.11935 128.55 5.10481L127.752 6.93848ZM131.383 8.76172L132.359 7.0162C132.333 7.00169 132.307 6.98775 132.28 6.97441L131.383 8.76172ZM131.44 8.79395L132.503 7.09975C132.475 7.08192 132.446 7.06481 132.417 7.04843L131.44 8.79395ZM134.845 10.9297L135.988 9.28847C135.961 9.27018 135.935 9.25251 135.908 9.2355L134.845 10.9297ZM134.899 10.9678L136.119 9.3824C136.094 9.36319 136.068 9.34457 136.042 9.32656L134.899 10.9678ZM138.05 13.3906L139.269 11.8053L139.269 11.8052L138.05 13.3906ZM138.101 13.4336L139.466 11.972L139.464 11.9705L138.101 13.4336ZM140.973 16.1162L142.338 14.6547L142.338 14.6546L140.973 16.1162ZM141.02 16.1641L142.519 14.8406L142.517 14.8383L141.02 16.1641ZM143.591 19.0771L142.091 20.4007L142.092 20.4009L143.591 19.0771ZM143.633 19.1299L145.253 17.9569L145.252 17.9554L143.633 19.1299ZM145.886 22.2412L147.506 21.0683L147.506 21.0682L145.886 22.2412ZM145.923 22.2979L147.649 21.2875L147.648 21.2854L145.923 22.2979ZM147.842 25.5762L149.613 24.6471C149.599 24.6197 149.583 24.5926 149.568 24.5658L147.842 25.5762ZM147.873 25.6357L149.689 24.7979C149.675 24.7671 149.66 24.7367 149.644 24.7066L147.873 25.6357ZM149.446 29.0459L151.262 28.2082L151.262 28.2081L149.446 29.0459ZM149.472 29.1094L151.361 28.4527L151.36 28.4518L149.472 29.1094ZM150.691 32.6182L152.616 32.0725C152.605 32.0352 152.593 31.9981 152.581 31.9615L150.691 32.6182ZM150.71 32.6836L152.654 32.2153C152.648 32.1894 152.641 32.1636 152.634 32.1379L150.71 32.6836ZM151.57 36.2559L153.536 35.8856C153.53 35.8527 153.523 35.8201 153.515 35.7876L151.57 36.2559ZM151.583 36.3232L153.564 36.0477C153.56 36.016 153.554 35.9844 153.548 35.9529L151.583 36.3232ZM152.084 39.9248L154.077 39.754C154.074 39.719 154.07 39.6841 154.065 39.6493L152.084 39.9248ZM152.09 39.9932L154.088 39.9139C154.087 39.8834 154.085 39.8528 154.083 39.8224L152.09 39.9932ZM152.232 43.5889L150.234 43.6681L150.234 43.6681L152.232 43.5889ZM152.231 43.6572L154.228 43.7745L154.228 43.7732L152.231 43.6572ZM152.022 47.2158L154.019 47.3347L154.019 47.3331L152.022 47.2158ZM152.015 47.2832L153.99 47.5963L153.99 47.5953L152.015 47.2832ZM151.462 50.7705L153.437 51.0849L153.437 51.0836L151.462 50.7705ZM151.448 50.8369L153.383 51.3427L153.384 51.3411L151.448 50.8369ZM150.563 54.2217L152.498 54.7284L152.498 54.7275L150.563 54.2217ZM150.543 54.2861L152.419 54.9791L152.42 54.9778L150.543 54.2861ZM149.342 57.5381L147.466 56.8451L147.466 56.8452L149.342 57.5381ZM149.315 57.6016L151.115 58.4746L151.115 58.4741L149.315 57.6016ZM147.815 60.6934L146.016 59.8204L146.016 59.8204L147.815 60.6934ZM147.782 60.7529L146.076 59.7089L146.076 59.7091L147.782 60.7529ZM146.004 63.6592L147.71 64.7032L147.71 64.7031L146.004 63.6592ZM145.966 63.7148L147.562 64.9195L147.563 64.9184L145.966 63.7148ZM143.931 66.4121L145.527 67.6168L145.527 67.6167L143.931 66.4121ZM143.887 66.4639L142.414 65.1105L142.414 65.1107L143.887 66.4639ZM141.62 68.9307L143.093 70.2841L143.093 70.2839L141.62 68.9307ZM141.572 68.9785L142.907 70.4676L142.908 70.4674L141.572 68.9785ZM139.099 71.1963L140.433 72.6857L140.434 72.6854L139.099 71.1963ZM139.021 71.2568L137.91 69.5935L137.91 69.5935L139.021 71.2568ZM83.583 108.273L84.6932 109.937L84.6936 109.937L83.583 108.273ZM83.4707 108.335L84.258 110.173L84.2583 110.173L83.4707 108.335ZM79.3955 110.08L80.1811 111.919L80.1828 111.919L79.3955 110.08ZM79.3125 110.109L79.8598 112.033L79.8606 112.033L79.3125 110.109ZM76.6592 110.864L77.1089 112.813C77.1416 112.805 77.1742 112.797 77.2065 112.788L76.6592 110.864ZM76.6465 110.867L76.1968 108.918C76.1757 108.923 76.1548 108.928 76.1339 108.934L76.6465 110.867ZM72.875 111.867L73.3866 113.801L73.3876 113.8L72.875 111.867ZM72.833 111.877L73.2252 113.838L73.2256 113.838L72.833 111.877ZM70.333 112.377L70.7244 114.338L70.7252 114.338L70.333 112.377ZM70.2998 112.383L70.5972 114.361L70.5973 114.361L70.2998 112.383ZM66.2998 112.984L66.0024 111.007L66.0022 111.007L66.2998 112.984ZM66.2637 112.989L66.456 114.98L66.457 114.98L66.2637 112.989ZM62.1406 113.388L62.3303 115.379L62.333 115.378L62.1406 113.388ZM62.0742 113.391L62.0742 115.391L62.0746 115.391L62.0742 113.391ZM54.1963 113.391L54.195 115.391H54.1963V113.391ZM54.1045 113.385L53.8412 115.367L53.8413 115.367L54.1045 113.385ZM51.1045 112.986L50.8399 114.969L50.8412 114.969L51.1045 112.986ZM51.0332 112.974L50.5646 114.918L50.5652 114.918L51.0332 112.974ZM48.5332 112.371L49.0018 110.427L49.0008 110.427L48.5332 112.371ZM48.502 112.363L47.945 114.284L47.9451 114.284L48.502 112.363ZM45.0527 111.363L44.4937 113.284L44.4958 113.284L45.0527 111.363ZM44.9395 111.319L45.822 109.525L45.8219 109.525L44.9395 111.319ZM41.8887 109.819L41.0045 111.613L41.0062 111.614L41.8887 109.819ZM41.8379 109.792L40.8089 111.507L40.8092 111.507L41.8379 109.792ZM39.3379 108.292L38.3065 110.006L38.3089 110.007L39.3379 108.292ZM39.29 108.26L38.1224 109.884L38.1229 109.884L39.29 108.26ZM36.5088 106.26L35.3389 107.882L35.3411 107.884L36.5088 106.26ZM36.4482 106.21L37.7912 104.728L37.791 104.728L36.4482 106.21ZM33.6885 103.71L32.343 105.19L32.3457 105.192L33.6885 103.71ZM33.6211 103.64L35.1578 102.36L35.1577 102.359L33.6211 103.64ZM31.6611 101.287L30.1231 102.566L30.1245 102.567L31.6611 101.287ZM31.6455 101.268L30.0648 102.493L30.0648 102.493L31.6455 101.268ZM29.6562 98.7012L28.0728 99.9229L28.0755 99.9264L29.6562 98.7012ZM29.6387 98.6768L28.0072 99.8335L28.0072 99.8336L29.6387 98.6768ZM27.6279 95.8408L25.9947 96.9952L25.9964 96.9976L27.6279 95.8408ZM27.5645 95.7305L25.7491 96.5698L25.7491 96.5699L27.5645 95.7305ZM26.0645 92.4863L24.2484 93.3241L24.2491 93.3257L26.0645 92.4863ZM26.0361 92.415L24.1388 93.0475L24.1393 93.0491L26.0361 92.415ZM25.0361 89.415L23.1384 90.0464L23.1388 90.0475L25.0361 89.415ZM25.0098 89.3105L23.0376 89.6429L23.0378 89.6443L25.0098 89.3105ZM24.5098 86.3438L22.5374 86.6751L22.5376 86.6761L24.5098 86.3438ZM24.5 83.6943L22.5 83.6934V83.6943H24.5ZM24.5137 83.5576L22.5525 83.1654L24.5137 83.5576ZM25.0137 81.0576L23.0959 80.49C23.0788 80.5478 23.0643 80.6063 23.0525 80.6654L25.0137 81.0576ZM25.0498 80.9355L23.1929 80.1928C23.1699 80.2502 23.1496 80.3086 23.1321 80.3679L25.0498 80.9355ZM26.0498 78.4355L24.2441 77.5757C24.2258 77.6142 24.2087 77.6532 24.1929 77.6928L26.0498 78.4355ZM26.0889 78.3535L24.3447 77.3747C24.3229 77.4137 24.3023 77.4533 24.2831 77.4936L26.0889 78.3535ZM26.1396 78.2764L24.5396 77.0764L24.5396 77.0764L26.1396 78.2764ZM27.6396 76.2764L26.1011 74.9986C26.08 75.024 26.0595 75.0499 26.0396 75.0764L27.6396 76.2764ZM27.6875 76.2188L26.2263 74.8531C26.1997 74.8816 26.1739 74.9109 26.1489 74.9409L27.6875 76.2188ZM27.7422 76.166V74.166C27.2633 74.166 26.8002 74.3379 26.4373 74.6504L27.7422 76.166ZM27.7432 76.166V78.166C28.2736 78.166 28.7823 77.9553 29.1574 77.5802L27.7432 76.166ZM27.75 76.1592L26.4544 74.6355C26.4134 74.6704 26.3739 74.7069 26.3358 74.745L27.75 76.1592ZM27.7676 76.1445L29.0537 77.6762L29.0538 77.6761L27.7676 76.1445ZM27.8311 76.0928L29.0967 77.6414L29.0967 77.6413L27.8311 76.0928ZM28.0576 75.9131L26.8413 74.3255L26.8412 74.3255L28.0576 75.9131ZM28.834 75.3721L27.7679 73.6799L27.7678 73.6799L28.834 75.3721ZM31.1729 74.498L31.1045 72.4992L31.1042 72.4992L31.1729 74.498ZM32.8574 74.5537L33.2532 72.5933L33.2527 72.5932L32.8574 74.5537ZM34.418 75.7275L36.2246 74.8697L36.2244 74.8692L34.418 75.7275ZM34.5869 76.6631L36.5856 76.7347L36.5856 76.7344L34.5869 76.6631ZM34.4629 77.4639L36.4001 77.961L36.4002 77.9608L34.4629 77.4639ZM34.2734 78.0586L36.1431 78.7688L36.1431 78.7687L34.2734 78.0586ZM34.2305 78.166L32.3762 77.4166C32.2834 77.6462 32.234 77.8911 32.2307 78.1387L34.2305 78.166ZM34.2051 80.0273L32.2053 80.0001C32.2042 80.0753 32.2075 80.1505 32.2149 80.2254L34.2051 80.0273ZM34.4023 82.0098L32.4122 82.2078C32.4196 82.2823 32.4312 82.3564 32.4469 82.4296L34.4023 82.0098ZM34.8301 84.002L32.8746 84.4218C32.8901 84.4938 32.9095 84.5649 32.9328 84.6347L34.8301 84.002ZM35.4883 85.9756L33.591 86.6083C33.6139 86.6771 33.6406 86.7445 33.6708 86.8103L35.4883 85.9756ZM36.375 87.9062L34.5575 88.741C34.587 88.8052 34.6199 88.8679 34.6561 88.9287L36.375 87.9062ZM37.4932 89.7861L35.7743 90.8086C35.8096 90.8679 35.8479 90.9254 35.8892 90.9809L37.4932 89.7861ZM38.8389 91.5928L37.2349 92.7875C37.2753 92.8417 37.3184 92.8938 37.364 92.9436L38.8389 91.5928ZM40.4033 93.3008L38.9285 94.6517C38.9723 94.6995 39.0184 94.7452 39.0667 94.7885L40.4033 93.3008ZM42.1816 94.8984L40.845 96.3862C40.8924 96.4288 40.9418 96.4691 40.993 96.5069L42.1816 94.8984ZM44.1533 96.3555L42.9647 97.9639C43.0144 98.0007 43.0658 98.0351 43.1187 98.067L44.1533 96.3555ZM46.3213 97.666L45.2866 99.3776C45.3379 99.4086 45.3906 99.4373 45.4445 99.4636L46.3213 97.666ZM48.6357 98.7949L47.759 100.592C47.8119 100.618 47.866 100.642 47.9211 100.663L48.6357 98.7949ZM51.1064 99.7402L50.3918 101.608C50.4454 101.629 50.5 101.647 50.5552 101.663L51.1064 99.7402ZM53.7188 100.489L53.1675 102.412C53.2224 102.428 53.2779 102.441 53.3339 102.452L53.7188 100.489ZM56.4277 101.021L56.0429 102.983C56.0981 102.994 56.1538 103.002 56.2098 103.009L56.4277 101.021ZM59.2158 101.326L58.9979 103.314C59.053 103.32 59.1083 103.324 59.1637 103.325L59.2158 101.326ZM62.0635 101.4L62.0114 103.4C62.0674 103.401 62.1235 103.4 62.1795 103.397L62.0635 101.4ZM64.9375 101.233L65.0535 103.23C65.109 103.227 65.1642 103.221 65.2192 103.213L64.9375 101.233ZM67.8135 100.824L68.0952 102.804C68.1511 102.796 68.2067 102.786 68.2618 102.773L67.8135 100.824ZM70.6621 100.169L71.1105 102.118C71.166 102.105 71.221 102.09 71.2752 102.073L70.6621 100.169ZM73.4639 99.2666L74.077 101.17C74.1319 101.153 74.186 101.133 74.2392 101.11L73.4639 99.2666ZM76.1689 98.1289L76.9443 99.9725C76.9989 99.9495 77.0525 99.9241 77.1048 99.8964L76.1689 98.1289ZM78.7676 96.7529L79.7035 98.5204C79.757 98.4921 79.8092 98.4614 79.8599 98.4283L78.7676 96.7529ZM81.2314 95.1465L82.3238 96.8218C82.3755 96.7881 82.4257 96.752 82.4741 96.7136L81.2314 95.1465ZM83.5146 93.3359L84.7573 94.903C84.8074 94.8633 84.8555 94.8213 84.9015 94.777L83.5146 93.3359ZM85.6162 91.3135L87.003 92.7546C87.0503 92.7091 87.0953 92.6613 87.1378 92.6115L85.6162 91.3135ZM87.498 89.1074L89.0196 90.4054C89.0632 90.3543 89.1042 90.301 89.1425 90.2458L87.498 89.1074ZM89.1436 86.7305L90.788 87.8689C90.8274 87.8119 90.8639 87.7529 90.8972 87.6922L89.1436 86.7305ZM90.5322 84.1982L92.2858 85.1599C92.3198 85.098 92.3505 85.0343 92.3777 84.9691L90.5322 84.1982ZM91.6377 81.5518L93.4832 82.3226C93.511 82.256 93.5352 82.1879 93.5557 82.1186L91.6377 81.5518ZM92.4551 78.7861L94.3731 79.353C94.3938 79.2828 94.4107 79.2115 94.4236 79.1395L92.4551 78.7861ZM92.9668 75.9355L94.9353 76.2889C94.9484 76.2159 94.9575 76.1421 94.9624 76.0681L92.9668 75.9355ZM93.1592 73.0391L95.1548 73.1716C95.1597 73.0976 95.1605 73.0235 95.1572 72.9494L93.1592 73.0391ZM93.0273 70.1006L95.0253 70.0109C95.022 69.937 95.0146 69.8632 95.0031 69.7901L93.0273 70.1006ZM92.5645 67.1553L94.5402 66.8448C94.5288 66.7721 94.5134 66.7002 94.494 66.6292L92.5645 67.1553ZM91.7705 64.2432L93.7001 63.7171C93.6812 63.6477 93.6585 63.5793 93.6322 63.5123L91.7705 64.2432ZM90.6445 61.375L92.5062 60.6441C92.4801 60.5777 92.4505 60.5128 92.4175 60.4496L90.6445 61.375ZM89.1826 58.5742L90.9556 57.6488C90.9236 57.5875 90.8885 57.5279 90.8504 57.4703L89.1826 58.5742ZM87.4102 55.8965L89.0779 54.7926C89.0406 54.7362 89.0004 54.6817 88.9575 54.6293L87.4102 55.8965ZM85.3125 53.335L86.8599 52.0678C86.8183 52.017 86.7742 51.9683 86.7279 51.9219L85.3125 53.335ZM82.9316 50.9502L84.347 49.5371C84.3019 49.4919 84.2546 49.4489 84.2053 49.4082L82.9316 50.9502ZM80.2607 48.7441L81.5344 47.2021C81.4866 47.1626 81.437 47.1254 81.3857 47.0905L80.2607 48.7441ZM77.3281 46.749L78.4531 45.0954C78.4029 45.0613 78.3512 45.0294 78.2981 45L77.3281 46.749ZM74.1533 44.9883L75.1233 43.2393C75.0716 43.2106 75.0187 43.1842 74.9646 43.1602L74.1533 44.9883ZM70.7646 43.4844L71.5759 41.6563C71.5233 41.6329 71.4696 41.6119 71.4152 41.5931L70.7646 43.4844ZM67.2129 42.2627L67.8634 40.3714C67.8096 40.3529 67.755 40.3367 67.6998 40.3229L67.2129 42.2627ZM63.4814 41.3262L63.9683 39.3863C63.9138 39.3727 63.8588 39.3613 63.8033 39.3522L63.4814 41.3262ZM59.6367 40.6992L59.9586 38.7253C59.9038 38.7164 59.8486 38.7097 59.7932 38.7054L59.6367 40.6992ZM55.7051 40.3906L55.8616 38.3968C55.8066 38.3924 55.7514 38.3904 55.6962 38.3906L55.7051 40.3906ZM51.7236 40.4082L51.7148 38.4082C51.6592 38.4085 51.6037 38.411 51.5484 38.4159L51.7236 40.4082ZM47.7275 40.7598L47.5523 38.7675C47.4968 38.7723 47.4415 38.7795 47.3866 38.789L47.7275 40.7598ZM43.7588 41.4463L43.4179 39.4756C43.3628 39.4851 43.3082 39.4969 43.2541 39.511L43.7588 41.4463ZM39.8604 42.4629L39.3557 40.5276C39.3006 40.542 39.2462 40.5587 39.1926 40.5777L39.8604 42.4629ZM36.0391 43.8164L35.3713 41.9312C35.3166 41.9505 35.2628 41.9723 35.21 41.9964L36.0391 43.8164ZM32.3711 45.4873L31.542 43.6673C31.4881 43.6918 31.4354 43.7187 31.384 43.7479L32.3711 45.4873ZM28.8779 47.4697L27.8908 45.7303C27.8382 45.7602 27.787 45.7924 27.7373 45.8269L28.8779 47.4697ZM25.6006 49.7451L24.46 48.1022C24.409 48.1377 24.3597 48.1754 24.3122 48.2154L25.6006 49.7451ZM22.5547 52.3105L21.2663 50.7808C21.2173 50.8221 21.1703 50.8657 21.1255 50.9115L22.5547 52.3105ZM19.7959 55.1289L18.3667 53.7299C18.3207 53.7768 18.2771 53.8259 18.2361 53.8771L19.7959 55.1289ZM17.3438 58.1846L15.7839 56.9328C15.7417 56.9854 15.7022 57.0401 15.6655 57.0968L17.3438 58.1846ZM15.2227 61.457L13.5444 60.3692C13.5067 60.4273 13.4721 60.4873 13.4407 60.5489L15.2227 61.457ZM13.4629 64.9102L11.6809 64.002C11.6487 64.0653 11.6199 64.1302 11.5946 64.1965L13.4629 64.9102ZM12.083 68.5225L10.2147 67.8088C10.1889 67.8763 10.1668 67.9451 10.1485 68.015L12.083 68.5225ZM11.1006 72.2676L9.16604 71.7601C9.14749 71.8308 9.13283 71.9025 9.12213 71.9748L11.1006 72.2676ZM10.5352 76.0889L8.5567 75.7961C8.54591 75.869 8.53916 75.9425 8.53648 76.0161L10.5352 76.0889ZM10.3936 79.9805L8.39488 79.9077C8.39219 79.9816 8.3936 80.0555 8.39909 80.1292L10.3936 79.9805ZM10.6855 83.8955L8.69109 84.0443C8.69657 84.1177 8.70611 84.1909 8.71966 84.2633L10.6855 83.8955ZM11.4131 87.7842L9.4472 88.152C9.46056 88.2234 9.4778 88.294 9.49884 88.3635L11.4131 87.7842ZM12.5791 91.6367L10.6649 92.2161C10.6857 92.2848 10.7101 92.3523 10.7382 92.4184L12.5791 91.6367ZM14.1797 95.4062L12.3388 96.1879C12.3662 96.2526 12.397 96.3157 12.4311 96.3771L14.1797 95.4062ZM16.2021 99.0488L14.4536 100.02C14.4869 100.08 14.5232 100.138 14.5625 100.194L16.2021 99.0488ZM18.6406 102.54L17.001 103.685C17.0393 103.74 17.0804 103.793 17.124 103.844L18.6406 102.54ZM21.4756 105.838L19.9589 107.142C20.0013 107.191 20.046 107.238 20.0929 107.283L21.4756 105.838ZM24.6914 108.915L23.3087 110.36C23.3545 110.404 23.4024 110.446 23.4521 110.485L24.6914 108.915ZM28.2539 111.728L27.0146 113.297C27.0627 113.335 27.1125 113.371 27.1638 113.404L28.2539 111.728ZM32.1475 114.259L31.0574 115.936C31.1078 115.968 31.1597 115.999 31.2129 116.027L32.1475 114.259ZM36.3564 116.483L37.3046 114.722C37.3001 114.72 37.2956 114.718 37.291 114.715L36.3564 116.483ZM36.3691 116.49L37.3415 114.743C37.3335 114.738 37.3254 114.734 37.3173 114.729L36.3691 116.49ZM40.9854 119.059L40.013 120.806C40.1022 120.856 40.1951 120.899 40.2908 120.934L40.9854 119.059ZM46.1621 120.976L45.4676 122.851C45.5822 122.894 45.7005 122.925 45.821 122.946L46.1621 120.976ZM50.2695 121.687L49.9284 123.657C50.005 123.67 50.0822 123.679 50.1598 123.684L50.2695 121.687ZM65.0322 122.498L64.9224 124.495C64.959 124.497 64.9956 124.498 65.0322 124.498V122.498ZM65.0332 122.498L65.107 120.499C65.0824 120.499 65.0578 120.498 65.0332 120.498V122.498ZM132.534 124.99L132.46 126.989C132.815 127.002 133.167 126.92 133.48 126.753L132.534 124.99ZM191.521 93.3389L192.467 95.1012C193.269 94.6711 193.679 93.7542 193.466 92.8698C193.252 91.9855 192.469 91.3565 191.56 91.3392L191.521 93.3389ZM186.769 93.25L186.806 91.2504L186.769 93.25ZM170.118 92.9395L170.155 90.9398L170.155 90.9398L170.118 92.9395ZM142.696 92.4883L142.695 94.4883H142.696V92.4883ZM142.012 91.9199L140.046 92.2877L140.046 92.2877L142.012 91.9199ZM142.006 82.0332L140.051 81.609C140.039 81.6655 140.029 81.7225 140.022 81.7798L142.006 82.0332ZM142.033 81.9072L140.13 81.292C140.11 81.3548 140.093 81.4185 140.079 81.483L142.033 81.9072ZM142.696 81.4258L142.696 79.4258L142.695 79.4258L142.696 81.4258ZM182.415 83.2148L182.512 81.2172L182.512 81.2172L182.415 83.2148ZM207.487 84.4443L207.586 82.4468L207.487 84.4443ZM215.649 84.8496L215.749 82.8521L215.749 82.8521L215.649 84.8496ZM217.927 84.9639L217.827 86.9614L217.827 86.9614L217.927 84.9639ZM218.525 84.9932L218.625 82.9957L218.625 82.9957L218.525 84.9932ZM218.68 85.001L218.58 86.9985L218.58 86.9985L218.68 85.001ZM218.718 85.0029L218.617 87.0004L218.618 87.0004L218.718 85.0029ZM218.728 85.0039L218.576 86.9981C218.626 87.002 218.677 87.0039 218.728 87.0039V85.0039ZM218.73 85.0039L220.726 84.8754C220.659 83.8229 219.785 83.0039 218.73 83.0039V85.0039ZM218.696 85.6992L216.699 85.5993C216.644 86.7023 217.493 87.6412 218.596 87.6967C219.699 87.7522 220.638 86.9032 220.694 85.8002L218.696 85.6992ZM218.731 85.0039L218.832 83.0065C217.729 82.9507 216.79 83.7998 216.734 84.9029L218.731 85.0039ZM219.371 85.5273L221.309 85.0344L221.309 85.0327L219.371 85.5273ZM219.06 86.2939L220.102 88.001L220.102 88.0008L219.06 86.2939ZM133.06 138.789L134.101 140.496L134.102 140.496L133.06 138.789ZM132.667 138.89L130.669 138.805C130.646 139.336 130.836 139.853 131.195 140.244C131.554 140.634 132.054 140.866 132.584 140.888L132.667 138.89ZM132.696 138.194L134.695 138.279C134.741 137.175 133.885 136.243 132.782 136.196C131.679 136.149 130.746 137.004 130.698 138.107L132.696 138.194ZM132.666 138.89V140.89C133.737 140.89 134.618 140.046 134.664 138.977L132.666 138.89ZM132.652 138.89L132.569 140.888C132.597 140.889 132.625 140.89 132.652 140.89V138.89ZM132.606 138.888L132.523 140.886L132.523 140.886L132.606 138.888ZM132.425 138.88L132.508 136.882L132.508 136.882L132.425 138.88ZM131.719 138.851L131.635 140.849L131.635 140.849L131.719 138.851ZM129.034 138.737L128.95 140.736L128.95 140.736L129.034 138.737ZM119.417 138.327L119.331 140.325L119.331 140.325L119.417 138.327ZM89.9229 137.015L89.8306 139.013L89.8306 139.013L89.9229 137.015ZM59.5625 135.515L59.453 137.512L59.453 137.512L59.5625 135.515ZM48.8584 134.869L48.7193 136.864L48.7193 136.864L48.8584 134.869ZM43.6191 134.375L43.1925 136.329L43.1941 136.329L43.6191 134.375ZM43.5049 134.34L42.7536 136.193L42.7536 136.193L43.5049 134.34ZM37.6846 131.789L36.8509 133.607L36.8509 133.607L37.6846 131.789ZM35.4395 130.748L34.5901 132.559L34.5901 132.559L35.4395 130.748ZM34.7793 130.437L35.6342 128.628L35.6342 128.628L34.7793 130.437ZM34.6006 130.353L35.458 128.546L35.4576 128.545L34.6006 130.353ZM34.5547 130.331L33.6912 132.135L33.6962 132.137L34.5547 130.331ZM34.543 130.325L33.5483 132.06C33.5926 132.086 33.6378 132.109 33.6839 132.131L34.543 130.325ZM34.54 130.323L35.3994 128.517C35.1309 128.39 34.8374 128.323 34.54 128.323V130.323ZM34.5391 130.323L33.6782 132.129C33.9471 132.257 34.2412 132.323 34.5391 132.323V130.323ZM34.4854 130.295L33.4736 132.02L33.4736 132.02L34.4854 130.295ZM29.8545 127.579L28.8411 129.303L28.8427 129.304L29.8545 127.579ZM29.7969 127.541L30.9739 125.924L30.9738 125.924L29.7969 127.541ZM25.2861 124.258L24.1069 125.873L24.1092 125.875L25.2861 124.258ZM25.2393 124.22L23.9265 125.729L23.9265 125.729L25.2393 124.22ZM21.4004 120.88L22.7131 119.371C22.7094 119.368 22.7057 119.365 22.702 119.361L21.4004 120.88ZM21.3936 120.874L20.0611 122.366C20.0713 122.375 20.0816 122.384 20.092 122.393L21.3936 120.874ZM17.5762 117.464L16.2419 118.954L16.2438 118.955L17.5762 117.464ZM17.5293 117.418L16.0605 118.775L16.0617 118.777L17.5293 117.418ZM14.0869 113.693L12.6173 115.05L12.6181 115.051L14.0869 113.693ZM14.0439 113.643L12.4518 114.853L12.4523 114.854L14.0439 113.643ZM11.0029 109.643L9.40965 110.851L9.4108 110.853L11.0029 109.643ZM10.9648 109.587L9.26329 110.638L9.26337 110.638L10.9648 109.587ZM8.34863 105.352L6.64601 106.401L6.64708 106.403L8.34863 105.352ZM8.31641 105.293L6.52118 106.175L6.52168 106.176L8.31641 105.293ZM6.1416 100.864L4.34595 101.745L4.34638 101.746L6.1416 100.864ZM6.11426 100.803L4.24186 101.506L4.24215 101.506L6.11426 100.803ZM4.39551 96.2246L2.52255 96.9261L2.52311 96.9276L4.39551 96.2246ZM4.375 96.1602L2.44304 96.6774L2.44324 96.6781L4.375 96.1602ZM3.12109 91.4766L1.18843 91.9912L1.18913 91.9938L3.12109 91.4766ZM3.10742 91.4102L5.08066 91.084L5.08064 91.0839L3.10742 91.4102ZM2.32324 86.667L0.349811 86.9919L0.350028 86.9932L2.32324 86.667ZM2.31543 86.5986L4.3111 86.4671L4.31108 86.4668L2.31543 86.5986ZM2.00098 81.8389L0.00519591 81.9687L0.00532689 81.9707L2.00098 81.8389ZM2 81.7705L0.00103591 81.7061L0.00103583 81.7061L2 81.7705ZM2.15234 77.0391L0.15965 76.8683C0.156615 76.9037 0.154524 76.9392 0.15338 76.9747L2.15234 77.0391ZM2.1582 76.9707L0.175139 76.711C0.171267 76.7405 0.168056 76.7702 0.16551 76.7999L2.1582 76.9707ZM2.76855 72.3105L0.798131 71.9679C0.793338 71.9954 0.789124 72.0231 0.785491 72.0508L2.76855 72.3105ZM2.78027 72.2432L0.832071 71.7909C0.823645 71.8272 0.816235 71.8638 0.80985 71.9005L2.78027 72.2432ZM3.83594 67.6953L1.8881 67.2415L1.88773 67.2431L3.83594 67.6953ZM3.85449 67.6299L1.95971 66.9897L1.9597 66.9898L3.85449 67.6299ZM5.33887 63.2363L3.48191 62.4935C3.46837 62.5274 3.45576 62.5616 3.44409 62.5962L5.33887 63.2363ZM5.36426 63.1729L3.54076 62.3513C3.52905 62.3773 3.5179 62.4036 3.5073 62.4301L5.36426 63.1729ZM7.25781 58.9697L5.46896 58.0753C5.45692 58.0994 5.44537 58.1237 5.43432 58.1482L7.25781 58.9697ZM7.28809 58.9092L5.55294 57.9146C5.53409 57.9474 5.51618 57.9809 5.49923 58.0148L7.28809 58.9092ZM9.56641 54.9346L7.87202 53.872C7.85799 53.8944 7.8444 53.917 7.83126 53.94L9.56641 54.9346ZM9.60254 54.877L7.9716 53.7193C7.94955 53.7504 7.9284 53.7821 7.90816 53.8144L9.60254 54.877ZM12.2393 51.1621L13.8702 52.3197L13.8702 52.3197L12.2393 51.1621ZM12.2812 51.1094L10.7693 49.8001L10.7692 49.8003L12.2812 51.1094ZM15.2461 47.6855L13.8319 46.2713C13.7981 46.3051 13.7655 46.3402 13.7342 46.3763L15.2461 47.6855ZM15.3213 47.6104L14.025 46.0873C13.9843 46.122 13.9449 46.1583 13.9071 46.1961L15.3213 47.6104ZM25.2451 39.1641L24.0414 37.5668C24.0098 37.5906 23.979 37.6154 23.9488 37.641L25.2451 39.1641ZM25.3125 39.1133L24.2092 37.4451C24.175 37.4677 24.1415 37.4914 24.1088 37.5161L25.3125 39.1133ZM25.3848 39.0713L24.49 37.2826L24.4885 37.2834L25.3848 39.0713ZM98.3525 2.57129L97.6375 0.703472C97.5763 0.726887 97.5164 0.753292 97.4578 0.782593L98.3525 2.57129ZM98.4775 2.52344L97.9428 0.596258C97.8818 0.613182 97.8216 0.632992 97.7625 0.65562L98.4775 2.52344ZM98.6104 2.5L98.4577 0.505831L98.4559 0.50597L98.6104 2.5ZM105.144 2L105.16 7.06127e-05C105.104 -0.000404435 105.047 0.00151761 104.991 0.00583156L105.144 2ZM105.26 2.00098L105.079 3.99276L110.579 4.49276L110.76 2.50098L110.941 0.50919L105.441 0.00919015L105.26 2.00098ZM110.76 2.50098L110.48 4.48138L110.557 4.49212L110.836 2.51172L111.115 0.531315L111.039 0.520573L110.76 2.50098ZM110.836 2.51172L110.434 4.47086L115.229 5.45523L115.631 3.49609L116.033 1.53695L111.238 0.552578L110.836 2.51172ZM115.631 3.49609V5.49609H115.632V3.49609V1.49609H115.631V3.49609ZM115.632 3.49609L115.269 5.4629L119.387 6.22267L119.75 4.25586L120.113 2.28905L115.995 1.52929L115.632 3.49609ZM119.75 4.25586L119.3 6.20464L119.364 6.21929L119.813 4.27051L120.263 2.32173L120.2 2.30708L119.75 4.25586ZM119.813 4.27051L119.267 6.19444L123.256 7.32725L123.803 5.40332L124.349 3.47939L120.36 2.34657L119.813 4.27051ZM123.803 5.40332L123.179 7.30364L123.242 7.32414L123.865 5.42383L124.489 3.52351L124.426 3.50301L123.803 5.40332ZM123.865 5.42383L123.14 7.28778L126.966 8.77607L127.691 6.91211L128.416 5.04815L124.59 3.55987L123.865 5.42383ZM127.691 6.91211L126.893 8.74578L126.953 8.77215L127.752 6.93848L128.55 5.10481L128.49 5.07844L127.691 6.91211ZM127.752 6.93848L126.854 8.72579L130.485 10.549L131.383 8.76172L132.28 6.97441L128.649 5.15116L127.752 6.93848ZM131.383 8.76172L130.407 10.5072L130.464 10.5395L131.44 8.79395L132.417 7.04843L132.359 7.0162L131.383 8.76172ZM131.44 8.79395L130.378 10.4881L133.782 12.6239L134.845 10.9297L135.908 9.2355L132.503 7.09975L131.44 8.79395ZM134.845 10.9297L133.702 12.5709L133.756 12.609L134.899 10.9678L136.042 9.32656L135.988 9.28847L134.845 10.9297ZM134.899 10.9678L133.68 12.5531L136.831 14.976L138.05 13.3906L139.269 11.8052L136.119 9.3824L134.899 10.9678ZM138.05 13.3906L136.831 14.976C136.8 14.9525 136.769 14.9264 136.737 14.8967L138.101 13.4336L139.464 11.9705C139.4 11.9108 139.334 11.8555 139.269 11.8053L138.05 13.3906ZM138.101 13.4336L136.735 14.8952L139.607 17.5778L140.973 16.1162L142.338 14.6546L139.466 11.972L138.101 13.4336ZM140.973 16.1162L139.607 17.5778C139.587 17.5583 139.557 17.5292 139.522 17.4898L141.02 16.1641L142.517 14.8383C142.453 14.7659 142.391 14.7042 142.338 14.6547L140.973 16.1162ZM141.02 16.1641L139.52 17.4876L142.091 20.4007L143.591 19.0771L145.09 17.7536L142.519 14.8406L141.02 16.1641ZM143.591 19.0771L142.092 20.4009C142.057 20.3612 142.031 20.328 142.014 20.3043L143.633 19.1299L145.252 17.9554C145.208 17.8959 145.154 17.8264 145.09 17.7534L143.591 19.0771ZM143.633 19.1299L142.013 20.3029L144.266 23.4142L145.886 22.2412L147.506 21.0682L145.253 17.9569L143.633 19.1299ZM145.886 22.2412L144.266 23.4141C144.244 23.3846 144.222 23.3505 144.198 23.3103L145.923 22.2979L147.648 21.2854C147.601 21.2068 147.553 21.1339 147.506 21.0683L145.886 22.2412ZM145.923 22.2979L144.197 23.3082L146.116 26.5865L147.842 25.5762L149.568 24.5658L147.649 21.2875L145.923 22.2979ZM147.842 25.5762L146.071 26.5053L146.102 26.5648L147.873 25.6357L149.644 24.7066L149.613 24.6471L147.842 25.5762ZM147.873 25.6357L146.057 26.4736L147.63 29.8837L149.446 29.0459L151.262 28.2081L149.689 24.7979L147.873 25.6357ZM149.446 29.0459L147.63 29.8836C147.608 29.8346 147.593 29.7946 147.583 29.767L149.472 29.1094L151.36 28.4518C151.336 28.3815 151.304 28.2981 151.262 28.2082L149.446 29.0459ZM149.472 29.1094L147.583 29.7661L148.802 33.2749L150.691 32.6182L152.581 31.9615L151.361 28.4527L149.472 29.1094ZM150.691 32.6182L148.767 33.1638L148.786 33.2292L150.71 32.6836L152.634 32.1379L152.616 32.0725L150.691 32.6182ZM150.71 32.6836L148.766 33.1519L149.626 36.7242L151.57 36.2559L153.515 35.7876L152.654 32.2153L150.71 32.6836ZM151.57 36.2559L149.605 36.6262L149.618 36.6935L151.583 36.3232L153.548 35.9529L153.536 35.8856L151.57 36.2559ZM151.583 36.3232L149.602 36.5988L150.103 40.2004L152.084 39.9248L154.065 39.6493L153.564 36.0477L151.583 36.3232ZM152.084 39.9248L150.091 40.0956L150.097 40.164L152.09 39.9932L154.083 39.8224L154.077 39.754L152.084 39.9248ZM152.09 39.9932L150.091 40.0724L150.234 43.6681L152.232 43.5889L154.231 43.5096L154.088 39.9139L152.09 39.9932ZM152.232 43.5889L150.234 43.6681C150.232 43.6069 150.234 43.5618 150.235 43.5413L152.231 43.6572L154.228 43.7732C154.232 43.7075 154.235 43.616 154.231 43.5096L152.232 43.5889ZM152.231 43.6572L150.235 43.54L150.026 47.0986L152.022 47.2158L154.019 47.3331L154.228 43.7745L152.231 43.6572ZM152.022 47.2158L150.026 47.097C150.03 47.0287 150.038 46.9806 150.039 46.9711L152.015 47.2832L153.99 47.5953C153.999 47.5413 154.012 47.4479 154.019 47.3347L152.022 47.2158ZM152.015 47.2832L150.039 46.9701L149.487 50.4574L151.462 50.7705L153.437 51.0836L153.99 47.5963L152.015 47.2832ZM151.462 50.7705L149.487 50.4561C149.491 50.4282 149.499 50.3856 149.513 50.3327L151.448 50.8369L153.384 51.3411C153.409 51.2446 153.426 51.1573 153.437 51.0849L151.462 50.7705ZM151.448 50.8369L149.513 50.3311L148.628 53.7159L150.563 54.2217L152.498 54.7275L153.383 51.3427L151.448 50.8369ZM150.563 54.2217L148.629 53.715C148.643 53.6616 148.657 53.6205 148.666 53.5945L150.543 54.2861L152.42 54.9778C152.445 54.9095 152.473 54.8253 152.498 54.7284L150.563 54.2217ZM150.543 54.2861L148.667 53.5932L147.466 56.8451L149.342 57.5381L151.218 58.2311L152.419 54.9791L150.543 54.2861ZM149.342 57.5381L147.466 56.8452C147.467 56.842 147.472 56.8292 147.479 56.811C147.486 56.7929 147.499 56.7643 147.516 56.7291L149.315 57.6016L151.115 58.4741C151.167 58.3675 151.201 58.2756 151.218 58.231L149.342 57.5381ZM149.315 57.6016L147.516 56.7286L146.016 59.8204L147.815 60.6934L149.615 61.5664L151.115 58.4746L149.315 57.6016ZM147.815 60.6934L146.016 59.8204C146.047 59.7569 146.073 59.7142 146.076 59.7089L147.782 60.7529L149.488 61.7969C149.515 61.753 149.564 61.6706 149.615 61.5663L147.815 60.6934ZM147.782 60.7529L146.076 59.7091L144.298 62.6153L146.004 63.6592L147.71 64.7031L149.488 61.7968L147.782 60.7529ZM146.004 63.6592L144.298 62.6151C144.325 62.5709 144.35 62.5362 144.368 62.5113L145.966 63.7148L147.563 64.9184C147.609 64.8577 147.659 64.7857 147.71 64.7032L146.004 63.6592ZM145.966 63.7148L144.369 62.5102L142.334 65.2075L143.931 66.4121L145.527 67.6167L147.562 64.9195L145.966 63.7148ZM143.931 66.4121L142.334 65.2074C142.358 65.1761 142.378 65.1522 142.391 65.1372C142.403 65.1223 142.412 65.1124 142.414 65.1105L143.887 66.4639L145.359 67.8173C145.39 67.7836 145.456 67.7112 145.527 67.6168L143.931 66.4121ZM143.887 66.4639L142.414 65.1107L140.147 67.5775L141.62 68.9307L143.093 70.2839L145.359 67.8171L143.887 66.4639ZM141.62 68.9307L140.148 67.5772C140.158 67.5659 140.189 67.5323 140.237 67.4897L141.572 68.9785L142.908 70.4674C142.989 70.3948 143.052 70.3283 143.093 70.2841L141.62 68.9307ZM141.572 68.9785L140.237 67.4894L137.764 69.7072L139.099 71.1963L140.434 72.6854L142.907 70.4676L141.572 68.9785ZM139.099 71.1963L137.764 69.7069C137.811 69.6646 137.86 69.6269 137.91 69.5935L139.021 71.2568L140.131 72.9201C140.236 72.8501 140.337 72.772 140.433 72.6857L139.099 71.1963ZM139.021 71.2568L137.91 69.5935L82.4724 106.61L83.583 108.273L84.6936 109.937L140.131 72.9201L139.021 71.2568ZM83.583 108.273L82.4728 106.61C82.5235 106.576 82.5935 106.535 82.6832 106.497L83.4707 108.335L84.2583 110.173C84.4264 110.101 84.5715 110.018 84.6932 109.937L83.583 108.273ZM83.4707 108.335L82.6834 106.496L78.6082 108.242L79.3955 110.08L80.1828 111.919L84.258 110.173L83.4707 108.335ZM79.3955 110.08L78.6099 108.241C78.6652 108.217 78.717 108.199 78.7644 108.186L79.3125 110.109L79.8606 112.033C79.9644 112.003 80.072 111.966 80.1811 111.919L79.3955 110.08ZM79.3125 110.109L78.7652 108.186L76.1119 108.941L76.6592 110.864L77.2065 112.788L79.8598 112.033L79.3125 110.109ZM76.6592 110.864L76.2095 108.915L76.1968 108.918L76.6465 110.867L77.0962 112.816L77.1089 112.813L76.6592 110.864ZM76.6465 110.867L76.1339 108.934L72.3624 109.934L72.875 111.867L73.3876 113.8L77.1591 112.8L76.6465 110.867ZM72.875 111.867L72.3634 109.934C72.3876 109.927 72.4129 109.921 72.4404 109.916L72.833 111.877L73.2256 113.838C73.2809 113.827 73.3349 113.814 73.3866 113.801L72.875 111.867ZM72.833 111.877L72.4408 109.916L69.9408 110.416L70.333 112.377L70.7252 114.338L73.2252 113.838L72.833 111.877ZM70.333 112.377L69.9416 110.416C69.9557 110.413 69.9761 110.409 70.0023 110.405L70.2998 112.383L70.5973 114.361C70.6454 114.353 70.6886 114.345 70.7244 114.338L70.333 112.377ZM70.2998 112.383L70.0024 110.405L66.0024 111.007L66.2998 112.984L66.5972 114.962L70.5972 114.361L70.2998 112.383ZM66.2998 112.984L66.0022 111.007C65.9998 111.007 65.9974 111.007 65.9964 111.008C65.9957 111.008 65.9953 111.008 65.9949 111.008C65.9946 111.008 65.9945 111.008 65.9945 111.008C65.9946 111.008 65.9954 111.008 65.9967 111.007C65.9981 111.007 66.0002 111.007 66.003 111.007C66.0126 111.005 66.0373 111.002 66.0703 110.999L66.2637 112.989L66.457 114.98C66.502 114.976 66.5389 114.971 66.5606 114.968C66.5718 114.966 66.5813 114.965 66.5871 114.964C66.5901 114.963 66.5927 114.963 66.5943 114.963C66.5963 114.962 66.5968 114.962 66.5974 114.962L66.2998 112.984ZM66.2637 112.989L66.0713 110.999L61.9482 111.397L62.1406 113.388L62.333 115.378L66.456 114.98L66.2637 112.989ZM62.1406 113.388L61.951 111.397C62.0051 111.392 62.0474 111.391 62.0738 111.391L62.0742 113.391L62.0746 115.391C62.1451 115.391 62.2323 115.388 62.3303 115.379L62.1406 113.388ZM62.0742 113.391V111.391H54.1963V113.391V115.391H62.0742V113.391ZM54.1963 113.391L54.1976 111.391C54.2441 111.391 54.3012 111.393 54.3677 111.402L54.1045 113.385L53.8413 115.367C53.9682 115.384 54.0875 115.391 54.195 115.391L54.1963 113.391ZM54.1045 113.385L54.3678 111.402L51.3678 111.004L51.1045 112.986L50.8412 114.969L53.8412 115.367L54.1045 113.385ZM51.1045 112.986L51.3691 111.004C51.3752 111.005 51.3903 111.007 51.4113 111.01C51.4323 111.014 51.4633 111.02 51.5013 111.029L51.0332 112.974L50.5652 114.918C50.6837 114.947 50.784 114.961 50.8399 114.969L51.1045 112.986ZM51.0332 112.974L51.5018 111.029L49.0018 110.427L48.5332 112.371L48.0646 114.315L50.5646 114.918L51.0332 112.974ZM48.5332 112.371L49.0008 110.427C48.9935 110.425 48.9861 110.423 48.9855 110.423C48.983 110.422 48.9856 110.423 48.9895 110.424C48.9937 110.425 49.0021 110.427 49.0131 110.43C49.024 110.433 49.0398 110.437 49.0588 110.442L48.502 112.363L47.9451 114.284C47.991 114.298 48.0286 114.307 48.0455 114.311C48.0547 114.313 48.0626 114.315 48.0654 114.316C48.07 114.317 48.0678 114.316 48.0657 114.316L48.5332 112.371ZM48.502 112.363L49.0589 110.442L45.6096 109.442L45.0527 111.363L44.4958 113.284L47.945 114.284L48.502 112.363ZM45.0527 111.363L45.6118 109.443C45.684 109.464 45.7539 109.491 45.822 109.525L44.9395 111.319L44.057 113.114C44.1975 113.183 44.344 113.24 44.4937 113.284L45.0527 111.363ZM44.9395 111.319L45.8219 109.525L42.7711 108.025L41.8887 109.819L41.0062 111.614L44.057 113.114L44.9395 111.319ZM41.8887 109.819L42.7729 108.025C42.7849 108.031 42.8199 108.049 42.8666 108.077L41.8379 109.792L40.8092 111.507C40.8886 111.555 40.9583 111.591 41.0045 111.613L41.8887 109.819ZM41.8379 109.792L42.8669 108.077L40.3669 106.577L39.3379 108.292L38.3089 110.007L40.8089 111.507L41.8379 109.792ZM39.3379 108.292L40.3692 106.578C40.4018 106.598 40.4261 106.614 40.4392 106.623C40.452 106.632 40.46 106.638 40.4571 106.636L39.29 108.26L38.1229 109.884C38.143 109.898 38.2154 109.951 38.3065 110.006L39.3379 108.292ZM39.29 108.26L40.4577 106.636L37.6764 104.636L36.5088 106.26L35.3411 107.884L38.1224 109.884L39.29 108.26ZM36.5088 106.26L37.6786 104.638C37.7406 104.682 37.7811 104.719 37.7912 104.728L36.4482 106.21L35.1053 107.692C35.1539 107.736 35.2349 107.807 35.3389 107.882L36.5088 106.26ZM36.4482 106.21L37.791 104.728L35.0312 102.228L33.6885 103.71L32.3457 105.192L35.1055 107.692L36.4482 106.21ZM33.6885 103.71L35.0339 102.23C35.0772 102.27 35.1183 102.312 35.1578 102.36L33.6211 103.64L32.0844 104.92C32.165 105.017 32.2521 105.107 32.343 105.19L33.6885 103.71ZM33.6211 103.64L35.1577 102.359L33.1977 100.007L31.6611 101.287L30.1245 102.567L32.0845 104.92L33.6211 103.64ZM31.6611 101.287L33.1992 100.009C33.2066 100.018 33.2123 100.025 33.216 100.029C33.2198 100.034 33.2232 100.038 33.2263 100.042L31.6455 101.268L30.0648 102.493C30.0792 102.511 30.0995 102.537 30.1231 102.566L31.6611 101.287ZM31.6455 101.268L33.2263 100.042L31.237 97.4759L29.6562 98.7012L28.0755 99.9264L30.0648 102.493L31.6455 101.268ZM29.6562 98.7012L31.2397 97.4794C31.2506 97.4936 31.2593 97.5053 31.2652 97.5134C31.2711 97.5214 31.2755 97.5276 31.2776 97.5305C31.2795 97.5331 31.2807 97.5349 31.2792 97.5327C31.2785 97.5318 31.2745 97.526 31.2702 97.5199L29.6387 98.6768L28.0072 99.8336C28.0057 99.8315 28.0045 99.8298 28.0068 99.833C28.0081 99.8349 28.0123 99.8408 28.0171 99.8476C28.026 99.8601 28.0463 99.8886 28.0728 99.9229L29.6562 98.7012ZM29.6387 98.6768L31.2702 97.52L29.2594 94.684L27.6279 95.8408L25.9964 96.9976L28.0072 99.8335L29.6387 98.6768ZM27.6279 95.8408L29.2611 94.6864C29.3119 94.7582 29.3503 94.8274 29.3798 94.8911L27.5645 95.7305L25.7491 96.5699C25.8141 96.7104 25.8951 96.8543 25.9947 96.9952L27.6279 95.8408ZM27.5645 95.7305L29.3798 94.8911L27.8798 91.647L26.0645 92.4863L24.2491 93.3257L25.7491 96.5698L27.5645 95.7305ZM26.0645 92.4863L27.8805 91.6486C27.8993 91.6891 27.9169 91.733 27.933 91.781L26.0361 92.415L24.1393 93.0491C24.1715 93.1453 24.2083 93.2373 24.2484 93.3241L26.0645 92.4863ZM26.0361 92.415L27.9335 91.7826L26.9335 88.7826L25.0361 89.415L23.1388 90.0475L24.1388 93.0475L26.0361 92.415ZM25.0361 89.415L26.9339 88.7837C26.9514 88.8363 26.9688 88.9004 26.9817 88.9768L25.0098 89.3105L23.0378 89.6443C23.0626 89.791 23.0984 89.9261 23.1384 90.0464L25.0361 89.415ZM25.0098 89.3105L26.982 88.9782L26.482 86.0114L24.5098 86.3438L22.5376 86.6761L23.0376 89.6429L25.0098 89.3105ZM24.5098 86.3438L26.4821 86.0124C26.4937 86.0813 26.5 86.1527 26.5 86.2275H24.5H22.5C22.5 86.3797 22.513 86.5299 22.5374 86.6751L24.5098 86.3438ZM24.5 86.2275H26.5V83.6943H24.5H22.5V86.2275H24.5ZM24.5 83.6943L26.5 83.6953C26.5 83.7838 26.491 83.8688 26.4748 83.9498L24.5137 83.5576L22.5525 83.1654C22.5184 83.3362 22.5001 83.5133 22.5 83.6934L24.5 83.6943ZM24.5137 83.5576L26.4748 83.9498L26.9748 81.4498L25.0137 81.0576L23.0525 80.6654L22.5525 83.1654L24.5137 83.5576ZM25.0137 81.0576L26.9314 81.6253L26.9676 81.5032L25.0498 80.9355L23.1321 80.3679L23.0959 80.49L25.0137 81.0576ZM25.0498 80.9355L26.9068 81.6783L27.9068 79.1783L26.0498 78.4355L24.1929 77.6928L23.1929 80.1928L25.0498 80.9355ZM26.0498 78.4355L27.8555 79.2954L27.8946 79.2134L26.0889 78.3535L24.2831 77.4936L24.2441 77.5757L26.0498 78.4355ZM26.0889 78.3535L27.833 79.3323C27.7962 79.3978 27.7623 79.4462 27.7397 79.4764L26.1396 78.2764L24.5396 77.0764C24.4801 77.1557 24.4115 77.2558 24.3447 77.3747L26.0889 78.3535ZM26.1396 78.2764L27.7396 79.4764L29.2396 77.4764L27.6396 76.2764L26.0396 75.0764L24.5396 77.0764L26.1396 78.2764ZM27.6396 76.2764L29.1782 77.5542L29.2261 77.4966L27.6875 76.2188L26.1489 74.9409L26.1011 74.9986L27.6396 76.2764ZM27.6875 76.2188L29.1487 77.5844C29.1228 77.6121 29.0893 77.6453 29.0471 77.6817L27.7422 76.166L26.4373 74.6504C26.3569 74.7196 26.2866 74.7886 26.2263 74.8531L27.6875 76.2188ZM27.7422 76.166V78.166H27.7432V76.166V74.166H27.7422V76.166ZM27.7432 76.166L29.1574 77.5802L29.1642 77.5734L27.75 76.1592L26.3358 74.745L26.329 74.7518L27.7432 76.166ZM27.75 76.1592L29.0456 77.6828C29.0395 77.688 29.035 77.6917 29.0337 77.6928C29.0324 77.6939 29.0317 77.6945 29.0334 77.693C29.0357 77.6912 29.0441 77.6842 29.0537 77.6762L27.7676 76.1445L26.4815 74.6129C26.4838 74.611 26.4855 74.6095 26.4819 74.6126C26.4807 74.6135 26.4771 74.6165 26.4733 74.6196C26.4695 74.6228 26.4626 74.6285 26.4544 74.6355L27.75 76.1592ZM27.7676 76.1445L29.0538 77.6761C29.0486 77.6804 29.0456 77.6828 29.0466 77.6821C29.0474 77.6814 29.0494 77.6798 29.0541 77.6759C29.0619 77.6696 29.0791 77.6557 29.0967 77.6414L27.8311 76.0928L26.5654 74.5442C26.5561 74.5518 26.5491 74.5575 26.5355 74.5684C26.5297 74.5732 26.5218 74.5796 26.5135 74.5864C26.5053 74.5931 26.494 74.6024 26.4813 74.613L27.7676 76.1445ZM27.8311 76.0928L29.0967 77.6413C29.1425 77.6039 29.2015 77.5562 29.274 77.5006L28.0576 75.9131L26.8412 74.3255C26.722 74.4169 26.6271 74.4938 26.5654 74.5442L27.8311 76.0928ZM28.0576 75.9131L29.2739 77.5007C29.4292 77.3817 29.6485 77.2228 29.9001 77.0642L28.834 75.3721L27.7678 73.6799C27.389 73.9186 27.0681 74.1517 26.8413 74.3255L28.0576 75.9131ZM28.834 75.3721L29.9001 77.0643C30.144 76.9106 30.4117 76.7612 30.6757 76.6514C30.9497 76.5374 31.1385 76.5004 31.2415 76.4969L31.1729 74.498L31.1042 72.4992C29.6792 72.5482 28.4018 73.2805 27.7679 73.6799L28.834 75.3721ZM31.1729 74.498L31.2412 76.4969C31.5277 76.4871 31.7396 76.4758 31.9757 76.4773C32.2035 76.4788 32.36 76.4937 32.4622 76.5143L32.8574 74.5537L33.2527 72.5932C32.4069 72.4226 31.4802 72.4864 31.1045 72.4992L31.1729 74.498ZM32.8574 74.5537L32.4616 76.5142C32.5665 76.5353 32.6015 76.5599 32.5999 76.5588C32.5983 76.5577 32.5946 76.5546 32.5923 76.5518C32.5899 76.549 32.5979 76.5571 32.6115 76.5858L34.418 75.7275L36.2244 74.8692C35.538 73.4244 34.3032 72.8052 33.2532 72.5933L32.8574 74.5537ZM34.418 75.7275L32.6113 76.5854C32.6001 76.5619 32.5937 76.5431 32.5901 76.5311C32.5867 76.5192 32.5859 76.5135 32.5862 76.5153C32.5865 76.5172 32.5875 76.5246 32.5881 76.5383C32.5888 76.5519 32.589 76.5696 32.5882 76.5918L34.5869 76.6631L36.5856 76.7344C36.6017 76.283 36.565 75.5864 36.2246 74.8697L34.418 75.7275ZM34.5869 76.6631L32.5882 76.5914C32.5848 76.6871 32.5642 76.8165 32.5256 76.9669L34.4629 77.4639L36.4002 77.9608C36.4818 77.6426 36.5685 77.2127 36.5856 76.7347L34.5869 76.6631ZM34.4629 77.4639L32.5257 76.9667C32.4881 77.1132 32.4414 77.2493 32.4038 77.3485L34.2734 78.0586L36.1431 78.7687C36.2184 78.5706 36.3161 78.2884 36.4001 77.961L34.4629 77.4639ZM34.2734 78.0586L32.4038 77.3484C32.4033 77.3497 32.4016 77.3541 32.3971 77.3652C32.3948 77.3709 32.3924 77.3769 32.3887 77.3857C32.3856 77.3935 32.3809 77.4049 32.3762 77.4166L34.2305 78.166L36.0848 78.9154C36.086 78.9122 36.1179 78.835 36.1431 78.7688L34.2734 78.0586ZM34.2305 78.166L32.2307 78.1387L32.2053 80.0001L34.2051 80.0273L36.2049 80.0546L36.2303 78.1933L34.2305 78.166ZM34.2051 80.0273L32.2149 80.2254L32.4122 82.2078L34.4023 82.0098L36.3925 81.8117L36.1952 79.8293L34.2051 80.0273ZM34.4023 82.0098L32.4469 82.4296L32.8746 84.4218L34.8301 84.002L36.7855 83.5821L36.3578 81.5899L34.4023 82.0098ZM34.8301 84.002L32.9328 84.6347L33.591 86.6083L35.4883 85.9756L37.3856 85.3428L36.7274 83.3692L34.8301 84.002ZM35.4883 85.9756L33.6708 86.8103L34.5575 88.741L36.375 87.9062L38.1925 87.0715L37.3058 85.1409L35.4883 85.9756ZM36.375 87.9062L34.6561 88.9287L35.7743 90.8086L37.4932 89.7861L39.2121 88.7637L38.0939 86.8838L36.375 87.9062ZM37.4932 89.7861L35.8892 90.9809L37.2349 92.7875L38.8389 91.5928L40.4428 90.3981L39.0971 88.5914L37.4932 89.7861ZM38.8389 91.5928L37.364 92.9436L38.9285 94.6517L40.4033 93.3008L41.8782 91.9499L40.3137 90.2419L38.8389 91.5928ZM40.4033 93.3008L39.0667 94.7885L40.845 96.3862L42.1816 94.8984L43.5183 93.4107L41.7399 91.813L40.4033 93.3008ZM42.1816 94.8984L40.993 96.5069L42.9647 97.9639L44.1533 96.3555L45.3419 94.747L43.3703 93.29L42.1816 94.8984ZM44.1533 96.3555L43.1187 98.067L45.2866 99.3776L46.3213 97.666L47.3559 95.9544L45.188 94.6439L44.1533 96.3555ZM46.3213 97.666L45.4445 99.4636L47.759 100.592L48.6357 98.7949L49.5125 96.9974L47.1981 95.8684L46.3213 97.666ZM48.6357 98.7949L47.9211 100.663L50.3918 101.608L51.1064 99.7402L51.8211 97.8723L49.3504 96.927L48.6357 98.7949ZM51.1064 99.7402L50.5552 101.663L53.1675 102.412L53.7188 100.489L54.27 98.5667L51.6577 97.8177L51.1064 99.7402ZM53.7188 100.489L53.3339 102.452L56.0429 102.983L56.4277 101.021L56.8126 99.0579L54.1036 98.5266L53.7188 100.489ZM56.4277 101.021L56.2098 103.009L58.9979 103.314L59.2158 101.326L59.4338 99.3381L56.6457 99.0324L56.4277 101.021ZM59.2158 101.326L59.1637 103.325L62.0114 103.4L62.0635 101.4L62.1156 99.4011L59.2679 99.3269L59.2158 101.326ZM62.0635 101.4L62.1795 103.397L65.0535 103.23L64.9375 101.233L64.8215 99.2368L61.9475 99.4038L62.0635 101.4ZM64.9375 101.233L65.2192 103.213L68.0952 102.804L67.8135 100.824L67.5318 98.8442L64.6558 99.2533L64.9375 101.233ZM67.8135 100.824L68.2618 102.773L71.1105 102.118L70.6621 100.169L70.2138 98.2198L67.3651 98.8751L67.8135 100.824ZM70.6621 100.169L71.2752 102.073L74.077 101.17L73.4639 99.2666L72.8508 97.3629L70.049 98.2652L70.6621 100.169ZM73.4639 99.2666L74.2392 101.11L76.9443 99.9725L76.1689 98.1289L75.3936 96.2853L72.6885 97.423L73.4639 99.2666ZM76.1689 98.1289L77.1048 99.8964L79.7035 98.5204L78.7676 96.7529L77.8317 94.9854L75.233 96.3614L76.1689 98.1289ZM78.7676 96.7529L79.8599 98.4283L82.3238 96.8218L81.2314 95.1465L80.1391 93.4711L77.6752 95.0776L78.7676 96.7529ZM81.2314 95.1465L82.4741 96.7136L84.7573 94.903L83.5146 93.3359L82.272 91.7689L79.9888 93.5794L81.2314 95.1465ZM83.5146 93.3359L84.9015 94.777L87.003 92.7546L85.6162 91.3135L84.2294 89.8724L82.1278 91.8949L83.5146 93.3359ZM85.6162 91.3135L87.1378 92.6115L89.0196 90.4054L87.498 89.1074L85.9764 87.8094L84.0946 90.0155L85.6162 91.3135ZM87.498 89.1074L89.1425 90.2458L90.788 87.8689L89.1436 86.7305L87.4991 85.5921L85.8536 87.969L87.498 89.1074ZM89.1436 86.7305L90.8972 87.6922L92.2858 85.1599L90.5322 84.1982L88.7786 83.2366L87.3899 85.7688L89.1436 86.7305ZM90.5322 84.1982L92.3777 84.9691L93.4832 82.3226L91.6377 81.5518L89.7922 80.7809L88.6868 83.4274L90.5322 84.1982ZM91.6377 81.5518L93.5557 82.1186L94.3731 79.353L92.4551 78.7861L90.5371 78.2193L89.7197 80.9849L91.6377 81.5518ZM92.4551 78.7861L94.4236 79.1395L94.9353 76.2889L92.9668 75.9355L90.9983 75.5822L90.4865 78.4328L92.4551 78.7861ZM92.9668 75.9355L94.9624 76.0681L95.1548 73.1716L93.1592 73.0391L91.1636 72.9065L90.9712 75.803L92.9668 75.9355ZM93.1592 73.0391L95.1572 72.9494L95.0253 70.0109L93.0273 70.1006L91.0294 70.1902L91.1612 73.1287L93.1592 73.0391ZM93.0273 70.1006L95.0031 69.7901L94.5402 66.8448L92.5645 67.1553L90.5887 67.4658L91.0516 70.4111L93.0273 70.1006ZM92.5645 67.1553L94.494 66.6292L93.7001 63.7171L91.7705 64.2432L89.8409 64.7692L90.6349 67.6813L92.5645 67.1553ZM91.7705 64.2432L93.6322 63.5123L92.5062 60.6441L90.6445 61.375L88.7829 62.1059L89.9088 64.974L91.7705 64.2432ZM90.6445 61.375L92.4175 60.4496L90.9556 57.6488L89.1826 58.5742L87.4096 59.4997L88.8715 62.3004L90.6445 61.375ZM89.1826 58.5742L90.8504 57.4703L89.0779 54.7926L87.4102 55.8965L85.7424 57.0004L87.5149 59.6781L89.1826 58.5742ZM87.4102 55.8965L88.9575 54.6293L86.8599 52.0678L85.3125 53.335L83.7651 54.6021L85.8628 57.1636L87.4102 55.8965ZM85.3125 53.335L86.7279 51.9219L84.347 49.5371L82.9316 50.9502L81.5163 52.3632L83.8971 54.748L85.3125 53.335ZM82.9316 50.9502L84.2053 49.4082L81.5344 47.2021L80.2607 48.7441L78.9871 50.2862L81.658 52.4922L82.9316 50.9502ZM80.2607 48.7441L81.3857 47.0905L78.4531 45.0954L77.3281 46.749L76.2031 48.4026L79.1358 50.3977L80.2607 48.7441ZM77.3281 46.749L78.2981 45L75.1233 43.2393L74.1533 44.9883L73.1833 46.7373L76.3581 48.498L77.3281 46.749ZM74.1533 44.9883L74.9646 43.1602L71.5759 41.6563L70.7646 43.4844L69.9533 45.3124L73.342 46.8163L74.1533 44.9883ZM70.7646 43.4844L71.4152 41.5931L67.8634 40.3714L67.2129 42.2627L66.5624 44.1539L70.1141 45.3756L70.7646 43.4844ZM67.2129 42.2627L67.6998 40.3229L63.9683 39.3863L63.4814 41.3262L62.9946 43.266L66.726 44.2025L67.2129 42.2627ZM63.4814 41.3262L63.8033 39.3522L59.9586 38.7253L59.6367 40.6992L59.3148 42.6731L63.1596 43.3001L63.4814 41.3262ZM59.6367 40.6992L59.7932 38.7054L55.8616 38.3968L55.7051 40.3906L55.5486 42.3845L59.4802 42.6931L59.6367 40.6992ZM55.7051 40.3906L55.6962 38.3906L51.7148 38.4082L51.7236 40.4082L51.7325 42.4082L55.7139 42.3906L55.7051 40.3906ZM51.7236 40.4082L51.5484 38.4159L47.5523 38.7675L47.7275 40.7598L47.9028 42.7521L51.8989 42.4005L51.7236 40.4082ZM47.7275 40.7598L47.3866 38.789L43.4179 39.4756L43.7588 41.4463L44.0997 43.417L48.0684 42.7305L47.7275 40.7598ZM43.7588 41.4463L43.2541 39.511L39.3557 40.5276L39.8604 42.4629L40.365 44.3982L44.2635 43.3816L43.7588 41.4463ZM39.8604 42.4629L39.1926 40.5777L35.3713 41.9312L36.0391 43.8164L36.7068 45.7016L40.5281 44.3481L39.8604 42.4629ZM36.0391 43.8164L35.21 41.9964L31.542 43.6673L32.3711 45.4873L33.2002 47.3074L36.8682 45.6365L36.0391 43.8164ZM32.3711 45.4873L31.384 43.7479L27.8908 45.7303L28.8779 47.4697L29.8651 49.2091L33.3582 47.2267L32.3711 45.4873ZM28.8779 47.4697L27.7373 45.8269L24.46 48.1022L25.6006 49.7451L26.7412 51.388L30.0185 49.1126L28.8779 47.4697ZM25.6006 49.7451L24.3122 48.2154L21.2663 50.7808L22.5547 52.3105L23.8431 53.8403L26.889 51.2748L25.6006 49.7451ZM22.5547 52.3105L21.1255 50.9115L18.3667 53.7299L19.7959 55.1289L21.2251 56.5279L23.9839 53.7096L22.5547 52.3105ZM19.7959 55.1289L18.2361 53.8771L15.7839 56.9328L17.3438 58.1846L18.9036 59.4363L21.3557 56.3807L19.7959 55.1289ZM17.3438 58.1846L15.6655 57.0968L13.5444 60.3692L15.2227 61.457L16.9009 62.5448L19.022 59.2724L17.3438 58.1846ZM15.2227 61.457L13.4407 60.5489L11.6809 64.002L13.4629 64.9102L15.2448 65.8183L17.0046 62.3651L15.2227 61.457ZM13.4629 64.9102L11.5946 64.1965L10.2147 67.8088L12.083 68.5225L13.9513 69.2362L15.3312 65.6238L13.4629 64.9102ZM12.083 68.5225L10.1485 68.015L9.16604 71.7601L11.1006 72.2676L13.0351 72.775L14.0176 69.0299L12.083 68.5225ZM11.1006 72.2676L9.12213 71.9748L8.5567 75.7961L10.5352 76.0889L12.5136 76.3816L13.079 72.5603L11.1006 72.2676ZM10.5352 76.0889L8.53648 76.0161L8.39488 79.9077L10.3936 79.9805L12.3922 80.0532L12.5338 76.1616L10.5352 76.0889ZM10.3936 79.9805L8.39909 80.1292L8.69109 84.0443L10.6855 83.8955L12.68 83.7468L12.388 79.8317L10.3936 79.9805ZM10.6855 83.8955L8.71966 84.2633L9.4472 88.152L11.4131 87.7842L13.379 87.4164L12.6514 83.5277L10.6855 83.8955ZM11.4131 87.7842L9.49884 88.3635L10.6649 92.2161L12.5791 91.6367L14.4933 91.0574L13.3273 87.2048L11.4131 87.7842ZM12.5791 91.6367L10.7382 92.4184L12.3388 96.1879L14.1797 95.4062L16.0206 94.6246L14.42 90.855L12.5791 91.6367ZM14.1797 95.4062L12.4311 96.3771L14.4536 100.02L16.2021 99.0488L17.9507 98.078L15.9282 94.4354L14.1797 95.4062ZM16.2021 99.0488L14.5625 100.194L17.001 103.685L18.6406 102.54L20.2803 101.395L17.8418 97.9036L16.2021 99.0488ZM18.6406 102.54L17.124 103.844L19.9589 107.142L21.4756 105.838L22.9922 104.534L20.1573 101.236L18.6406 102.54ZM21.4756 105.838L20.0929 107.283L23.3087 110.36L24.6914 108.915L26.0741 107.47L22.8583 104.393L21.4756 105.838ZM24.6914 108.915L23.4521 110.485L27.0146 113.297L28.2539 111.728L29.4932 110.158L25.9307 107.345L24.6914 108.915ZM28.2539 111.728L27.1638 113.404L31.0574 115.936L32.1475 114.259L33.2376 112.582L29.344 110.051L28.2539 111.728ZM32.1475 114.259L31.2129 116.027L35.4219 118.252L36.3564 116.483L37.291 114.715L33.082 112.491L32.1475 114.259ZM36.3564 116.483L35.4082 118.244L35.4209 118.251L36.3691 116.49L37.3173 114.729L37.3046 114.722L36.3564 116.483ZM36.3691 116.49L35.3968 118.238L40.013 120.806L40.9854 119.059L41.9577 117.311L37.3415 114.743L36.3691 116.49ZM40.9854 119.059L40.2908 120.934L45.4676 122.851L46.1621 120.976L46.8566 119.1L41.6799 117.183L40.9854 119.059ZM46.1621 120.976L45.821 122.946L49.9284 123.657L50.2695 121.687L50.6106 119.716L46.5032 119.005L46.1621 120.976ZM50.2695 121.687L50.1598 123.684L64.9224 124.495L65.0322 122.498L65.142 120.501L50.3793 119.69L50.2695 121.687ZM65.0322 122.498V124.498H65.0332V122.498V120.498H65.0322V122.498ZM65.0332 122.498L64.9594 124.497L132.46 126.989L132.534 124.99L132.608 122.992L65.107 120.499L65.0332 122.498ZM132.534 124.99L133.48 126.753L192.467 95.1012L191.521 93.3389L190.576 91.5765L131.589 123.228L132.534 124.99ZM191.521 93.3389L191.56 91.3392C190.324 91.3157 188.698 91.2861 186.806 91.2504L186.769 93.25L186.731 95.2496C188.63 95.2855 190.244 95.3149 191.483 95.3385L191.521 93.3389ZM186.769 93.25L186.806 91.2504C182.329 91.1658 176.312 91.0526 170.155 90.9398L170.118 92.9395L170.082 94.9391C176.237 95.0519 182.254 95.1651 186.731 95.2496L186.769 93.25ZM170.118 92.9395L170.155 90.9398C157.852 90.7145 144.958 90.4883 142.696 90.4883V92.4883V94.4883C144.91 94.4883 157.746 94.7132 170.082 94.9391L170.118 92.9395ZM142.696 92.4883L142.698 90.4883C143.323 90.4887 143.862 90.934 143.978 91.5521L142.012 91.9199L140.046 92.2877C140.285 93.5646 141.399 94.4875 142.695 94.4883L142.696 92.4883ZM142.012 91.9199L143.978 91.5522C143.321 88.0433 143.516 85.9922 143.99 82.2866L142.006 82.0332L140.022 81.7798C139.533 85.6087 139.273 88.1566 140.046 92.2877L142.012 91.9199ZM142.006 82.0332L143.96 82.4574L143.988 82.3315L142.033 81.9072L140.079 81.483L140.051 81.609L142.006 82.0332ZM142.033 81.9072L143.936 82.5224C143.764 83.0559 143.268 83.4254 142.698 83.4258L142.696 81.4258L142.695 79.4258C141.512 79.4265 140.485 80.1938 140.13 81.292L142.033 81.9072ZM142.696 81.4258V83.4258C144.901 83.4258 163.847 84.3166 182.318 85.2125L182.415 83.2148L182.512 81.2172C164.141 80.3262 145.029 79.4258 142.696 79.4258V81.4258ZM182.415 83.2148L182.318 85.2125C191.536 85.6596 200.615 86.1065 207.388 86.4419L207.487 84.4443L207.586 82.4468C200.812 82.1114 191.732 81.6644 182.512 81.2172L182.415 83.2148ZM207.487 84.4443L207.388 86.4419C210.775 86.6095 213.586 86.7493 215.55 86.8471L215.649 84.8496L215.749 82.8521C213.785 82.7543 210.973 82.6145 207.586 82.4468L207.487 84.4443ZM215.649 84.8496L215.55 86.8471C216.535 86.8962 217.296 86.9349 217.827 86.9614L217.927 84.9639L218.026 82.9664C217.508 82.9405 216.727 82.9008 215.749 82.8521L215.649 84.8496ZM217.927 84.9639L217.827 86.9614C218.228 86.9814 218.159 86.9773 218.426 86.9907L218.525 84.9932L218.625 82.9957C218.621 82.9955 218.149 82.9725 218.026 82.9664L217.927 84.9639ZM218.525 84.9932L218.426 86.9907C218.538 86.9963 218.495 86.9943 218.58 86.9985L218.68 85.001L218.78 83.0035C218.764 83.0027 218.743 83.0016 218.717 83.0003C218.691 82.999 218.66 82.9974 218.625 82.9957L218.525 84.9932ZM218.68 85.001L218.58 86.9985C218.586 86.9988 218.592 86.9991 218.598 86.9994C218.603 86.9997 218.611 87.0001 218.617 87.0004L218.718 85.0029L218.818 83.0054C218.816 83.0053 218.813 83.0052 218.805 83.0048C218.799 83.0044 218.79 83.004 218.78 83.0035L218.68 85.001ZM218.718 85.0029L218.618 87.0004C218.583 86.9987 218.553 86.9962 218.532 86.9943C218.511 86.9923 218.495 86.9904 218.488 86.9896C218.485 86.9892 218.482 86.9889 218.483 86.9889C218.483 86.9889 218.484 86.9891 218.485 86.9892C218.487 86.9894 218.489 86.9897 218.492 86.99C218.497 86.9906 218.507 86.9917 218.519 86.993C218.532 86.9943 218.551 86.9963 218.576 86.9981L218.728 85.0039L218.879 83.0097C218.903 83.0115 218.922 83.0134 218.934 83.0146C218.946 83.0158 218.955 83.0169 218.96 83.0174C218.964 83.0179 218.967 83.0184 218.966 83.0182C218.966 83.0182 218.965 83.0181 218.964 83.0179C218.962 83.0178 218.96 83.0175 218.958 83.0173C218.95 83.0163 218.932 83.0142 218.909 83.012C218.886 83.0099 218.855 83.0073 218.818 83.0054L218.718 85.0029ZM218.728 85.0039V87.0039H218.73V85.0039V83.0039H218.728V85.0039ZM218.73 85.0039L216.735 85.1325C216.731 85.0805 216.731 85.0397 216.731 85.0223C216.73 85.0015 216.731 84.9849 216.731 84.9756C216.731 84.9576 216.731 84.9439 216.732 84.9404C216.732 84.9321 216.732 84.9279 216.732 84.9345C216.731 84.9452 216.73 84.9682 216.728 85.0151C216.723 85.1072 216.715 85.2789 216.699 85.5993L218.696 85.6992L220.694 85.7991C220.71 85.4794 220.718 85.3055 220.723 85.211C220.725 85.1646 220.727 85.134 220.728 85.114C220.728 85.1052 220.729 85.0914 220.729 85.077C220.729 85.0704 220.73 85.0546 220.73 85.0351C220.73 85.0321 220.732 84.962 220.726 84.8754L218.73 85.0039ZM218.696 85.6992L220.694 85.8002L220.729 85.1049L218.731 85.0039L216.734 84.9029L216.699 85.5982L218.696 85.6992ZM218.731 85.0039L218.63 87.0014C218.059 86.9725 217.574 86.575 217.433 86.022L219.371 85.5273L221.309 85.0327C221.017 83.8882 220.013 83.0661 218.832 83.0065L218.731 85.0039ZM219.371 85.5273L217.433 86.0203C217.293 85.4694 217.526 84.8871 218.017 84.5871L219.06 86.2939L220.102 88.0008C221.115 87.3823 221.6 86.1775 221.309 85.0344L219.371 85.5273ZM219.06 86.2939L218.018 84.5868L132.018 137.082L133.06 138.789L134.102 140.496L220.102 88.001L219.06 86.2939ZM133.06 138.789L132.018 137.082C132.246 136.942 132.502 136.881 132.75 136.891L132.667 138.89L132.584 140.888C133.107 140.91 133.638 140.779 134.101 140.496L133.06 138.789ZM132.667 138.89L134.665 138.974L134.695 138.279L132.696 138.194L130.698 138.11L130.669 138.805L132.667 138.89ZM132.696 138.194L130.698 138.107L130.668 138.803L132.666 138.89L134.664 138.977L134.694 138.281L132.696 138.194ZM132.666 138.89V136.89H132.652V138.89V140.89H132.666V138.89ZM132.652 138.89L132.736 136.891C132.732 136.891 132.728 136.891 132.719 136.891C132.711 136.89 132.701 136.89 132.69 136.889L132.606 138.888L132.523 140.886C132.532 140.886 132.54 140.887 132.547 140.887C132.554 140.887 132.562 140.888 132.569 140.888L132.652 138.89ZM132.606 138.888L132.69 136.889C132.672 136.889 132.65 136.888 132.618 136.886C132.587 136.885 132.55 136.883 132.508 136.882L132.425 138.88L132.342 140.878C132.379 140.88 132.413 140.881 132.443 140.882C132.472 140.884 132.5 140.885 132.523 140.886L132.606 138.888ZM132.425 138.88L132.508 136.882C132.345 136.875 132.112 136.865 131.802 136.852L131.719 138.851L131.635 140.849C131.943 140.862 132.185 140.872 132.342 140.878L132.425 138.88ZM131.719 138.851L131.802 136.852C131.184 136.826 130.277 136.788 129.118 136.739L129.034 138.737L128.95 140.736C130.106 140.784 131.016 140.823 131.635 140.849L131.719 138.851ZM129.034 138.737L129.118 136.739C126.804 136.641 123.491 136.501 119.503 136.329L119.417 138.327L119.331 140.325C123.321 140.497 126.634 140.638 128.95 140.736L129.034 138.737ZM119.417 138.327L119.503 136.329C111.526 135.985 100.842 135.517 90.0151 135.017L89.9229 137.015L89.8306 139.013C100.663 139.513 111.351 139.981 119.331 140.325L119.417 138.327ZM89.9229 137.015L90.0151 135.017C79.1873 134.517 68.2186 133.986 59.672 133.518L59.5625 135.515L59.453 137.512C68.0172 137.981 78.9997 138.512 89.8306 139.013L89.9229 137.015ZM59.5625 135.515L59.672 133.518C55.3982 133.283 51.7336 133.065 48.9975 132.874L48.8584 134.869L48.7193 136.864C51.4848 137.057 55.1724 137.277 59.453 137.512L59.5625 135.515ZM48.8584 134.869L48.9975 132.874C46.2004 132.679 44.5021 132.52 44.0442 132.421L43.6191 134.375L43.1941 136.329C44.0106 136.507 46.0837 136.681 48.7193 136.864L48.8584 134.869ZM43.6191 134.375L44.0458 132.421C44.112 132.435 44.182 132.456 44.2562 132.486L43.5049 134.34L42.7536 136.193C42.901 136.253 43.0491 136.298 43.1925 136.329L43.6191 134.375ZM43.5049 134.34L44.2562 132.486C42.5144 131.78 40.3044 130.79 38.5182 129.971L37.6846 131.789L36.8509 133.607C38.6468 134.431 40.9244 135.452 42.7536 136.193L43.5049 134.34ZM37.6846 131.789L38.5182 129.971C37.6274 129.563 36.8461 129.199 36.2888 128.937L35.4395 130.748L34.5901 132.559C35.1562 132.824 35.9481 133.193 36.8509 133.607L37.6846 131.789ZM35.4395 130.748L36.2888 128.937C36.0119 128.807 35.7918 128.703 35.6342 128.628L34.7793 130.437L33.9243 132.245C34.0762 132.316 34.3059 132.425 34.5901 132.559L35.4395 130.748ZM34.7793 130.437L35.6342 128.628C35.5127 128.571 35.5214 128.576 35.458 128.546L34.6006 130.353L33.7432 132.159C33.7608 132.168 33.8915 132.229 33.9244 132.245L34.7793 130.437ZM34.6006 130.353L35.4576 128.545C35.4406 128.537 35.4261 128.531 35.4172 128.527C35.4118 128.524 35.4104 128.523 35.4085 128.522C35.4068 128.522 35.4091 128.523 35.4132 128.525L34.5547 130.331L33.6962 132.137C33.7054 132.142 33.7136 132.146 33.7183 132.148C33.7229 132.15 33.7286 132.153 33.7309 132.154C33.7374 132.157 33.7407 132.158 33.7435 132.16L34.6006 130.353ZM34.5547 130.331L35.4182 128.527C35.4296 128.533 35.439 128.537 35.4455 128.54C35.4519 128.544 35.4567 128.546 35.4574 128.546C35.4576 128.547 35.4577 128.547 35.4575 128.546C35.4574 128.546 35.4568 128.546 35.4562 128.546C35.4551 128.545 35.4522 128.544 35.4486 128.542C35.4451 128.54 35.4393 128.537 35.4322 128.534C35.4252 128.53 35.4147 128.525 35.402 128.519L34.543 130.325L33.6839 132.131C33.6718 132.126 33.6621 132.121 33.6559 132.118C33.6495 132.115 33.6445 132.112 33.6418 132.111C33.639 132.109 33.637 132.108 33.6368 132.108C33.6367 132.108 33.6366 132.108 33.6369 132.108C33.6372 132.108 33.6378 132.109 33.6385 132.109C33.6412 132.11 33.6481 132.114 33.6567 132.118C33.6655 132.123 33.6773 132.128 33.6912 132.135L34.5547 130.331ZM34.543 130.325L35.5376 128.59C35.5997 128.626 35.6466 128.657 35.6689 128.672C35.6815 128.681 35.6917 128.688 35.6978 128.692C35.701 128.695 35.7036 128.697 35.7053 128.698C35.7069 128.699 35.7081 128.7 35.7082 128.7C35.7097 128.701 35.7045 128.697 35.6988 128.693C35.6929 128.689 35.6799 128.68 35.6631 128.668C35.6473 128.658 35.6188 128.639 35.5822 128.616C35.5634 128.605 35.5391 128.59 35.5104 128.574C35.4821 128.559 35.4445 128.539 35.3994 128.517L34.54 130.323L33.6807 132.129C33.6356 132.108 33.5981 132.088 33.57 132.072C33.5413 132.056 33.5171 132.042 33.4984 132.031C33.462 132.008 33.4337 131.989 33.418 131.979C33.4015 131.968 33.3888 131.959 33.3831 131.955C33.3777 131.951 33.3727 131.947 33.3745 131.948C33.3746 131.949 33.376 131.95 33.3777 131.951C33.3796 131.952 33.3823 131.954 33.3856 131.956C33.3921 131.961 33.4025 131.968 33.4154 131.977C33.4383 131.993 33.4857 132.024 33.5483 132.06L34.543 130.325ZM34.54 130.323V128.323H34.5391V130.323V132.323H34.54V130.323ZM34.5391 130.323L35.3999 128.518C35.4243 128.53 35.4571 128.546 35.4971 128.57L34.4854 130.295L33.4736 132.02C33.5478 132.064 33.618 132.1 33.6782 132.129L34.5391 130.323ZM34.4854 130.295L35.4971 128.57L30.8663 125.854L29.8545 127.579L28.8427 129.304L33.4736 132.02L34.4854 130.295ZM29.8545 127.579L30.8679 125.855C30.9168 125.884 30.9524 125.908 30.9739 125.924L29.7969 127.541L28.6198 129.158C28.6781 129.2 28.7529 129.252 28.8411 129.303L29.8545 127.579ZM29.7969 127.541L30.9738 125.924L26.4631 122.641L25.2861 124.258L24.1092 125.875L28.6199 129.158L29.7969 127.541ZM25.2861 124.258L26.4654 122.642C26.4949 122.664 26.5172 122.682 26.5304 122.693C26.5434 122.703 26.5519 122.711 26.552 122.711L25.2393 124.22L23.9265 125.729C23.9532 125.752 24.0203 125.81 24.1069 125.873L25.2861 124.258ZM25.2393 124.22L26.552 122.711L22.7131 119.371L21.4004 120.88L20.0877 122.389L23.9265 125.729L25.2393 124.22ZM21.4004 120.88L22.702 119.361L22.6951 119.356L21.3936 120.874L20.092 122.393L20.0988 122.398L21.4004 120.88ZM21.3936 120.874L22.726 119.382L18.9086 115.972L17.5762 117.464L16.2438 118.955L20.0611 122.366L21.3936 120.874ZM17.5762 117.464L18.9104 115.974C18.9338 115.995 18.9634 116.023 18.9969 116.059L17.5293 117.418L16.0617 118.777C16.1247 118.845 16.1862 118.904 16.2419 118.954L17.5762 117.464ZM17.5293 117.418L18.9981 116.06L15.5557 112.336L14.0869 113.693L12.6181 115.051L16.0605 118.775L17.5293 117.418ZM14.0869 113.693L15.5565 112.337C15.5721 112.354 15.6008 112.386 15.6356 112.431L14.0439 113.643L12.4523 114.854C12.5137 114.934 12.5719 115.001 12.6173 115.05L14.0869 113.693ZM14.0439 113.643L15.6361 112.432L12.5951 108.432L11.0029 109.643L9.4108 110.853L12.4518 114.853L14.0439 113.643ZM11.0029 109.643L12.5962 108.434C12.6242 108.47 12.647 108.504 12.6663 108.536L10.9648 109.587L9.26337 110.638C9.30603 110.707 9.35483 110.779 9.40965 110.851L11.0029 109.643ZM10.9648 109.587L12.6664 108.536L10.0502 104.301L8.34863 105.352L6.64708 106.403L9.26329 110.638L10.9648 109.587ZM8.34863 105.352L10.0513 104.302C10.0767 104.344 10.0962 104.38 10.1111 104.41L8.31641 105.293L6.52168 106.176C6.55617 106.246 6.59733 106.322 6.64601 106.401L8.34863 105.352ZM8.31641 105.293L10.1116 104.411L7.93682 99.9827L6.1416 100.864L4.34638 101.746L6.52118 106.175L8.31641 105.293ZM6.1416 100.864L7.93725 99.9835C7.93732 99.9837 7.93871 99.9865 7.94087 99.9911C7.94306 99.9957 7.94644 100.003 7.9506 100.012C7.95863 100.03 7.97168 100.06 7.98636 100.099L6.11426 100.803L4.24215 101.506C4.28491 101.62 4.32914 101.711 4.34595 101.745L6.1416 100.864ZM6.11426 100.803L7.98665 100.1L6.2679 95.5217L4.39551 96.2246L2.52311 96.9276L4.24186 101.506L6.11426 100.803ZM4.39551 96.2246L6.26846 95.5232C6.286 95.57 6.29817 95.6101 6.30676 95.6422L4.375 96.1602L2.44324 96.6781C2.46343 96.7534 2.48931 96.8373 2.52255 96.9261L4.39551 96.2246ZM4.375 96.1602L6.30696 95.6429L5.05305 90.9593L3.12109 91.4766L1.18913 91.9938L2.44304 96.6774L4.375 96.1602ZM3.12109 91.4766L5.05376 90.962C5.06373 90.9994 5.07025 91.0295 5.07415 91.0489C5.07802 91.0681 5.08022 91.0814 5.08066 91.084L3.10742 91.4102L1.13419 91.7363C1.1417 91.7817 1.15818 91.8775 1.18843 91.9912L3.12109 91.4766ZM3.10742 91.4102L5.08064 91.0839L4.29646 86.3408L2.32324 86.667L0.350028 86.9932L1.13421 91.7364L3.10742 91.4102ZM2.32324 86.667L4.29667 86.3421C4.304 86.3866 4.3085 86.4277 4.3111 86.4671L2.31543 86.5986L0.319762 86.7302C0.32533 86.8147 0.335132 86.9028 0.349811 86.9919L2.32324 86.667ZM2.31543 86.5986L4.31108 86.4668L3.99663 81.707L2.00098 81.8389L0.00532689 81.9707L0.31978 86.7305L2.31543 86.5986ZM2.00098 81.8389L3.99676 81.709C4.00003 81.7592 4.00004 81.8014 3.99896 81.8349L2 81.7705L0.00103583 81.7061C-0.00149615 81.7848 -0.00100437 81.8734 0.0051969 81.9687L2.00098 81.8389ZM2 81.7705L3.99896 81.8349L4.15131 77.1034L2.15234 77.0391L0.15338 76.9747L0.00103591 81.7061L2 81.7705ZM2.15234 77.0391L4.14504 77.2099L4.1509 77.1415L2.1582 76.9707L0.16551 76.7999L0.15965 76.8683L2.15234 77.0391ZM2.1582 76.9707L4.14127 77.2304L4.75162 72.5703L2.76855 72.3105L0.785491 72.0508L0.175139 76.711L2.1582 76.9707ZM2.76855 72.3105L4.73898 72.6532L4.7507 72.5858L2.78027 72.2432L0.80985 71.9005L0.798131 71.9679L2.76855 72.3105ZM2.78027 72.2432L4.72848 72.6954L5.78414 68.1475L3.83594 67.6953L1.88773 67.2431L0.832071 71.7909L2.78027 72.2432ZM3.83594 67.6953L5.78377 68.1491C5.77515 68.1861 5.76405 68.2263 5.74928 68.27L3.85449 67.6299L1.9597 66.9898C1.93054 67.0761 1.90693 67.1607 1.88811 67.2415L3.83594 67.6953ZM3.85449 67.6299L5.74927 68.27L7.23365 63.8765L5.33887 63.2363L3.44409 62.5962L1.95971 66.9897L3.85449 67.6299ZM5.33887 63.2363L7.19582 63.9791L7.22121 63.9156L5.36426 63.1729L3.5073 62.4301L3.48191 62.4935L5.33887 63.2363ZM5.36426 63.1729L7.18775 63.9944L9.08131 59.7912L7.25781 58.9697L5.43432 58.1482L3.54076 62.3513L5.36426 63.1729ZM7.25781 58.9697L9.04667 59.8642L9.07694 59.8036L7.28809 58.9092L5.49923 58.0148L5.46896 58.0753L7.25781 58.9697ZM7.28809 58.9092L9.02323 59.9038L11.3016 55.9292L9.56641 54.9346L7.83126 53.94L5.55294 57.9146L7.28809 58.9092ZM9.56641 54.9346L11.2608 55.9971L11.2969 55.9395L9.60254 54.877L7.90816 53.8144L7.87202 53.872L9.56641 54.9346ZM9.60254 54.877L11.2335 56.0346L13.8702 52.3197L12.2393 51.1621L10.6083 50.0045L7.9716 53.7193L9.60254 54.877ZM12.2393 51.1621L13.8702 52.3197C13.8314 52.3743 13.8002 52.4105 13.7933 52.4185L12.2812 51.1094L10.7692 49.8003C10.733 49.8421 10.673 49.9134 10.6083 50.0045L12.2393 51.1621ZM12.2812 51.1094L13.7932 52.4186L16.758 48.9948L15.2461 47.6855L13.7342 46.3763L10.7693 49.8001L12.2812 51.1094ZM15.2461 47.6855L16.6603 49.0998L16.7355 49.0246L15.3213 47.6104L13.9071 46.1961L13.8319 46.2713L15.2461 47.6855ZM15.3213 47.6104L16.6176 49.1334L26.5414 40.6871L25.2451 39.1641L23.9488 37.641L14.025 46.0873L15.3213 47.6104ZM25.2451 39.1641L26.4488 40.7613L26.5162 40.7105L25.3125 39.1133L24.1088 37.5161L24.0414 37.5668L25.2451 39.1641ZM25.3125 39.1133L26.4158 40.7814C26.3789 40.8058 26.3342 40.8326 26.281 40.8592L25.3848 39.0713L24.4885 37.2834C24.3856 37.3349 24.2924 37.3901 24.2092 37.4451L25.3125 39.1133ZM25.3848 39.0713L26.2795 40.86L99.2473 4.35999L98.3525 2.57129L97.4578 0.782593L24.49 37.2826L25.3848 39.0713ZM98.3525 2.57129L99.0676 4.43911L99.1926 4.39125L98.4775 2.52344L97.7625 0.65562L97.6375 0.703472L98.3525 2.57129ZM98.4775 2.52344L99.0123 4.45062C98.9341 4.47231 98.8515 4.48731 98.7648 4.49403L98.6104 2.5L98.4559 0.50597C98.2793 0.519645 98.1073 0.550595 97.9428 0.596258L98.4775 2.52344ZM98.6104 2.5L98.763 4.49417L105.296 3.99417L105.144 2L104.991 0.00583156L98.4577 0.505832L98.6104 2.5ZM105.144 2L105.127 3.99993L105.243 4.00091L105.26 2.00098L105.277 0.00104718L105.16 7.06127e-05L105.144 2Z" fill="white"/>
</svg>
