<svg width="218" height="141" viewBox="0 0 218 141" fill="none" xmlns="http://www.w3.org/2000/svg">
<path d="M40.4822 58.2724C45.9407 56.4353 55.2746 59.0145 55.2746 59.0145C55.2746 59.0145 58.8895 57.5477 59.1295 55.5332C59.3191 53.9412 58.3693 53.0841 57.4294 51.769C56.4894 50.4538 47.0178 49.1551 40.7807 50.9338C36.7407 52.0859 34.6145 53.4128 31.3097 55.9771C27.6825 58.7914 25.9816 60.9012 23.5432 64.7803C21.4913 68.0445 20.5025 70.0569 19.471 73.7739C17.9388 79.2952 17.3357 82.9086 18.8738 88.4592C20.2601 93.4618 22.607 97.5245 25.7489 101.685C28.8308 105.766 30.5867 108.172 34.6227 111.328C38.4513 114.321 40.8721 115.891 45.4951 117.391C48.3425 118.315 55.6581 118.714 62.1396 118.226C65.8135 117.95 67.8918 117.737 71.4613 116.855C77.7182 115.308 80.5847 114.661 86.4804 112.09C90.2536 110.444 135.983 79.6227 137.908 77.8801C142.193 74.0012 143.454 70.6624 145.827 65.401C148.54 59.3842 149.106 59.278 150.048 52.7364C150.866 47.0602 152.031 40.0011 150.795 34.3791C149.338 27.7493 148.373 24.5574 143.995 19.3218C139.354 13.7719 134.265 10.7433 127.798 7.472C121.203 4.13606 116.823 3.08696 109.453 2.87296C102.791 2.6795 98.8179 3.24214 92.6597 5.70877C68.1694 15.5182 49.3022 23.7689 26.5122 37.3379L26.401 37.4331C24.1595 39.3534 22.8654 40.4619 20.74 42.5671C17.4795 45.7966 15.8053 47.772 12.969 51.3757C11.3727 53.4041 10.46 54.5357 9.04787 56.6954C7.29584 59.3752 6.24862 60.8832 5.05073 63.8524C3.68486 67.238 3.39553 69.3277 2.82794 72.9383C2.04861 77.8958 1.8197 80.7836 2.3053 85.7907C2.81017 90.9963 3.12231 95.9299 5.40576 100.66C7.41462 104.821 9.45322 108.44 12.3553 112.05C16.8409 117.63 19.2473 119.237 24.8487 123.714C28.1484 126.35 30.2678 127.479 33.8717 129.685C38.0181 132.223 44.8189 133.91 44.8189 133.91C44.8189 133.91 126.122 139.831 135.445 138.456C144.915 133.416 217.135 89.2061 215.359 87.2807C212.154 87.1225 161.778 84.5934 147.148 83.8589L143.232 83.6624C141.31 85.4022 141.083 90.9156 142.859 92.8419C146.557 93.0292 187.244 95.0685 189.093 95.1631C190.868 97.0911 139.74 123.959 134.042 127.35C126.57 128.817 45.2668 122.896 45.2668 122.896C45.2668 122.896 38.2928 121.477 34.3241 118.67C30.5358 115.992 28.7054 114.09 25.3757 110.864C21.699 107.302 19.2992 103.703 16.5765 99.3808C13.6442 94.7256 12.391 91.6646 11.5494 86.2545C10.7757 81.2807 11.2939 78.36 12.0733 73.4028C12.6411 69.7919 14.3265 64.8179 16.2948 60.7421C17.6871 57.8591 18.2124 57.918 20.2176 55.4204C22.1199 53.051 23.6462 52.1312 25.9897 50.1916C29.5269 47.2639 31.3441 47.2067 35.4606 45.1484C38.9232 43.417 41.0748 42.8159 44.8569 41.9386C49.1259 40.9483 51.627 40.6193 56.021 40.6614C61.8512 40.7173 65.2717 41.199 70.7484 43.2397C75.3031 44.937 77.792 46.3106 81.6208 49.3036C85.6568 52.4586 88.0663 54.4557 90.4948 58.9462C92.994 63.5674 93.1625 66.7727 93.6666 71.977C94.1514 76.9832 94.5481 80.0142 93.144 84.8272C91.5269 90.3705 89.2799 93.1919 85.2239 97.3062C82.0026 100.574 79.7149 101.977 75.6783 104.185C70.8773 106.811 67.9253 108.123 62.5086 109.043C56.1074 110.13 51.9345 110.592 45.8641 108.208C41.0002 106.298 38.8206 103.937 35.0663 100.308C31 96.3786 27.9968 94.184 26.2672 88.8301C24.4956 83.3461 25.332 79.6656 26.8644 74.1442C27.8959 70.4274 28.5627 68.1905 30.9366 65.1512C33.7592 61.5373 36.1126 59.7431 40.4822 58.2724Z" fill="#FF0000" stroke="white" stroke-width="4"/>
</svg>
