<svg width="201" height="191" viewBox="0 0 201 191" fill="none" xmlns="http://www.w3.org/2000/svg">
<path d="M128.026 2C128.026 2 151.616 9.61254 164.993 17.8429C176.24 24.7628 178.961 20.9734 187.89 31.0181C193.539 37.3735 196.679 44.8365 196.679 53.3397C196.679 63.9017 194.586 73.2965 194.586 81.7998C194.586 90.3031 198.007 115.846 199 124.035M175.555 139.305C166.74 136.593 168.046 126.885 164.993 118.181C160.841 106.344 160.926 84.4228 160.646 86.4955C160.366 88.5682 159.712 102.589 159.712 112.9C159.712 121.15 159.331 122.301 158.314 128.743C157.297 135.185 154.431 139.305 154.431 144.586C154.431 165.71 156.048 151.145 150.767 172.268C143.831 183.505 128.103 188.54 128.103 188.54M78.1268 188.54C78.1268 188.54 55.3871 183.587 52.5575 172.268C47.2765 151.145 48.8117 165.71 48.8117 144.586C48.8117 139.305 47.5037 133.151 46.1475 128.743C42.8977 118.181 43.5307 121.15 43.5307 112.9C43.5307 102.589 43.8407 88.0059 43.5307 86.4955C43.2359 85.0592 42.4018 106.344 38.2498 118.181C35.1971 126.885 36.5031 136.593 27.6878 139.305M2 124.035C3.02321 115.594 6.56395 90.3031 6.56395 81.7998C6.56395 73.2965 4.85249 66.8654 4.85249 58.3621C4.85249 49.8588 8.04875 42.3968 12.107 34.9244C18.4094 23.3199 27.0025 24.7628 38.2498 17.8429C51.627 9.61254 75.2165 2 75.2165 2" stroke="white" stroke-width="3.63842"/>
<path d="M70.7083 23.1885C76.1764 23.0794 82.9449 25.6417 88.5482 28.4092C91.3066 29.7716 93.7041 31.1436 95.4114 32.1748C96.2641 32.6898 96.943 33.1178 97.4056 33.416C97.4188 33.4245 97.4318 33.4331 97.4446 33.4414C97.4567 33.5049 97.4705 33.5718 97.4837 33.6426C97.6025 34.2804 97.7656 35.2096 97.9378 36.3613C98.2827 38.668 98.6635 41.8522 98.8118 45.3672C98.9604 48.8888 98.8729 52.698 98.3001 56.2686C97.7481 59.7095 96.7603 62.8128 95.1976 65.2197C89.4425 69.0304 78.1073 75.7817 56.8841 77.6543C55.6445 77.7636 54.7721 77.4668 54.0159 76.9473C53.1887 76.3788 52.4354 75.4994 51.5618 74.3008C49.9486 72.0874 47.9127 68.6185 44.306 66.8281C41.7455 65.5572 38.3371 64.544 35.6644 63.8594C34.7714 63.6307 33.944 63.4374 33.2366 63.2773C33.7598 62.148 34.485 60.6266 35.3939 58.835C37.4185 54.8437 40.3385 49.5299 43.928 44.2148C47.5255 38.8881 51.7485 33.6303 56.3626 29.6963C60.9931 25.7483 65.8368 23.2857 70.7083 23.1885Z" fill="#A1BFFB" stroke="white" stroke-width="3.88981"/>
<path d="M133.197 22.5442C127.729 22.4351 120.961 24.9974 115.357 27.7649C112.599 29.1273 110.202 30.4993 108.494 31.5305C107.642 32.0455 106.963 32.4735 106.5 32.7717C106.487 32.7803 106.474 32.7888 106.461 32.7971C106.449 32.8606 106.435 32.9275 106.422 32.9983C106.303 33.6361 106.14 34.5653 105.968 35.717C105.623 38.0237 105.242 41.2079 105.094 44.7229C104.945 48.2445 105.033 52.0537 105.606 55.6243C106.158 59.0652 107.145 62.1685 108.708 64.5754C114.463 68.3861 125.798 75.1374 147.022 77.01C148.261 77.1193 149.134 76.8225 149.89 76.303C150.717 75.7345 151.47 74.8551 152.344 73.6565C153.957 71.4431 155.993 67.9743 159.6 66.1838C162.16 64.9129 165.568 63.8997 168.241 63.2151C169.134 62.9864 169.962 62.7931 170.669 62.6331C170.146 61.5037 169.421 59.9823 168.512 58.1907C166.487 54.1994 163.567 48.8856 159.978 43.5706C156.38 38.2438 152.157 32.9861 147.543 29.052C142.913 25.104 138.069 22.6414 133.197 22.5442Z" fill="#A1BFFB" stroke="white" stroke-width="3.88981"/>
</svg>
