<svg width="190" height="180" viewBox="0 0 190 180" fill="none" xmlns="http://www.w3.org/2000/svg">
<path d="M120.905 2C120.905 2 143.162 9.18242 155.784 16.9478C166.395 23.4766 168.963 19.9013 177.387 29.3785C182.717 35.3749 185.679 42.4161 185.679 50.4389C185.679 60.4041 183.705 69.2681 183.705 77.291C183.705 85.3138 186.933 109.413 187.869 117.14M165.749 131.547C157.432 128.988 158.664 119.828 155.784 111.617C151.866 100.448 151.946 79.7658 151.682 81.7214C151.418 83.6769 150.801 96.9052 150.801 106.634C150.801 114.418 150.441 115.504 149.482 121.582C148.522 127.66 145.818 131.547 145.818 136.53C145.818 156.46 147.344 142.718 142.361 162.648C135.817 173.25 120.978 178 120.978 178M73.8255 178C73.8255 178 52.3706 173.327 49.7009 162.648C44.7183 142.718 46.1667 156.46 46.1667 136.53C46.1667 131.547 44.9326 125.741 43.6531 121.582C40.5869 111.617 41.1842 114.418 41.1842 106.634C41.1842 96.9052 41.4766 83.1464 41.1842 81.7214C40.906 80.3662 40.119 100.448 36.2016 111.617C33.3214 119.828 34.5536 128.988 26.2364 131.547M2 117.14C2.9654 109.176 6.30608 85.3138 6.30608 77.291C6.30608 69.2681 4.69132 63.2004 4.69132 55.1775C4.69132 47.1547 7.70699 40.1143 11.536 33.0641C17.4823 22.1153 25.5899 23.4766 36.2016 16.9478C48.823 9.18242 71.0797 2 71.0797 2" stroke="white" stroke-width="3.43285"/>
<path d="M48.2993 79.4556L48.2417 79.2544C46.7025 73.866 43.978 69.1711 41.9917 65.0181C40.0362 60.9295 38.7538 57.3113 39.2495 53.4878C42.8202 49.9198 45.2219 47.5875 48.5933 45.9019C51.9187 44.2391 56.2937 43.1622 63.7964 42.4224C66.9782 49.8083 67.0303 54.6903 66.7241 59.2397C66.3993 64.067 65.6081 68.8715 67.7866 75.6411C70.4777 84.0031 74.3552 89.0324 78.3921 94.1294C82.3115 99.0781 86.3921 104.107 89.979 112.5C87.0796 118.68 82.1798 123.943 76.7583 129.184C71.7193 134.055 66.1857 138.942 61.7798 144.395C54.0571 133.585 52.491 125.699 49.7759 112.287C48.298 97.4847 48.2993 91.5652 48.2993 79.6646V79.4556Z" fill="#FF0000" stroke="white" stroke-width="2.98708"/>
<path d="M143.886 79.4556L143.943 79.2544C145.483 73.866 148.207 69.1711 150.193 65.0181C152.149 60.9295 153.431 57.3113 152.936 53.4878C149.365 49.9198 146.963 47.5875 143.592 45.9019C140.266 44.2391 135.891 43.1622 128.389 42.4224C125.207 49.8083 125.155 54.6903 125.461 59.2397C125.786 64.067 126.577 68.8715 124.398 75.6411C121.707 84.0031 117.83 89.0324 113.793 94.1294C109.874 99.0781 105.793 104.107 102.206 112.5C105.105 118.68 110.005 123.943 115.427 129.184C120.466 134.055 125.999 138.942 130.405 144.395C138.128 133.585 139.694 125.699 142.409 112.287C143.887 97.4847 143.886 91.5652 143.886 79.6646V79.4556Z" fill="#FF0000" stroke="white" stroke-width="2.98708"/>
<path d="M88.3097 128.286C88.8521 130.904 89.5606 134.635 90.2218 139.074C91.52 147.791 92.6261 159.187 91.962 170.246C90.0368 171.745 88.3839 172.609 86.6378 173.142C84.706 173.731 82.5765 173.942 79.673 174.063C76.2358 174.206 73.7916 173.84 71.5079 172.947C69.1854 172.038 66.9332 170.55 63.9015 168.276C61.8154 166.711 61.2681 164.728 61.4034 162.156C61.473 160.833 61.7242 159.406 62.0372 157.846C62.3225 156.424 62.6619 154.873 62.9142 153.318C67.3889 146.684 74.0404 139.661 79.6534 134.235C82.4889 131.494 85.0411 129.177 86.8839 127.547C87.273 127.203 87.6307 126.89 87.9523 126.61C88.0598 127.102 88.1804 127.662 88.3097 128.286Z" fill="#FF0000" stroke="white" stroke-width="3.04534"/>
<path d="M104.826 128.286C104.284 130.904 103.575 134.635 102.914 139.074C101.616 147.791 100.51 159.187 101.174 170.246C103.099 171.745 104.752 172.609 106.498 173.142C108.43 173.731 110.559 173.942 113.463 174.063C116.9 174.206 119.344 173.84 121.628 172.947C123.951 172.038 126.203 170.55 129.234 168.276C131.321 166.711 131.868 164.728 131.733 162.156C131.663 160.833 131.412 159.406 131.099 157.846C130.813 156.424 130.474 154.873 130.222 153.318C125.747 146.684 119.096 139.661 113.483 134.235C110.647 131.494 108.095 129.177 106.252 127.547C105.863 127.203 105.505 126.89 105.184 126.61C105.076 127.102 104.956 127.662 104.826 128.286Z" fill="#FF0000" stroke="white" stroke-width="3.04534"/>
<path d="M67.6372 9.78101C71.3098 9.38709 76.1145 9.74764 80.0796 10.2292C82.0456 10.468 83.7749 10.7326 85.0122 10.9373C85.547 11.0257 85.9891 11.1039 86.3179 11.1628C86.3909 11.2864 86.4756 11.4273 86.5669 11.5857C86.9304 12.2162 87.4224 13.1026 87.9341 14.1228C88.9784 16.2049 90.0265 18.6908 90.3325 20.6794C93.3707 40.4276 94.8743 53.9996 93.3647 73.6248C92.9767 78.6696 91.1304 84.9848 89.3354 90.1218C88.545 92.3842 87.7711 94.3909 87.1577 95.9246C86.5861 94.7687 85.8791 93.3518 85.0815 91.7996C83.0083 87.7643 80.316 82.7591 77.8901 79.0056C76.4768 76.8188 74.5512 74.125 72.9917 71.9929C72.2096 70.9237 71.5145 69.989 71.0151 69.322C70.8664 69.1234 70.7348 68.9484 70.6235 68.8005C70.6478 68.6769 70.6764 68.5386 70.7056 68.3865C70.8362 67.7065 71.0122 66.7557 71.1938 65.6716C71.5542 63.5207 71.9486 60.7783 72.0415 58.5789C72.2962 52.5511 72.3151 48.7889 70.4507 42.8337C68.2822 35.9074 65.0916 32.6264 61.0903 27.1619C58.9197 24.1975 55.8233 20.7175 53.2993 18.0056C52.1594 16.7809 51.1263 15.7046 50.3354 14.8894C51.5384 14.3974 53.1911 13.7453 55.0757 13.0691C58.9995 11.6613 63.8062 10.1919 67.6372 9.78101Z" fill="#FF0000" stroke="white" stroke-width="3.04534"/>
<path d="M124.249 9.78101C120.576 9.38709 115.772 9.74764 111.806 10.2292C109.84 10.468 108.111 10.7326 106.874 10.9373C106.339 11.0257 105.897 11.1039 105.568 11.1628C105.495 11.2864 105.41 11.4273 105.319 11.5857C104.956 12.2162 104.464 13.1026 103.952 14.1228C102.908 16.2049 101.859 18.6908 101.553 20.6794C98.5153 40.4276 97.0116 53.9996 98.5212 73.6248C98.9093 78.6696 100.756 84.9848 102.551 90.1218C103.341 92.3842 104.115 94.3909 104.728 95.9246C105.3 94.7687 106.007 93.3518 106.804 91.7996C108.878 87.7643 111.57 82.7591 113.996 79.0056C115.409 76.8188 117.335 74.125 118.894 71.9929C119.676 70.9237 120.371 69.989 120.871 69.322C121.02 69.1234 121.151 68.9484 121.262 68.8005C121.238 68.6769 121.21 68.5386 121.18 68.3865C121.05 67.7065 120.874 66.7557 120.692 65.6716C120.332 63.5207 119.937 60.7783 119.844 58.5789C119.59 52.5511 119.571 48.7889 121.435 42.8337C123.604 35.9074 126.794 32.6264 130.796 27.1619C132.966 24.1975 136.063 20.7175 138.587 18.0056C139.727 16.7809 140.76 15.7046 141.551 14.8894C140.348 14.3974 138.695 13.7453 136.81 13.0691C132.886 11.6613 128.08 10.1919 124.249 9.78101Z" fill="#FF0000" stroke="white" stroke-width="3.04534"/>
</svg>
