<svg width="211" height="187" viewBox="0 0 211 187" fill="none" xmlns="http://www.w3.org/2000/svg">
<path d="M131.618 145.677C131.618 145.677 129.675 133.64 131.618 125C132.904 119.286 135.529 111.048 138.5 106C141.176 101.454 142.781 99.8594 147.5 97.5C151.5 95.5 152.307 94.8907 157 95.0002C159.795 95.0654 161.353 95.6 164 96.5001C166.714 97.4232 170.618 99.6768 170.618 99.6768" stroke="white" stroke-width="2.5" stroke-dasharray="5 5"/>
<path d="M73.5 126C73.5 126 82.4922 130.951 94.6871 129.463C103.708 128.748 108.45 126.703 116.847 121.394C123.104 115.42 125.66 107.874 125.27 99.9618C124.667 87.7489 114.5 85.5 114.5 85.5" stroke="white" stroke-width="4" stroke-linecap="round"/>
<path d="M31.4695 47.2275C31.6601 47.1705 31.8295 47.1236 31.9503 47.0918C32.0101 47.076 32.0577 47.0639 32.0887 47.0562C32.1038 47.0524 32.1153 47.0498 32.122 47.0482C32.125 47.0475 32.1274 47.0463 32.1285 47.046L32.2107 47.027L32.2913 47.0003L34.6683 46.2101L35.8835 45.8072C35.9184 45.7964 35.9723 45.7809 36.0402 45.7614C36.1775 45.722 36.3651 45.6709 36.5688 45.6242C36.7769 45.5765 36.9766 45.5394 37.1421 45.5195C37.2331 45.5086 37.2883 45.5056 37.3132 45.5049C37.3454 45.5115 37.3757 45.5209 37.4413 45.5592C37.4977 45.5921 37.565 45.6366 37.6816 45.7161C37.7846 45.7864 37.9434 45.8966 38.1113 46.0037C38.2659 46.1023 38.3472 46.1602 38.3853 46.1876C38.3981 46.2048 38.4175 46.2302 38.4447 46.2677C38.5217 46.3733 38.6362 46.5314 38.7985 46.7389C39.4486 47.57 39.4768 47.5234 39.8586 48.1426C40.0138 48.3943 40.1163 48.6358 40.2698 49.0197C40.417 49.3876 40.6203 49.9143 40.9533 50.4824C41.3368 51.1363 41.793 51.5351 42.0553 51.7673C42.3176 51.9993 42.3628 52.0476 42.4154 52.1304C42.542 52.3294 42.5879 52.5041 42.6545 53.0594C42.719 53.5967 42.8037 54.5614 43.3639 55.5835C43.4799 55.7952 43.595 55.9681 43.7148 56.1236C43.7705 56.1959 43.8208 56.2564 43.8575 56.2995C43.9066 56.3574 43.9059 56.3562 43.9318 56.387C43.9391 56.3958 43.9807 56.4348 44.0984 56.6662C44.1012 56.6799 44.1062 56.7009 44.1106 56.731C44.119 56.788 44.1257 56.8546 44.1359 56.9562C44.1446 57.0428 44.1583 57.1845 44.1761 57.3194C44.2061 57.5466 44.2819 58.0836 44.6002 58.5986C45.005 59.2534 45.6589 59.6632 46.4142 59.7719C47.1153 59.8727 47.6909 59.656 48.0301 59.482C48.3816 59.3017 48.6597 59.0755 48.8463 58.9058C49.0414 58.7283 49.1985 58.5557 49.3035 58.4322C49.3507 58.3767 49.3897 58.327 49.421 58.2873C49.4343 58.2729 49.4516 58.2541 49.4727 58.2321C49.5366 58.1656 49.6274 58.0766 49.7303 57.9851C49.8361 57.8912 49.9345 57.8136 50.0157 57.7598C50.0415 57.7428 50.0607 57.7313 50.0729 57.7244L50.0742 57.725C50.075 57.725 50.0888 57.7237 50.1322 57.7264C50.1859 57.7297 50.2533 57.7369 50.3882 57.7536C50.5095 57.7687 50.6865 57.7915 50.8828 57.8088C51.1736 57.8344 51.3759 57.9062 51.9259 58.2737C52.3699 58.5704 52.6742 58.9967 53.0491 60.9507C53.0787 61.1052 53.0603 61.5206 52.8744 62.2855C52.7907 62.6296 52.6899 62.9828 52.5827 63.3513C52.481 63.701 52.3644 64.0937 52.2768 64.4425C51.7681 66.4684 50.5417 68.6079 49.3506 70.3193C48.7678 71.1567 48.219 71.8557 47.8179 72.343C47.6178 72.586 47.4553 72.7752 47.3454 72.9009C47.2906 72.9636 47.2487 73.0108 47.222 73.0406C47.2088 73.0553 47.1988 73.0656 47.1932 73.0717C47.1905 73.0747 47.1888 73.0767 47.1879 73.0776L47.0292 73.2506L46.9146 73.4573L44.9301 77.0197L44.887 77.0978L44.8511 77.1787L43.263 80.7423L43.2423 80.7883L43.224 80.8355L42.3253 83.1583L40.4 85.3975L40.0566 85.7954L39.9539 86.3109L39.2139 90.0245L39.1289 90.4508L39.2277 90.8728L39.8212 93.4014L39.9737 94.0505L40.485 94.4787L41.7211 95.5134C41.7234 95.5157 41.7261 95.5178 41.7285 95.5202C41.7746 95.5666 41.8419 95.6334 41.9283 95.7194C42.1016 95.8917 42.3534 96.1402 42.6705 96.4466C43.3041 97.0588 44.2028 97.9077 45.2666 98.8585C47.3759 100.744 50.2071 103.096 52.942 104.78C55.0057 106.051 58.4128 108.051 61.8469 110.729C65.2962 113.419 68.6047 116.668 70.5316 120.333L72.1166 123.348L73.9774 120.495C76.1391 117.182 76.8205 114.831 77.2155 112.627C77.6023 110.469 77.6711 108.949 78.6107 106.623C80.0245 103.124 79.8118 102.559 82.1898 98.6977C83.7784 96.1181 84.9415 94.3509 86.2916 92.82C87.6205 91.3133 89.1832 89.9785 91.607 88.3682C95.3684 85.8693 97.1801 86.1005 102.336 85.1844C104.089 84.873 106.478 84.856 108.528 84.9349C109.532 84.9735 110.419 85.0328 111.053 85.0831C111.37 85.1082 111.623 85.1308 111.795 85.147C111.881 85.155 111.946 85.1624 111.99 85.1667C112.011 85.1689 112.027 85.1704 112.037 85.1714C112.043 85.172 112.047 85.1715 112.049 85.1718L112.05 85.1724L115.18 85.5041L114.152 82.5301L114.142 82.5004C114.134 82.479 114.123 82.4463 114.108 82.4025C114.078 82.3145 114.034 82.1822 113.977 82.0107C113.865 81.6677 113.704 81.1668 113.512 80.5434C113.128 79.2943 112.624 77.5594 112.143 75.6174C111.161 71.645 110.36 67.1166 110.692 64.054C111.316 58.2932 112.453 55.1805 114.674 49.5953C116.502 44.9999 117.074 42.6123 119.833 39.227C122.948 35.4063 125.418 33.8205 130.057 31.6105C132.946 30.2347 134.628 29.6769 137.767 29.0544C142.808 28.0545 145.736 27.8506 150.516 29.0537C154.781 30.127 156.449 31.7883 160.909 34.321C168.546 38.658 173.105 39.9355 178.027 46.12C183.923 53.5277 184.642 59.6008 185.741 69.6323C186.336 75.0675 186.958 77.8221 185.768 82.5529C185.231 84.684 184.656 85.929 183.915 87.054C183.104 88.2855 182.126 89.3504 180.53 91.3082C179.107 93.0538 177.619 93.8311 175.651 95.067C173.668 96.3119 171.532 97.8635 169.611 101.063C169.099 101.914 167.721 104.668 166.678 108.021C165.76 110.975 165.47 112.313 165.155 113.516C164.856 114.659 164.504 115.805 163.403 118.573C161.236 124.023 160.664 123.471 157.908 127.946C156.375 130.435 155.407 131.608 154.239 132.66C152.941 133.829 151.497 134.786 148.653 137.007C146.746 138.498 144.233 139.807 141.496 141.101C138.843 142.354 135.903 143.625 133.5 144.937C130.39 146.636 128.05 148.457 125.83 150.166C123.601 151.88 121.484 153.49 118.672 154.968C110.671 159.174 107.552 161.707 100.271 164.652C94.2748 167.077 92.7278 168.251 86.1768 169.877C83.7254 170.486 81.9639 170.971 80.4197 171.315C78.9111 171.651 77.8095 171.804 76.7975 171.775C74.8373 171.719 72.8434 170.975 68.6382 168.497C60.4647 163.68 57.4419 159.238 50.0417 152.293C47.2787 149.7 44.7225 147.754 42.6467 145.957C40.5172 144.114 38.5853 142.186 36.5885 139.26C30.684 130.608 28.2448 128.038 24.4956 118.803C23.2238 115.67 21.8693 112.452 20.8338 110.02C20.3157 108.804 19.877 107.782 19.5677 107.065C19.4131 106.706 19.2905 106.424 19.2068 106.231C19.1704 106.147 19.1419 106.079 19.1206 106.03C19.1074 105.987 19.091 105.932 19.0708 105.867C19.0154 105.688 18.9345 105.426 18.8309 105.097C18.6237 104.438 18.3269 103.506 17.9671 102.408C17.2487 100.216 16.273 97.3468 15.2572 94.6755C12.6525 87.8258 13.4216 81.7702 13.4256 77.9591L13.4319 71.645L13.4326 71.6438C13.4326 71.6422 13.4319 71.6393 13.4319 71.6358C13.432 71.6288 13.4324 71.618 13.4326 71.6037C13.4331 71.5746 13.4336 71.5303 13.4347 71.4733C13.4368 71.3593 13.4408 71.1919 13.446 70.983C13.4563 70.5646 13.4731 69.9795 13.5011 69.3154C13.5578 67.9698 13.6559 66.3615 13.8178 65.1506C13.9487 64.1714 13.9511 63.4545 13.9712 62.8764C13.9904 62.3221 14.0259 61.7761 14.1972 60.9238C14.5727 59.0568 14.7037 58.6622 15.2646 57.363L15.2643 57.3621L15.2748 57.338C15.6139 56.5528 15.7215 56.3196 16.0834 55.9042C16.149 55.829 16.2847 55.6973 16.4459 55.5515C16.5182 55.4862 16.5831 55.429 16.6296 55.3888C16.6527 55.3689 16.6709 55.3533 16.6825 55.3435C16.6882 55.3387 16.6923 55.3352 16.6946 55.3333L16.6943 55.3324L16.6964 55.3327L16.8492 55.2038L16.9727 55.0487L16.973 55.0496L16.972 55.0499L16.9723 55.0508C16.9725 55.0507 16.9726 55.0496 16.9736 55.0484C16.9759 55.0455 16.9801 55.0397 16.9866 55.0317C16.9997 55.0157 17.0209 54.9903 17.0485 54.9577C17.1043 54.8917 17.184 54.8001 17.2759 54.7002C17.4883 54.4693 17.6624 54.3103 17.7407 54.2559C18.3134 53.8589 18.4026 53.8483 19.2318 53.3912C19.8012 53.0772 20.0699 52.9106 20.4694 52.736C21.077 52.4704 21.6554 52.1775 22.074 51.956C22.2852 51.8442 22.4609 51.7476 22.5849 51.6785C22.6469 51.644 22.6965 51.6158 22.7314 51.596C22.7489 51.5861 22.7632 51.5786 22.7731 51.5729L22.7747 51.5714L24.474 50.6365C24.4802 50.6333 24.4878 50.6302 24.4954 50.6264C24.5336 50.6068 24.5885 50.5781 24.657 50.5429C24.7945 50.4722 24.9866 50.3736 25.2034 50.2609C25.6326 50.0378 26.1767 49.7521 26.5943 49.522C27.6016 48.9668 27.6646 48.8839 28.5072 48.5112C29.3097 48.1561 29.6609 47.9798 30.4063 47.614C30.6566 47.4911 31.0601 47.35 31.4695 47.2275Z" stroke="white" stroke-width="4"/>
<path d="M33.2136 74.81L34.4027 74.019C34.4027 74.019 35.3545 73.5468 35.9875 73.6246C37.5056 73.8112 36.6059 76.0191 37.5678 77.2083C37.9776 77.715 38.1102 78.2883 38.7552 78.3806C39.2394 78.4499 39.9439 77.9857 39.9439 77.9857C39.9439 77.9857 41.3493 77.4934 41.9256 76.7995C42.4578 76.1587 42.7198 74.8198 42.7198 74.8198C42.7198 74.8198 43.3216 73.4033 43.5144 72.4442C43.8194 70.9277 43.5169 70.0301 43.5185 68.4833C43.5196 67.4005 43.7744 66.7635 43.5214 65.7107C43.279 64.7018 43.1997 63.9074 42.3356 63.3329C41.6788 62.8962 40.3555 62.9348 40.3555 62.9348C40.3555 62.9348 36.74 62.5446 34.4147 62.5326C31.9351 62.5197 30.5501 62.7407 28.0771 62.9221C26.2194 63.0583 23.3236 63.3133 23.3236 63.3133" stroke="white" stroke-width="4" stroke-linecap="round"/>
<path d="M21.3486 58.1623C21.3486 58.1623 23.5165 57.6573 24.9142 57.3738C26.6091 57.0301 27.5573 56.8112 29.272 56.5862C31.5776 56.2835 32.8973 55.9984 35.2142 55.8001C36.7631 55.6676 37.6217 55.8662 39.175 55.8042C40.3634 55.7568 41.1555 55.8063 41.9476 55.8071C43.1557 55.8083 44.0303 56.6177 44.3221 57.79C44.7166 59.3748 44.3185 61.3548 44.3185 61.3548L43.5226 64.9188" stroke="white" stroke-width="4" stroke-linecap="round"/>
<path d="M19.3733 53.8032C19.3733 53.8032 22.1927 52.3739 24.1277 51.8277C25.9387 51.3164 27.025 51.3479 28.8815 51.0404C30.738 50.733 31.7789 50.5606 33.6354 50.2531C34.5637 50.0994 35.0825 50.0032 36.0123 49.8595C37.0933 49.6924 37.7478 49.5154 38.785 49.8624C39.9729 50.2597 41.5568 50.6574 41.5568 50.6574" stroke="white" stroke-width="4" stroke-linecap="round"/>
<path d="M47.0931 59.3772C47.0931 59.3772 45.9036 60.5642 45.5055 62.5443C45.2471 63.3361 45.3807 64.5299 45.1066 65.3165C44.3779 67.4079 43.9126 70.8605 43.9126 70.8605" stroke="white" stroke-width="4" stroke-linecap="round"/>
<path d="M148.372 97.7285C152.683 95.8494 155.534 95.0367 160.094 95.7637C161.908 96.0531 164.098 97.0202 165.865 97.9404C166.742 98.3969 167.502 98.8353 168.043 99.1592C168.24 99.2773 168.408 99.381 168.541 99.4639C168.457 99.6558 168.345 99.912 168.212 100.222C167.902 100.942 167.474 101.952 167 103.104C166.054 105.407 164.922 108.298 164.195 110.621C163.582 112.582 163.367 114.209 163.104 115.753C162.84 117.298 162.524 118.789 161.717 120.563C159.846 124.679 158.061 126.676 154.818 129.917C151.307 133.426 148.74 134.713 144.412 137.343C140.836 139.516 138.814 140.712 134.979 142.309C134.22 142.625 133.229 142.997 132.423 143.291C132.127 143.399 131.856 143.495 131.633 143.575C131.633 143.572 131.633 143.569 131.633 143.565C131.61 143.13 131.582 142.496 131.557 141.707C131.507 140.128 131.472 137.928 131.531 135.446C131.651 130.468 132.151 124.406 133.646 119.929C137.016 109.841 138.936 101.841 148.372 97.7285Z" fill="#A1BFFB" stroke="white"/>
</svg>
