<svg width="201" height="191" viewBox="0 0 201 191" fill="none" xmlns="http://www.w3.org/2000/svg">
<path d="M128.026 2C128.026 2 151.616 9.61254 164.993 17.8429C176.24 24.7628 178.961 20.9734 187.89 31.0181C193.539 37.3735 196.679 44.8365 196.679 53.3397C196.679 63.9017 194.586 73.2965 194.586 81.7998C194.586 90.3031 198.007 115.846 199 124.035M175.555 139.305C166.74 136.593 168.046 126.885 164.993 118.181C160.841 106.344 160.926 84.4228 160.646 86.4955C160.366 88.5682 159.712 102.589 159.712 112.9C159.712 121.15 159.331 122.301 158.314 128.743C157.297 135.185 154.431 139.305 154.431 144.586C154.431 165.71 156.048 151.145 150.767 172.268C143.831 183.505 128.103 188.54 128.103 188.54M78.1268 188.54C78.1268 188.54 55.3871 183.587 52.5575 172.268C47.2765 151.145 48.8117 165.71 48.8117 144.586C48.8117 139.305 47.5037 133.151 46.1475 128.743C42.8977 118.181 43.5307 121.15 43.5307 112.9C43.5307 102.589 43.8407 88.0059 43.5307 86.4955C43.2359 85.0592 42.4018 106.344 38.2498 118.181C35.1971 126.885 36.5031 136.593 27.6878 139.305M2 124.035C3.02321 115.594 6.56395 90.3031 6.56395 81.7998C6.56395 73.2965 4.85249 66.8654 4.85249 58.3621C4.85249 49.8588 8.04875 42.3968 12.107 34.9244C18.4094 23.3199 27.0025 24.7628 38.2498 17.8429C51.627 9.61254 75.2165 2 75.2165 2" stroke="white" stroke-width="3.63842"/>
<path d="M99.5723 87.8438C112.68 87.8437 126.327 89.0676 136.35 91.4775C138.649 94.8531 139.976 96.761 140.813 100.531C141.6 104.069 140.943 106.801 139.76 109.74C138.608 112.601 136.728 116.07 135.686 120.24C133.703 128.172 132.287 132.735 130.533 140.854C129.206 146.996 129.199 152.359 128.887 157.161C128.587 161.77 128.011 166.014 125.877 170.566C111.167 175.259 91.8311 175.26 77.1221 170.566C74.9884 166.014 74.4125 161.77 74.1133 157.161C73.8015 152.359 73.7936 146.996 72.4668 140.854C70.7131 132.735 69.2975 128.172 67.3145 120.24C66.272 116.07 64.3919 112.601 63.2402 109.74C62.0572 106.801 61.4002 104.069 62.1865 100.531C63.0296 96.7379 64.3671 94.8295 66.6924 91.415C74.1768 89.0659 86.4772 87.8438 99.5723 87.8438Z" fill="#A1BFFB" stroke="white" stroke-width="3.6871"/>
<path d="M66.8104 119.403C66.8104 119.403 87.1587 119.403 96.3607 115.549C103.509 108.226 101.5 89.8542 101.5 89.8542C101.5 89.8542 99.4912 108.226 106.639 115.549C116.484 119.403 136.189 119.403 136.189 119.403" stroke="white" stroke-width="2.82753" stroke-linecap="round" stroke-dasharray="5.35 5.35"/>
<path d="M72.9954 139.959C72.9954 139.959 90.4171 146.382 101.5 146.382M130.154 139.959C130.154 139.959 112.682 145.892 101.5 146.382M101.5 89.8542C101.5 89.8542 101.5 124.307 101.5 146.382" stroke="white" stroke-width="2.82753" stroke-linecap="round" stroke-dasharray="5.35 5.35"/>
<path d="M101.5 141.243V156.66V172.077" stroke="white" stroke-width="2.82753" stroke-linecap="round" stroke-dasharray="5.35 5.35"/>
<path d="M69.2334 23.5925C74.7015 23.4835 81.47 26.0458 87.0732 28.8132C89.8317 30.1756 92.2292 31.5476 93.9365 32.5789C94.7892 33.0939 95.468 33.5218 95.9307 33.8201C95.9439 33.8286 95.9569 33.8371 95.9697 33.8455C95.9818 33.9089 95.9956 33.9759 96.0088 34.0466C96.1276 34.6845 96.2907 35.6136 96.4629 36.7654C96.8078 39.072 97.1886 42.2562 97.3369 45.7712C97.4855 49.2928 97.398 53.102 96.8252 56.6726C96.2732 60.1135 95.2854 63.2168 93.7227 65.6238C87.9676 69.4344 76.6323 76.1857 55.4092 78.0583C54.1696 78.1677 53.2972 77.8708 52.541 77.3513C51.7138 76.7829 50.9605 75.9034 50.0869 74.7048C48.4737 72.4914 46.4378 69.0226 42.8311 67.2322C40.2706 65.9612 36.8622 64.948 34.1895 64.2634C33.2965 64.0347 32.4691 63.8414 31.7617 63.6814C32.2849 62.552 33.0101 61.0307 33.9189 59.239C35.9435 55.2477 38.8636 49.934 42.4531 44.6189C46.0506 39.2922 50.2736 34.0344 54.8877 30.1003C59.5182 26.1524 64.3619 23.6897 69.2334 23.5925Z" stroke="white" stroke-width="3.88981"/>
<path d="M131.722 22.9482C126.254 22.8392 119.486 25.4015 113.883 28.1689C111.124 29.5313 108.727 30.9034 107.019 31.9346C106.167 32.4496 105.488 32.8775 105.025 33.1758C105.012 33.1843 104.999 33.1929 104.986 33.2012C104.974 33.2646 104.96 33.3316 104.947 33.4023C104.828 34.0402 104.665 34.9694 104.493 36.1211C104.148 38.4277 103.767 41.6119 103.619 45.127C103.47 48.6485 103.558 52.4578 104.131 56.0283C104.683 59.4692 105.67 62.5725 107.233 64.9795C112.988 68.7902 124.323 75.5414 145.547 77.4141C146.786 77.5234 147.659 77.2265 148.415 76.707C149.242 76.1386 149.995 75.2591 150.869 74.0605C152.482 71.8472 154.518 68.3783 158.125 66.5879C160.685 65.3169 164.094 64.3037 166.766 63.6191C167.659 63.3904 168.487 63.1971 169.194 63.0371C168.671 61.9078 167.946 60.3864 167.037 58.5947C165.012 54.6035 162.092 49.2897 158.503 43.9746C154.905 38.6479 150.682 33.3901 146.068 29.4561C141.438 25.5081 136.594 23.0454 131.722 22.9482Z" stroke="white" stroke-width="3.88981"/>
</svg>
