<svg width="211" height="187" viewBox="0 0 211 187" fill="none" xmlns="http://www.w3.org/2000/svg">
<path d="M31.2674 46.5496C31.4669 46.4899 31.6437 46.442 31.7701 46.4087C31.8331 46.392 31.8835 46.3787 31.9168 46.3703C31.9334 46.3661 31.9461 46.363 31.9539 46.3611C31.9574 46.3602 31.96 46.36 31.9616 46.3596L31.9625 46.3593L32.0157 46.3458L32.0676 46.3285L34.4449 45.5393L34.4458 45.539L35.6338 45.144C35.6427 45.1412 35.6569 45.137 35.6758 45.1311C35.7144 45.1193 35.7729 45.1019 35.8455 45.0811C35.9915 45.0391 36.1918 44.9849 36.4111 44.9347C36.6335 44.8837 36.8587 44.841 37.0574 44.8171C37.1558 44.8053 37.238 44.7997 37.3032 44.7984C37.3349 44.7977 37.3595 44.7975 37.3773 44.7985C37.3955 44.7995 37.4034 44.8009 37.4017 44.8007C37.5504 44.8241 37.6599 44.8687 37.7977 44.9492C37.8771 44.9956 37.9627 45.0518 38.0806 45.1322C38.1897 45.2066 38.3359 45.3079 38.4918 45.4074C38.8677 45.6471 38.891 45.6862 38.8941 45.6897C38.9103 45.7079 38.9336 45.7371 39.0164 45.8507C39.0937 45.9568 39.2017 46.1062 39.3557 46.3031C39.9665 47.084 40.0507 47.1079 40.4598 47.7714C40.6503 48.0802 40.7728 48.3726 40.9268 48.7576C41.0765 49.1321 41.2622 49.6095 41.5641 50.1245C41.8864 50.674 42.2676 51.0097 42.5246 51.2371C42.7817 51.4646 42.8987 51.5729 43.0118 51.7506C43.2311 52.0952 43.2895 52.4113 43.3572 52.9756C43.4235 53.5279 43.4987 54.3584 43.9836 55.2433C44.1919 55.6235 44.3875 55.8291 44.4748 55.9333C44.5204 55.9878 44.5969 56.0768 44.752 56.3877C44.7638 56.4114 44.7874 56.4753 44.81 56.6278C44.821 56.7025 44.8298 56.7838 44.8401 56.8863C44.8494 56.9789 44.8619 57.1059 44.8779 57.2267C44.9062 57.441 44.9682 57.8478 45.2021 58.2262C45.4919 58.6952 45.9572 58.9918 46.5144 59.072C47.0165 59.1442 47.4393 58.9898 47.7071 58.8525C47.983 58.711 48.2094 58.529 48.3703 58.3826C48.5367 58.2311 48.6727 58.0822 48.7647 57.974C48.8117 57.9188 48.8491 57.8706 48.877 57.8349L48.8773 57.8328C48.8786 57.8314 48.8809 57.8306 48.8823 57.8291C48.8997 57.8099 48.9275 57.78 48.9636 57.7424C49.037 57.6661 49.1404 57.5624 49.2605 57.4557C49.3825 57.3474 49.5084 57.2476 49.6257 57.17C49.6834 57.1318 49.7324 57.1033 49.7719 57.0834C49.7913 57.0737 49.807 57.0665 49.8183 57.0619L49.835 57.0564C49.9631 57.019 50.0524 57.0124 50.1769 57.0202C50.2548 57.025 50.3413 57.0356 50.4745 57.0521C50.5993 57.0676 50.763 57.0882 50.9445 57.1042C51.4104 57.1452 51.7317 57.2927 52.3193 57.6854C53.0261 58.1577 53.3676 58.8579 53.7435 60.8172C53.8044 61.1343 53.7488 61.6802 53.5612 62.4518C53.4734 62.8129 53.3687 63.1802 53.2615 63.5491C53.1578 63.9057 53.0462 64.2826 52.9627 64.6153C52.4228 66.7649 51.1394 68.9875 49.9312 70.7235C49.3353 71.5797 48.7745 72.2939 48.3641 72.7926C48.1591 73.0415 47.9923 73.2357 47.8783 73.3662C47.8214 73.4313 47.7774 73.4801 47.7487 73.5121C47.7343 73.528 47.7237 73.54 47.7171 73.5472C47.7139 73.5508 47.7116 73.5532 47.7103 73.5546L47.7097 73.5558L47.607 73.6681L47.5327 73.8008L45.5484 77.3641L45.5208 77.4144L45.497 77.4666L43.9089 81.0303L43.8959 81.0593L43.8835 81.0901L42.9415 83.527L40.9357 85.8588L40.7145 86.1163L40.6479 86.4491L39.907 90.163L39.8522 90.4384L39.9169 90.7112L40.5095 93.2401L40.6086 93.6599L40.9389 93.9362L42.2046 94.995C42.2123 95.0028 42.2211 95.0116 42.2308 95.0213C42.276 95.0668 42.3423 95.1333 42.4278 95.2183C42.5989 95.3885 42.848 95.6341 43.1623 95.9378C43.7907 96.5451 44.6823 97.3875 45.7377 98.3309C47.8372 100.208 50.6319 102.526 53.3133 104.177C55.3638 105.44 58.8103 107.464 62.2823 110.171C65.7641 112.886 69.1632 116.209 71.1581 120.004L72.1827 121.953L73.3851 120.108C75.4947 116.874 76.6532 113.335 77.2866 110.636C77.6047 109.28 77.7942 108.121 77.904 107.297C77.9589 106.885 77.9944 106.555 78.0161 106.326C78.0238 106.245 78.0279 106.176 78.0325 106.121C78.0367 106.107 78.0422 106.093 78.0471 106.078C78.0831 105.964 78.1376 105.793 78.2118 105.576C78.3603 105.139 78.5845 104.513 78.8852 103.762C79.4884 102.255 80.3901 100.271 81.5873 98.3265C83.1532 95.7838 84.2534 94.334 85.5383 93.1141C86.8442 91.8741 88.3811 90.83 90.9288 89.1374C95.1456 86.3358 97.4051 84.7568 102.055 84.5058C103.89 84.4068 106.425 84.3989 108.522 84.4164C109.565 84.425 110.493 84.4396 111.159 84.4524C111.492 84.4588 111.76 84.4645 111.944 84.4687C112.036 84.4709 112.107 84.4728 112.155 84.474C112.179 84.4746 112.198 84.475 112.21 84.4753C112.216 84.4755 112.221 84.4759 112.224 84.476C112.225 84.476 112.226 84.476 112.227 84.476L112.228 84.4757L114.093 84.525L113.483 82.761L113.481 82.7535C113.479 82.7483 113.475 82.7405 113.472 82.7297C113.464 82.7075 113.453 82.6734 113.438 82.6287C113.408 82.539 113.362 82.4048 113.306 82.2314C113.192 81.8845 113.029 81.3794 112.836 80.7511C112.449 79.4929 111.941 77.7453 111.457 75.7874C110.474 71.8144 109.642 67.1768 109.989 63.9775C110.623 58.121 111.788 54.9376 114.017 49.334C115.82 44.7996 116.438 42.2729 119.285 38.7802C122.487 34.852 125.055 33.2094 129.753 30.9717C132.695 29.5706 134.433 28.9942 137.629 28.3602C142.734 27.3478 145.774 27.1308 150.689 28.3677C155.078 29.4723 156.912 31.2378 161.259 33.7061C168.782 37.9787 173.546 39.3539 178.58 45.6796C184.614 53.2616 185.345 59.522 186.444 69.5556C187.033 74.9394 187.682 77.8429 186.453 82.7257C185.901 84.9193 185.298 86.2408 184.506 87.4435C183.669 88.7148 182.642 89.8374 181.079 91.755C179.564 93.6126 177.952 94.4571 176.027 95.6655C174.094 96.8797 172.059 98.3598 170.217 101.427C169.736 102.227 168.38 104.929 167.353 108.231C166.441 111.165 166.158 112.477 165.839 113.694C165.53 114.874 165.168 116.048 164.06 118.835C161.866 124.351 161.175 123.991 158.511 128.317C156.957 130.84 155.948 132.073 154.712 133.186C153.393 134.374 151.88 135.384 149.089 137.565C147.115 139.107 144.54 140.445 141.798 141.74C139.112 143.01 136.217 144.258 133.838 145.558C130.784 147.226 128.485 149.015 126.262 150.726C124.032 152.442 121.872 154.084 119.001 155.594C111.102 159.746 107.853 162.349 100.537 165.307C94.6077 167.705 92.9627 168.921 86.3468 170.564C83.9204 171.166 82.1272 171.659 80.5736 172.006C79.0432 172.347 77.8751 172.514 76.7769 172.483C74.6216 172.42 72.4916 171.589 68.2787 169.107C60.0151 164.237 56.8709 159.672 49.5573 152.808C46.801 150.222 44.31 148.332 42.1839 146.491C40.0231 144.621 38.0443 142.649 36.0036 139.659C30.1209 131.039 27.6259 128.392 23.8411 119.069C22.5713 115.941 21.2183 112.727 20.1836 110.297C19.6661 109.081 19.2277 108.061 18.9187 107.345C18.7643 106.987 18.6417 106.704 18.5581 106.511C18.5163 106.415 18.4839 106.34 18.4621 106.29C18.4601 106.286 18.4584 106.281 18.4566 106.277C18.4423 106.23 18.4219 106.162 18.3951 106.076C18.34 105.897 18.2586 105.638 18.1555 105.31C17.949 104.653 17.6529 103.723 17.2941 102.628C16.5773 100.441 15.6067 97.583 14.5965 94.9264C11.9324 87.9201 12.7145 81.6819 12.7184 77.958L12.7251 71.6356L12.7254 71.6334C12.7254 71.6317 12.7247 71.6288 12.7248 71.6254C12.7249 71.618 12.7249 71.607 12.7251 71.5923C12.7256 71.5627 12.7268 71.5183 12.7278 71.4608C12.7299 71.3455 12.7336 71.1769 12.7388 70.9664C12.7492 70.5449 12.7667 69.9554 12.7949 69.2862C12.8517 67.9365 12.9505 66.3012 13.1169 65.0569C13.242 64.1211 13.244 63.4479 13.2646 62.8525C13.2848 62.2722 13.3227 61.6854 13.5039 60.7844C13.8873 58.8774 14.0313 58.4343 14.615 57.0825L14.6262 57.0572C14.9682 56.265 15.1114 55.9441 15.5509 55.4399C15.6454 55.3313 15.8065 55.1759 15.9715 55.0267C16.0485 54.9571 16.1176 54.8966 16.1673 54.8538C16.192 54.8325 16.2122 54.8157 16.2251 54.8048C16.2313 54.7995 16.2358 54.7955 16.2387 54.7931C16.2402 54.7918 16.2413 54.7904 16.2418 54.79L16.3411 54.7077L16.4209 54.6071L16.4237 54.6031C16.4269 54.5992 16.4323 54.5925 16.4398 54.5834C16.4549 54.5649 16.4789 54.5364 16.5091 54.5007C16.5697 54.429 16.656 54.33 16.7559 54.2213C16.9747 53.9836 17.1921 53.7756 17.338 53.6744C17.9501 53.2501 18.0968 53.2094 18.8906 52.7717C19.4314 52.4736 19.7476 52.2798 20.1866 52.0879C20.7724 51.8319 21.3331 51.547 21.743 51.3301C21.9493 51.2209 22.1206 51.1271 22.2409 51.0601C22.3011 51.0265 22.3492 51.0001 22.3825 50.9812C22.399 50.9718 22.4123 50.9643 22.4214 50.959C22.4249 50.957 22.4274 50.9546 22.4298 50.9532L24.1152 50.026L24.1171 50.0254C24.1197 50.0241 24.1236 50.0221 24.1285 50.0196C24.1386 50.0144 24.1535 50.0065 24.1724 49.9968C24.2104 49.9773 24.2656 49.9485 24.3341 49.9133C24.4708 49.8431 24.6616 49.7455 24.8771 49.6335C25.3056 49.4108 25.8432 49.1274 26.2528 48.9016C27.2251 48.3658 27.3407 48.2537 28.2207 47.8644C29.009 47.5156 29.3484 47.3448 30.0948 46.9786C30.3998 46.8289 30.8497 46.6746 31.2674 46.5496ZM48.8634 57.8497L48.8625 57.85L48.8628 57.851L48.8609 57.8516C48.861 57.8515 48.8612 57.8502 48.8622 57.8491C48.8629 57.8498 48.8634 57.8497 48.8634 57.8497Z" stroke="black" stroke-width="2.58544"/>
<path d="M75.4261 110.154C75.889 106.778 77.1899 101.093 79.8827 95.729C82.5754 90.3648 83.2139 88.9543 89.2744 85.4224C92.151 83.746 93.223 83.6203 96.4887 82.9725C101.652 81.9483 103.717 81.1411 108.708 82.8137C110.941 83.5618 113.537 82.8382 115.471 84.1814C119.794 87.1847 120.264 89.4305 121.92 94.4271C123.577 99.4238 123.184 102.802 121.899 107.907C120.75 112.473 120.037 115.585 116.49 118.682C110.433 123.97 107.61 124.559 99.7492 127.482C94.8151 129.317 89.0864 128.479 83.6071 129.122C66.396 127.877 71.576 125.814 72.3535 120.483C72.834 117.188 74.9738 113.452 75.4261 110.154Z" fill="#FF0000"/>
<path d="M33.2136 74.81L34.4027 74.019C34.4027 74.019 35.3545 73.5468 35.9875 73.6246C37.5056 73.8112 36.6059 76.0191 37.5678 77.2083C37.9776 77.715 38.1102 78.2883 38.7552 78.3806C39.2394 78.4499 39.9439 77.9857 39.9439 77.9857C39.9439 77.9857 41.3493 77.4934 41.9256 76.7995C42.4578 76.1587 42.7198 74.8198 42.7198 74.8198C42.7198 74.8198 43.3216 73.4033 43.5144 72.4442C43.8194 70.9277 43.5169 70.0301 43.5185 68.4833C43.5196 67.4005 43.7744 66.7635 43.5214 65.7107C43.279 64.7018 43.1997 63.9074 42.3356 63.3329C41.6788 62.8962 40.3555 62.9348 40.3555 62.9348C40.3555 62.9348 36.74 62.5446 34.4147 62.5326C31.9351 62.5197 30.5501 62.7407 28.0771 62.9221C26.2194 63.0583 23.3236 63.3133 23.3236 63.3133" stroke="black" stroke-width="1.98044" stroke-linecap="round"/>
<path d="M21.3486 58.1623C21.3486 58.1623 23.5165 57.6573 24.9142 57.3738C26.6091 57.0301 27.5573 56.8112 29.272 56.5862C31.5776 56.2835 32.8973 55.9984 35.2142 55.8001C36.7631 55.6676 37.6217 55.8662 39.175 55.8042C40.3634 55.7568 41.1555 55.8063 41.9476 55.8071C43.1557 55.8083 44.0303 56.6177 44.3221 57.79C44.7166 59.3748 44.3185 61.3548 44.3185 61.3548L43.5226 64.9188" stroke="black" stroke-width="1.98044" stroke-linecap="round"/>
<path d="M19.3733 53.8032C19.3733 53.8032 22.1927 52.3739 24.1277 51.8277C25.9387 51.3164 27.025 51.3479 28.8815 51.0404C30.738 50.733 31.7789 50.5606 33.6354 50.2531C34.5637 50.0994 35.0825 50.0032 36.0123 49.8595C37.0933 49.6924 37.7478 49.5154 38.785 49.8624C39.9729 50.2597 41.5568 50.6574 41.5568 50.6574" stroke="black" stroke-width="1.98044" stroke-linecap="round"/>
<path d="M47.0931 59.3772C47.0931 59.3772 45.9036 60.5642 45.5055 62.5443C45.2471 63.3361 45.3807 64.5299 45.1066 65.3165C44.3779 67.4079 43.9126 70.8605 43.9126 70.8605" stroke="black" stroke-width="1.98044" stroke-linecap="round"/>
<path d="M72.109 125.973C72.109 125.973 74.0621 118.383 74.9183 115.995C75.768 113.624 75.9332 112.198 76.5634 109.761C77.0843 107.746 77.3791 106.617 77.8758 104.596C78.2683 102.999 78.3729 102.073 78.8556 100.501C79.7278 97.6607 80.3477 96.0613 81.9032 93.5298C83.0628 91.6429 83.74 90.5456 85.3551 89.0301C87.5012 87.0162 89.1087 86.2931 91.8323 85.178C94.3324 84.1546 95.8706 83.9235 98.5298 83.4474C100.651 83.0678 101.856 82.7238 104.009 82.8046C106.423 82.8952 107.687 83.6391 110.059 84.0985C111.791 84.4339 114.505 84.8945 114.505 84.8945" stroke="black" stroke-width="2.5825" stroke-linecap="round"/>
<path d="M71.5921 126.693C71.5921 126.693 80.1685 130.239 92.3634 128.751C101.385 128.036 106.127 125.991 114.523 120.682C120.78 114.709 123.337 107.162 122.946 99.2502C122.343 87.0373 114.671 84.3588 114.671 84.3588" stroke="black" stroke-width="1.58435" stroke-dasharray="3.96 3.96"/>
</svg>
