<svg width="171" height="187" viewBox="0 0 171 187" fill="none" xmlns="http://www.w3.org/2000/svg">
<path d="M83.5134 84.4722C95.1019 84.4722 107.167 85.5545 116.029 87.6851C118.062 90.6701 119.236 92.3569 119.977 95.6909C120.672 98.8191 120.091 101.234 119.045 103.833C118.026 106.362 116.365 109.43 115.443 113.117C113.69 120.13 112.438 124.164 110.887 131.342C109.714 136.773 109.707 141.514 109.431 145.76C109.167 149.836 108.655 153.588 106.767 157.615C93.763 161.763 76.6695 161.763 63.6657 157.615C61.7782 153.588 61.2672 149.836 61.0026 145.76C60.727 141.514 60.7196 136.773 59.5466 131.342C57.996 124.164 56.7442 120.13 54.9909 113.117C54.0692 109.43 52.4076 106.362 51.3893 103.833C50.3434 101.234 49.7616 98.8191 50.4567 95.6909C51.2022 92.3364 52.3857 90.649 54.4421 87.6294C61.0597 85.5525 71.9355 84.4722 83.5134 84.4722Z" fill="#FF0000" stroke="black" stroke-width="3.26"/>
<path d="M54.5457 112.376C54.5457 112.376 72.537 112.376 80.673 108.968C86.993 102.493 85.2169 86.25 85.2169 86.25C85.2169 86.25 83.4409 102.493 89.7608 108.968C98.4653 112.376 115.888 112.376 115.888 112.376" stroke="black" stroke-width="1.55" stroke-linecap="round" stroke-dasharray="4.73 4.73"/>
<path d="M60.0142 130.551C60.0142 130.551 75.4179 136.23 85.2169 136.23M110.552 130.551C110.552 130.551 95.1042 135.797 85.2169 136.23M85.2169 86.25C85.2169 86.25 85.2169 116.712 85.2169 136.23" stroke="black" stroke-width="1.55" stroke-linecap="round" stroke-dasharray="4.73 4.73"/>
<path d="M85.2169 131.687V145.317V158.948" stroke="black" stroke-width="1.55" stroke-linecap="round" stroke-dasharray="4.73 4.73"/>
<path d="M107.686 1.56543C107.834 1.61426 108.052 1.68668 108.332 1.78027C108.904 1.97136 109.736 2.25229 110.771 2.6123C112.84 3.33251 115.719 4.36678 118.955 5.62012C125.452 8.13665 133.293 11.5027 138.92 14.9648C143.932 18.0488 147.159 18.7931 149.8 19.7607C152.298 20.6761 154.591 21.8676 158.271 26.0068C162.903 31.2186 165.437 37.2784 165.438 44.1729C165.438 48.6208 164.997 52.8364 164.547 56.9092C164.1 60.9509 163.637 64.897 163.637 68.6602C163.637 72.5406 164.433 75.7495 165.297 78.792C166.168 81.8611 167.081 84.6849 167.489 88.0547C167.708 89.8562 168.011 91.5229 168.245 92.9814C168.485 94.4712 168.655 95.7579 168.66 96.9531C168.669 99.2187 168.089 101.207 165.896 103.4C163.513 105.782 160.654 109.049 157.487 111.855C155.928 113.238 154.368 114.436 152.864 115.283C151.447 116.082 150.173 116.514 149.056 116.566C147.572 116.068 146.551 115.31 145.79 114.377C144.969 113.371 144.391 112.091 143.924 110.533C143.452 108.961 143.126 107.234 142.735 105.32C142.352 103.443 141.912 101.426 141.217 99.4453C139.504 94.5628 138.639 87.4824 138.181 81.7197C137.953 78.8622 137.83 76.3734 137.747 74.6982C137.706 73.8736 137.674 73.2145 137.644 72.8223C137.636 72.7223 137.628 72.6233 137.617 72.5352C137.612 72.491 137.592 72.309 137.534 72.126C137.517 72.073 137.477 71.9544 137.4 71.8184C137.358 71.7429 137.132 71.3351 136.611 71.1279C136.3 71.0041 135.944 70.9792 135.599 71.0781C135.281 71.1691 135.064 71.3379 134.938 71.459C134.712 71.6779 134.612 71.9097 134.585 71.9727C134.531 72.0974 134.497 72.2242 134.477 72.3213L134.449 72.4912C134.193 74.3908 133.631 86.5475 133.631 95.4189C133.631 102.39 133.32 103.282 132.447 108.807C132.035 111.418 131.252 113.549 130.512 115.739C129.784 117.893 129.087 120.13 129.087 122.682C129.087 131.852 130.241 138.859 130.797 145.531C131.35 152.167 131.351 158.742 129.192 167.497C126.36 171.958 121.014 176.267 116.179 179.536C113.753 181.176 111.507 182.521 109.869 183.455C109.051 183.922 108.385 184.285 107.926 184.53C107.779 184.609 107.653 184.675 107.55 184.729H58.3584C58.2714 184.681 58.1675 184.623 58.0498 184.556C57.6291 184.314 57.021 183.956 56.2822 183.496C54.8022 182.574 52.8078 181.247 50.7441 179.628C48.6762 178.005 46.568 176.112 44.8418 174.061C43.107 171.999 41.8252 169.857 41.2959 167.74C39.0768 158.864 39.0747 152.228 39.6328 145.531C40.1888 138.859 41.3428 131.852 41.3428 122.682C41.3427 117.926 40.1731 112.467 38.9805 108.591C37.5487 103.938 37.0478 102.486 36.8574 101.251C36.7701 100.684 36.7497 100.153 36.7568 99.2783C36.7638 98.4267 36.7988 97.1898 36.7988 95.4189C36.7988 90.9907 36.865 85.6526 36.8984 81.2324C36.9151 79.0279 36.9237 77.0493 36.9111 75.5381C36.9048 74.7834 36.8931 74.1342 36.874 73.627C36.8612 73.2849 36.8428 72.9336 36.8076 72.6475L36.7666 72.3857L36.7344 72.2529C36.7176 72.1933 36.6939 72.121 36.6611 72.0439C36.6297 71.97 36.5577 71.8139 36.4209 71.6484C36.2917 71.4921 35.9713 71.1696 35.4307 71.0918C34.8457 71.0077 34.4086 71.2634 34.1885 71.4502C33.9859 71.6222 33.8758 71.8045 33.8311 71.8838C33.7364 72.0516 33.6912 72.2033 33.6768 72.2529C33.6158 72.4619 33.5808 72.7273 33.5586 72.9033C33.5038 73.3369 33.4388 74.0199 33.3604 74.8613C33.2012 76.5677 32.9778 79.0411 32.6514 81.8691C31.994 87.5631 30.9357 94.5333 29.2129 99.4453C28.5181 101.426 28.0778 103.443 27.6943 105.32C27.3035 107.234 26.9777 108.961 26.5059 110.533C26.0382 112.091 25.4604 113.371 24.6396 114.377C23.8776 115.311 22.8553 116.069 21.3682 116.567C18.5242 116.47 15.5817 114.603 12.6143 111.874C11.1232 110.503 9.69734 108.983 8.34082 107.498C7.00402 106.035 5.70226 104.569 4.5332 103.4C2.37024 101.237 1.6513 98.8713 1.57227 96.1348C1.48916 93.2553 2.10048 90.2112 2.54785 86.5205C2.9794 82.9602 3.56861 80.4651 4.07812 77.8105C4.58807 75.1536 4.99219 72.4477 4.99219 68.6602C4.99218 64.9009 4.61346 61.6051 4.24609 58.3994C3.8772 55.1804 3.51953 52.051 3.51953 48.4941C3.51957 41.5799 6.11256 35.4437 9.57129 29.0752C12.0813 24.4536 14.9852 22.4735 18.4902 20.8955C21.9575 19.3345 26.5729 18.0022 31.5098 14.9648C37.137 11.5027 44.9775 8.13665 51.4746 5.62012C54.7104 4.36679 57.5895 3.33251 59.6592 2.6123C60.6938 2.2523 61.5257 1.97135 62.0977 1.78027C62.3778 1.68668 62.5954 1.61425 62.7441 1.56543H107.686Z" stroke="black" stroke-width="3.13052"/>
<path d="M113.083 11.6152C116.453 11.4359 118.355 11.7324 121.73 12.5352C125.725 13.4855 127.886 13.8931 130.733 16.0928C133.347 18.1123 134.47 19.6866 135.818 22.6963C137.642 26.7683 136.818 29.2707 136.692 34.502C136.648 36.3073 136.493 37.708 136.301 39.1377C136.11 40.5619 135.872 42.0771 135.688 43.9932C135.46 46.3759 135.393 48.2685 135.292 50.0703C135.192 51.8763 135.055 53.6466 134.691 55.8955C134.187 59.0048 134.337 60.3139 133.286 62.7217C132.605 64.2795 131.997 65.4191 131.25 66.4102C130.508 67.3931 129.588 68.2865 128.231 69.293C125.627 71.2245 123.743 71.8631 120.348 72.3633C118.211 72.6781 117.017 72.5463 114.642 72.3516C109.778 71.9527 107.408 70.6765 102.364 69.0596C100.088 68.3302 98.9563 68.0737 96.9595 67.1963C94.7669 66.2329 94.0337 66.2618 92.8872 65.1201C92.1303 64.3663 91.8417 63.5999 91.6313 62.5781C91.435 61.6239 91.2721 60.0406 90.7349 58.5088C90.1211 56.7586 89.7734 55.9062 89.2319 54.2256C88.8021 52.8913 88.6676 52.3103 88.2271 50.8828C87.8283 49.591 87.3791 48.5578 87.0444 47.6895C86.7046 46.8078 86.4299 45.9741 86.2583 44.8643C86.0933 43.7967 86.0909 42.9579 86.1343 42.0684C86.1766 41.2017 86.2759 40.1281 86.2759 38.8613C86.2759 37.5992 86.1874 36.5378 86.1489 35.6631C86.1096 34.7679 86.1108 33.9177 86.2612 32.834C86.6134 30.2982 87.0471 28.929 88.1509 26.5576C89.5226 23.6106 90.5275 22.07 92.8667 19.8242C95.8545 16.9557 98.2047 16.1082 102.472 14.3848C106.584 12.724 108.864 11.8397 113.083 11.6152Z" stroke="black" stroke-width="3.13052"/>
<path d="M56.4692 11.6152C53.0993 11.4359 51.1966 11.7324 47.8218 12.5352C43.8263 13.4855 41.6662 13.8931 38.8188 16.0928C36.2048 18.1123 35.0819 19.6866 33.7339 22.6963C31.9102 26.7683 32.7338 29.2707 32.8599 34.502C32.9034 36.3073 33.0584 37.708 33.2505 39.1377C33.4419 40.5619 33.6801 42.0771 33.8638 43.9932C34.0921 46.3759 34.1588 48.2685 34.2593 50.0703C34.36 51.8763 34.4963 53.6466 34.8608 55.8955C35.3648 59.0048 35.2144 60.3139 36.2661 62.7217C36.9465 64.2795 37.5551 65.4191 38.3022 66.4102C39.0433 67.3931 39.964 68.2865 41.3208 69.293C43.9247 71.2245 45.8084 71.8631 49.2036 72.3633C51.3408 72.6781 52.5346 72.5463 54.9097 72.3516C59.7742 71.9527 62.1434 70.6765 67.188 69.0596C69.4636 68.3302 70.5955 68.0737 72.5923 67.1963C74.7848 66.2329 75.5181 66.2618 76.6646 65.1201C77.4215 64.3663 77.7101 63.5999 77.9204 62.5781C78.1168 61.6239 78.2797 60.0406 78.8169 58.5088C79.4307 56.7586 79.7784 55.9062 80.3198 54.2256C80.7497 52.8913 80.8842 52.3103 81.3247 50.8828C81.7234 49.591 82.1726 48.5578 82.5073 47.6895C82.8472 46.8078 83.1219 45.9741 83.2935 44.8643C83.4584 43.7967 83.4609 42.9579 83.4175 42.0684C83.3752 41.2017 83.2759 40.1281 83.2759 38.8613C83.2759 37.5992 83.3644 36.5378 83.4028 35.6631C83.4422 34.7679 83.441 33.9177 83.2905 32.834C82.9384 30.2982 82.5047 28.929 81.4009 26.5576C80.0291 23.6106 79.0242 22.07 76.6851 19.8242C73.6972 16.9557 71.3471 16.1082 67.0796 14.3848C62.9675 12.724 60.6875 11.8397 56.4692 11.6152Z" stroke="black" stroke-width="3.13052"/>
</svg>
