<svg width="133" height="187" viewBox="0 0 133 187" fill="none" xmlns="http://www.w3.org/2000/svg">
<path d="M58.7691 68.4085L76.1108 53.1359C76.1108 53.1359 84.8757 47.4794 90.0382 49.5093C96.4851 52.0441 89.7429 57.2704 88.5117 62.1588C86.865 68.6971 84.7894 72.2281 81.4342 78.4748C77.8225 85.1992 76.0742 89.1489 70.471 95.2491C64.5214 101.726 55.3446 110.19 55.3446 110.19C55.3446 110.19 38.7189 125.555 32.0304 120.731C27.8132 117.69 34.2017 111.363 34.2017 111.363L44.3177 89.4083L58.7691 68.4085Z" fill="#FF0000"/>
<path d="M94.3877 1.14355C94.4407 1.18528 94.4999 1.23241 94.5654 1.28418C94.8809 1.53322 95.3391 1.89613 95.9082 2.35059C97.0466 3.2596 98.629 4.53438 100.404 5.99707C103.962 8.92874 108.268 12.593 111.332 15.5771C117.813 21.8891 121.687 25.2751 126.012 32.1416C128.331 35.823 129.732 37.7021 130.733 41.3662C131.374 43.7094 131.761 45.5027 131.806 47.2549C131.85 48.9847 131.559 50.7338 130.76 52.9609C130.128 54.721 129.291 56.0245 128.271 57.3389C127.754 58.0068 127.201 58.6633 126.591 59.4014C125.987 60.1325 125.34 60.9279 124.671 61.8359C118.448 70.2763 108.117 80.2467 99.2891 88.1436C94.8848 92.0831 90.8721 95.4904 87.9609 97.9131C86.5056 99.1242 85.326 100.089 84.5107 100.75C84.1031 101.081 83.7865 101.336 83.5723 101.508C83.4653 101.594 83.3836 101.659 83.3291 101.702C83.3019 101.724 83.2812 101.74 83.2676 101.751C83.2608 101.756 83.2553 101.761 83.252 101.764C83.2505 101.765 83.2497 101.766 83.249 101.767H83.248V101.768L83.2314 101.78L83.2158 101.793L83.5957 102.237C83.2502 101.833 83.2188 101.797 83.2158 101.794H83.2148C83.2141 101.795 83.2124 101.796 83.2109 101.797C83.2081 101.799 83.2045 101.803 83.1992 101.808C83.1884 101.817 83.1723 101.831 83.1514 101.849C83.1095 101.885 83.0475 101.938 82.9668 102.008C82.8052 102.148 82.5676 102.354 82.2637 102.621C81.6559 103.155 80.781 103.932 79.708 104.907C77.562 106.857 74.6214 109.601 71.4463 112.778C65.1241 119.105 57.7666 127.249 53.9492 134.291C50.5214 140.614 47.6359 144.569 47.1533 151.717C46.9726 154.394 47.0004 156.577 47.377 158.757C47.7536 160.937 48.4689 163.062 49.6064 165.639C51.3045 169.484 52.2222 172.103 56.1523 175.484C57.2142 176.398 58.095 177.113 58.8076 177.698C59.5313 178.293 60.0572 178.735 60.4609 179.139C60.854 179.531 61.0995 179.856 61.2705 180.193C61.4033 180.456 61.5068 180.761 61.5869 181.162C61.4556 181.41 61.353 181.636 61.2666 181.836C61.1273 182.158 61.0559 182.342 60.9561 182.527C60.8158 182.788 60.6207 183.059 59.9385 183.407C59.07 183.85 58.5442 184.162 58.1807 184.384C57.7783 184.629 57.7135 184.671 57.6309 184.701C57.577 184.721 57.4747 184.749 57.0273 184.785C56.5531 184.823 55.9778 184.852 54.8691 184.936C50.9482 185.23 50.6509 185.204 46.7061 184.935C42.146 184.623 39.5397 184.694 35.7725 183.349C31.3278 181.761 30.1194 179.872 26.8613 176.891C24.2714 174.521 22.9308 172.434 21.7266 170.236C20.5214 168.037 19.3898 165.587 17.2949 162.755C13.4065 157.498 11.1081 154.607 10.0508 149.723C10.0232 149.256 10.0495 148.972 10.0928 148.781C10.1342 148.599 10.2002 148.459 10.3164 148.283C10.4669 148.056 10.6171 147.883 10.9141 147.488C11.1843 147.129 11.4951 146.684 11.8262 146.081C12.8089 144.292 13.7044 142.901 15.4336 141.542C19.3316 138.478 20.0921 137.61 24.457 134.991L24.792 134.79L24.9346 134.427C28.4516 125.413 30.6615 117.631 35.457 107.077C40.4341 96.1233 42.8613 89.9537 49.9297 79.6602C55.2239 71.9503 57.5935 67.4852 65.1426 60.9004C68.8363 57.6785 70.6489 55.8122 75.2051 53.3447C76.5868 52.5965 78.5199 51.7438 80.1338 51.0693C80.935 50.7345 81.6479 50.4482 82.1602 50.2451C82.4162 50.1436 82.6224 50.0628 82.7637 50.0078C82.8339 49.9805 82.8882 49.9594 82.9248 49.9453C82.9431 49.9382 82.9576 49.9322 82.9668 49.9287C82.9711 49.927 82.9744 49.9256 82.9766 49.9248L82.9785 49.9238H82.9795L85.666 48.8965L83.0068 47.7998L83.0059 47.7988L83.0039 47.7979C83.0018 47.797 82.9983 47.7957 82.9941 47.7939C82.9857 47.7905 82.9727 47.7852 82.9561 47.7783C82.9225 47.7645 82.8722 47.7439 82.8066 47.7168C82.6751 47.6624 82.4808 47.5817 82.2295 47.4775C81.7265 47.2691 80.9954 46.9658 80.084 46.5859C78.2609 45.8262 75.7158 44.7614 72.8291 43.54C67.0529 41.096 59.9185 38.0305 54.459 35.5342C43.8381 30.6778 37.8355 28.0212 27.8818 22.6436C25.6197 21.4214 23.4593 20.4074 21.4189 19.4766C19.3681 18.541 17.4633 17.6998 15.6543 16.7998C12.0581 15.0105 8.95733 13.0434 6.28418 9.89355L6.19824 9.79297L6.09277 9.71387L5.72266 9.42285C3.91806 7.91845 2.77153 5.68043 2.06836 3.66797C1.73104 2.70249 1.50689 1.81812 1.3623 1.14355H94.3877Z" stroke="black" stroke-width="2.28655"/>
<path d="M30.8296 120.59C30.8296 120.59 35.8576 122.188 40.4639 120.59C46.3568 118.545 50.0828 114.689 55.397 110.408C64.3363 103.207 68.0345 98.4251 74.1838 90.0451C79.1206 83.3176 81.7821 75.8404 85.2633 68.7267C88.2217 62.6813 89.117 60.4541 92.0073 54.4087C93.9024 50.4447 86.2267 48.6813 86.2267 48.6813" stroke="black" stroke-width="1.5502" stroke-linecap="round" stroke-dasharray="3.88 3.88"/>
</svg>
